<?xml version="1.0" encoding="utf-8"?>
<!-- Generator: Adobe Illustrator 24.1.0, SVG Export Plug-In . SVG Version: 6.00 Build 0)  -->
<svg version="1.1" id="Camada_1" xmlns="http://www.w3.org/2000/svg" xmlns:xlink="http://www.w3.org/1999/xlink" x="0px" y="0px"
	 viewBox="0 0 468.83 357.18" style="enable-background:new 0 0 468.83 357.18;" xml:space="preserve">
<style type="text/css">
	.st0{opacity:0.39;}
	.st1{opacity:0.64;fill:#D1C4E9;enable-background:new    ;}
	.st2{opacity:0.31;fill:#B39DDB;enable-background:new    ;}
	.st3{opacity:0.24;}
	.st4{clip-path:url(#SVGID_2_);}
	.st5{fill:none;stroke:#FFFFFF;stroke-width:1.594;stroke-miterlimit:10;}
	.st6{clip-path:url(#SVGID_4_);}
	.st7{clip-path:url(#SVGID_6_);}
	.st8{opacity:0.3;fill:#D1C4E9;enable-background:new    ;}
	.st9{fill:#32B5C6;}
	.st10{fill:#FFFFFF;}
	.st11{fill:#4DD0E1;}
	.st12{fill:#60E3F4;}
	.st13{fill:#39306C;}
	.st14{fill:#4B4583;}
	.st15{opacity:0.74;}
	.st16{fill:#E02D76;}
	.st17{fill:#F7327A;}
	.st18{fill:#221B4C;}
	.st19{fill:none;stroke:#4B4583;stroke-width:0.9782;stroke-linecap:round;stroke-linejoin:round;stroke-miterlimit:10;}
	.st20{fill:none;stroke:#4B4583;stroke-width:0.6843;stroke-linecap:round;stroke-linejoin:round;stroke-miterlimit:10;}
	.st21{fill:none;stroke:#FFFFFF;stroke-width:1.6653;stroke-linecap:round;stroke-linejoin:round;stroke-miterlimit:10;}
	.st22{fill:#DD3178;}
	.st23{fill:#F4AE98;}
	.st24{fill:#FFB99F;}
	.st25{fill:none;stroke:#F7327A;stroke-width:1.0522;stroke-miterlimit:10;}
	.st26{fill:#47417F;}
	.st27{fill:#5E5896;}
	.st28{opacity:0.07;}
	.st29{fill:none;stroke:#4B4583;stroke-linecap:round;stroke-linejoin:round;stroke-miterlimit:10;}
	.st30{fill:none;stroke:#4B4583;stroke-width:2;stroke-linecap:round;stroke-linejoin:round;stroke-miterlimit:10;}
	.st31{fill:none;stroke:#4B4583;stroke-width:1.398;stroke-linecap:round;stroke-linejoin:round;stroke-miterlimit:10;}
</style>
<g>
	<g>
		<g>
			<g>
				<g class="st0">
					<path class="st1" d="M407.56,27.78c-22.04-5-62.53-35.33-94.54,9.84c-28.45,40.15-68.31,32.59-88.74,24
						c-34.13-14.34-79.52-22.42-94.31,17.45s8.36,73.42-63.22,91.6c-71.58,18.18-58.04,99.36,12.62,108.86s89.99-29,153.57-19.54
						c64.44,9.59,59.67,107.18,169.12,86.4L407.56,27.78z"/>
					<path class="st2" d="M427.03,60.37c-18,12-84.56,26.4-113.73-7.3c-30.68-35.45-72.85-56.78-97.77-0.7s-16.82,76.13-94.43,66.92
						c-77.76-9.24-99.96,64.4-48.03,96.27c53.32,32.73,67.69,75.08,155.7,83.23c54.04,5,157.58-23.74,186-69.32
						C440.76,187.78,427.03,60.37,427.03,60.37z"/>
				</g>
				<g class="st3">
					<g>
						<g>
							<defs>
								
									<ellipse id="SVGID_1_" transform="matrix(0.2298 -0.9732 0.9732 0.2298 141.2857 428.9868)" cx="341.68" cy="125.23" rx="34.59" ry="34.59"/>
							</defs>
							<clipPath id="SVGID_2_">
								<use xlink:href="#SVGID_1_"  style="overflow:visible;"/>
							</clipPath>
							<g class="st4">
								<line class="st5" x1="291.63" y1="68.54" x2="178.37" y2="181.8"/>
								<line class="st5" x1="297.56" y1="68.54" x2="184.29" y2="181.8"/>
								<line class="st5" x1="303.48" y1="68.54" x2="190.22" y2="181.8"/>
								<line class="st5" x1="309.41" y1="68.54" x2="196.15" y2="181.8"/>
								<line class="st5" x1="315.33" y1="68.54" x2="202.07" y2="181.8"/>
								<line class="st5" x1="321.26" y1="68.54" x2="208" y2="181.8"/>
								<line class="st5" x1="327.18" y1="68.54" x2="213.92" y2="181.8"/>
								<line class="st5" x1="333.11" y1="68.54" x2="219.85" y2="181.8"/>
								<line class="st5" x1="339.03" y1="68.54" x2="225.77" y2="181.8"/>
								<line class="st5" x1="344.96" y1="68.54" x2="231.7" y2="181.8"/>
								<line class="st5" x1="350.89" y1="68.54" x2="237.62" y2="181.8"/>
								<line class="st5" x1="356.81" y1="68.54" x2="243.55" y2="181.8"/>
								<line class="st5" x1="362.74" y1="68.54" x2="249.47" y2="181.8"/>
								<line class="st5" x1="368.66" y1="68.54" x2="255.4" y2="181.8"/>
								<line class="st5" x1="374.59" y1="68.54" x2="261.33" y2="181.8"/>
								<line class="st5" x1="380.51" y1="68.54" x2="267.25" y2="181.8"/>
								<line class="st5" x1="386.44" y1="68.54" x2="273.18" y2="181.8"/>
								<line class="st5" x1="392.36" y1="68.54" x2="279.1" y2="181.8"/>
								<line class="st5" x1="398.29" y1="68.54" x2="285.03" y2="181.8"/>
								<line class="st5" x1="404.21" y1="68.54" x2="290.95" y2="181.8"/>
								<line class="st5" x1="410.14" y1="68.54" x2="296.88" y2="181.8"/>
								<line class="st5" x1="416.07" y1="68.54" x2="302.8" y2="181.8"/>
								<line class="st5" x1="421.99" y1="68.54" x2="308.73" y2="181.8"/>
								<line class="st5" x1="427.92" y1="68.54" x2="314.65" y2="181.8"/>
								<line class="st5" x1="433.84" y1="68.54" x2="320.58" y2="181.8"/>
								<line class="st5" x1="439.77" y1="68.54" x2="326.51" y2="181.8"/>
								<line class="st5" x1="445.69" y1="68.54" x2="332.43" y2="181.8"/>
								<line class="st5" x1="451.62" y1="68.54" x2="338.36" y2="181.8"/>
								<line class="st5" x1="457.54" y1="68.54" x2="344.28" y2="181.8"/>
								<line class="st5" x1="463.47" y1="68.54" x2="350.21" y2="181.8"/>
								<line class="st5" x1="469.39" y1="68.54" x2="356.13" y2="181.8"/>
								<line class="st5" x1="475.32" y1="68.54" x2="362.06" y2="181.8"/>
								<line class="st5" x1="481.25" y1="68.54" x2="367.98" y2="181.8"/>
								<line class="st5" x1="487.17" y1="68.54" x2="373.91" y2="181.8"/>
								<line class="st5" x1="493.1" y1="68.54" x2="379.83" y2="181.8"/>
								<line class="st5" x1="499.02" y1="68.54" x2="385.76" y2="181.8"/>
								<line class="st5" x1="504.95" y1="68.54" x2="391.69" y2="181.8"/>
							</g>
						</g>
					</g>
					<g>
						<g>
							<defs>
								<circle id="SVGID_3_" cx="219.19" cy="164.35" r="21.61"/>
							</defs>
							<clipPath id="SVGID_4_">
								<use xlink:href="#SVGID_3_"  style="overflow:visible;"/>
							</clipPath>
							<g class="st6">
								<line class="st5" x1="169.17" y1="107.72" x2="55.9" y2="220.98"/>
								<line class="st5" x1="175.09" y1="107.72" x2="61.83" y2="220.98"/>
								<line class="st5" x1="181.02" y1="107.72" x2="67.75" y2="220.98"/>
								<line class="st5" x1="186.94" y1="107.72" x2="73.68" y2="220.98"/>
								<line class="st5" x1="192.87" y1="107.72" x2="79.61" y2="220.98"/>
								<line class="st5" x1="198.79" y1="107.72" x2="85.53" y2="220.98"/>
								<line class="st5" x1="204.72" y1="107.72" x2="91.46" y2="220.98"/>
								<line class="st5" x1="210.64" y1="107.72" x2="97.38" y2="220.98"/>
								<line class="st5" x1="216.57" y1="107.72" x2="103.31" y2="220.98"/>
								<line class="st5" x1="222.49" y1="107.72" x2="109.23" y2="220.98"/>
								<line class="st5" x1="228.42" y1="107.72" x2="115.16" y2="220.98"/>
								<line class="st5" x1="234.35" y1="107.72" x2="121.08" y2="220.98"/>
								<line class="st5" x1="240.27" y1="107.72" x2="127.01" y2="220.98"/>
								<line class="st5" x1="246.2" y1="107.72" x2="132.93" y2="220.98"/>
								<line class="st5" x1="252.12" y1="107.72" x2="138.86" y2="220.98"/>
								<line class="st5" x1="258.05" y1="107.72" x2="144.78" y2="220.98"/>
								<line class="st5" x1="263.97" y1="107.72" x2="150.71" y2="220.98"/>
								<line class="st5" x1="269.9" y1="107.72" x2="156.64" y2="220.98"/>
								<line class="st5" x1="275.82" y1="107.72" x2="162.56" y2="220.98"/>
								<line class="st5" x1="281.75" y1="107.72" x2="168.49" y2="220.98"/>
								<line class="st5" x1="287.67" y1="107.72" x2="174.41" y2="220.98"/>
								<line class="st5" x1="293.6" y1="107.72" x2="180.34" y2="220.98"/>
								<line class="st5" x1="299.52" y1="107.72" x2="186.26" y2="220.98"/>
								<line class="st5" x1="305.45" y1="107.72" x2="192.19" y2="220.98"/>
								<line class="st5" x1="311.38" y1="107.72" x2="198.11" y2="220.98"/>
								<line class="st5" x1="317.3" y1="107.72" x2="204.04" y2="220.98"/>
								<line class="st5" x1="323.23" y1="107.72" x2="209.96" y2="220.98"/>
								<line class="st5" x1="329.15" y1="107.72" x2="215.89" y2="220.98"/>
								<line class="st5" x1="335.08" y1="107.72" x2="221.82" y2="220.98"/>
								<line class="st5" x1="341" y1="107.72" x2="227.74" y2="220.98"/>
								<line class="st5" x1="346.93" y1="107.72" x2="233.67" y2="220.98"/>
								<line class="st5" x1="352.85" y1="107.72" x2="239.59" y2="220.98"/>
								<line class="st5" x1="358.78" y1="107.72" x2="245.52" y2="220.98"/>
								<line class="st5" x1="364.7" y1="107.72" x2="251.44" y2="220.98"/>
								<line class="st5" x1="370.63" y1="107.72" x2="257.37" y2="220.98"/>
								<line class="st5" x1="376.56" y1="107.72" x2="263.29" y2="220.98"/>
								<line class="st5" x1="382.48" y1="107.72" x2="269.22" y2="220.98"/>
							</g>
						</g>
					</g>
					<g>
						<g>
							<defs>
								<circle id="SVGID_5_" cx="340.52" cy="280.35" r="21.61"/>
							</defs>
							<clipPath id="SVGID_6_">
								<use xlink:href="#SVGID_5_"  style="overflow:visible;"/>
							</clipPath>
							<g class="st7">
								<line class="st5" x1="290.49" y1="223.72" x2="177.23" y2="336.98"/>
								<line class="st5" x1="296.42" y1="223.72" x2="183.15" y2="336.98"/>
								<line class="st5" x1="302.34" y1="223.72" x2="189.08" y2="336.98"/>
								<line class="st5" x1="308.27" y1="223.72" x2="195.01" y2="336.98"/>
								<line class="st5" x1="314.19" y1="223.72" x2="200.93" y2="336.98"/>
								<line class="st5" x1="320.12" y1="223.72" x2="206.86" y2="336.98"/>
								<line class="st5" x1="326.04" y1="223.72" x2="212.78" y2="336.98"/>
								<line class="st5" x1="331.97" y1="223.72" x2="218.71" y2="336.98"/>
								<line class="st5" x1="337.89" y1="223.72" x2="224.63" y2="336.98"/>
								<line class="st5" x1="343.82" y1="223.72" x2="230.56" y2="336.98"/>
								<line class="st5" x1="349.75" y1="223.72" x2="236.48" y2="336.98"/>
								<line class="st5" x1="355.67" y1="223.72" x2="242.41" y2="336.98"/>
								<line class="st5" x1="361.6" y1="223.72" x2="248.33" y2="336.98"/>
								<line class="st5" x1="367.52" y1="223.72" x2="254.26" y2="336.98"/>
								<line class="st5" x1="373.45" y1="223.72" x2="260.19" y2="336.98"/>
								<line class="st5" x1="379.37" y1="223.72" x2="266.11" y2="336.98"/>
								<line class="st5" x1="385.3" y1="223.72" x2="272.04" y2="336.98"/>
								<line class="st5" x1="391.22" y1="223.72" x2="277.96" y2="336.98"/>
								<line class="st5" x1="397.15" y1="223.72" x2="283.89" y2="336.98"/>
								<line class="st5" x1="403.07" y1="223.72" x2="289.81" y2="336.98"/>
								<line class="st5" x1="409" y1="223.72" x2="295.74" y2="336.98"/>
								<line class="st5" x1="414.93" y1="223.72" x2="301.66" y2="336.98"/>
								<line class="st5" x1="420.85" y1="223.72" x2="307.59" y2="336.98"/>
								<line class="st5" x1="426.78" y1="223.72" x2="313.51" y2="336.98"/>
								<line class="st5" x1="432.7" y1="223.72" x2="319.44" y2="336.98"/>
								<line class="st5" x1="438.63" y1="223.72" x2="325.36" y2="336.98"/>
								<line class="st5" x1="444.55" y1="223.72" x2="331.29" y2="336.98"/>
								<line class="st5" x1="450.48" y1="223.72" x2="337.22" y2="336.98"/>
								<line class="st5" x1="456.4" y1="223.72" x2="343.14" y2="336.98"/>
								<line class="st5" x1="462.33" y1="223.72" x2="349.07" y2="336.98"/>
								<line class="st5" x1="468.25" y1="223.72" x2="354.99" y2="336.98"/>
								<line class="st5" x1="474.18" y1="223.72" x2="360.92" y2="336.98"/>
								<line class="st5" x1="480.1" y1="223.72" x2="366.84" y2="336.98"/>
								<line class="st5" x1="486.03" y1="223.72" x2="372.77" y2="336.98"/>
								<line class="st5" x1="491.96" y1="223.72" x2="378.69" y2="336.98"/>
								<line class="st5" x1="497.88" y1="223.72" x2="384.62" y2="336.98"/>
								<line class="st5" x1="503.81" y1="223.72" x2="390.54" y2="336.98"/>
							</g>
						</g>
					</g>
				</g>
				<path class="st8" d="M194.02,36.75c-0.78-1.75-2.52-2.97-4.56-2.97c-1.02,0-1.96,0.31-2.75,0.83c-0.8-1.69-2.51-2.86-4.5-2.86
					c-1.43,0-2.7,0.6-3.62,1.56c-1.53-1.76-3.78-2.87-6.29-2.87c-2.64,0-4.98,1.23-6.51,3.14c-0.92-1.1-2.28-1.82-3.83-1.82
					c-0.06,0-0.11,0.01-0.16,0.02c-1.85-3.78-5.72-6.39-10.21-6.39c-4.65,0-8.64,2.79-10.4,6.78c-0.61-0.26-1.27-0.41-1.97-0.41
					c-2.39,0-4.38,1.68-4.88,3.92c-0.81-0.57-1.8-0.92-2.87-0.92c-1.63,0-3.06,0.79-3.98,2h66.53V36.75z"/>
				<path class="st8" d="M327.67,56.62c0.65-1.47,2.12-2.49,3.83-2.49c0.85,0,1.65,0.26,2.31,0.7c0.68-1.42,2.11-2.4,3.78-2.4
					c1.2,0,2.27,0.51,3.04,1.31c1.28-1.48,3.17-2.41,5.28-2.41c2.21,0,4.19,1.03,5.47,2.63c0.77-0.93,1.92-1.53,3.22-1.53
					c0.05,0,0.09,0.01,0.14,0.01c1.55-3.18,4.81-5.37,8.58-5.37c3.9,0,7.25,2.34,8.74,5.7c0.51-0.22,1.07-0.34,1.66-0.34
					c2.01,0,3.68,1.41,4.1,3.29c0.68-0.48,1.51-0.77,2.41-0.77c1.37,0,2.57,0.67,3.34,1.68h-55.9V56.62z"/>
			</g>
			<g>
				<g>
					<g>
						<g>
							<path class="st9" d="M333.33,201.54c-8.7-1.53-18.11-26.88-1.91-35.38c16.2-8.49,21.66-12.99,25.04-32.78
								c3.39-19.78,14.9-10.39,12.31,1.19c-2.59,11.58,14.7,10.14,18.3,15.66c6.25,9.57-7.58,11.1-15.49,16.55
								c-7.92,5.45,6.21,9.17,0.59,18.39C366.55,194.39,348.16,204.15,333.33,201.54z"/>
							<g>
								<g>
									<path class="st10" d="M332.44,201.3l3.08-5.43l3.15-5.38c2.1-3.59,4.3-7.12,6.53-10.63c2.25-3.5,4.52-6.98,6.93-10.38
										c1.2-1.7,2.42-3.39,3.65-5.06c1.27-1.65,2.53-3.3,3.88-4.89c-0.56,0.88-1.13,1.74-1.72,2.6l-1.69,2.62
										c-1.13,1.74-2.27,3.48-3.37,5.24l-6.69,10.51c-2.25,3.49-4.47,7-6.76,10.47C337.14,194.43,334.91,197.94,332.44,201.3z"/>
								</g>
								<g>
									<path class="st10" d="M341.42,186.93c3.43-1.27,6.94-2.19,10.47-3.04c3.54-0.8,7.09-1.52,10.73-1.89
										c-3.43,1.28-6.94,2.2-10.47,3.03C348.61,185.84,345.05,186.56,341.42,186.93z"/>
								</g>
								<g>
									<path class="st10" d="M350.03,173.45c-0.39-2.13-0.42-4.25-0.37-6.37c0.09-2.12,0.27-4.23,0.81-6.33
										c0.39,2.13,0.43,4.25,0.37,6.37C350.75,169.24,350.57,171.35,350.03,173.45z"/>
								</g>
							</g>
						</g>
						<g>
							<path class="st11" d="M336.04,214.25c0,0-4.88-9.53,3.45-15.63s12.02-13.95,7.26-21.17c-4.75-7.21-16.96-2.72-22.11-6.16
								c-5.16-3.45-2.94-10.83-7.17-18.81c-5.67-10.7-16.64-7.87-19.21-6.22s-7.12,6.7-1.16,16.4c5.96,9.7,1.57,13.1-3.17,20.72
								s3.57,10.58,17.05,13.15s15.81,19.13,15.81,19.13L336.04,214.25"/>
							<g>
								<g>
									<path class="st10" d="M332.61,223.82c-0.08-3.16-0.39-6.29-0.83-9.4c-0.46-3.11-0.98-6.2-1.72-9.25
										c-0.71-3.05-1.53-6.08-2.47-9.06l-1.48-4.46l-1.71-4.37c-0.52-1.48-1.22-2.88-1.86-4.31c-0.66-1.42-1.25-2.87-2.01-4.24
										l-2.17-4.17c-0.34-0.71-0.78-1.35-1.18-2.03l-1.2-2.02c-3.15-5.43-6.97-10.43-10.82-15.44c1.07,1.15,2.14,2.32,3.19,3.5
										c1.04,1.19,2.17,2.31,3.1,3.59c1.9,2.53,3.9,5,5.56,7.7c3.58,5.24,6.39,10.98,8.85,16.83c2.43,5.87,4.19,12.01,5.37,18.24
										c0.6,3.12,1,6.26,1.3,9.42C332.74,217.5,332.89,220.67,332.61,223.82z"/>
								</g>
								<g>
									<path class="st10" d="M326.91,192.85c-1.75-1.65-3.71-2.96-5.75-4.09c-2.05-1.11-4.2-2.01-6.42-2.7
										c-1.12-0.3-2.24-0.65-3.39-0.84c-0.57-0.11-1.14-0.27-1.72-0.34c-0.58-0.07-1.16-0.16-1.74-0.25
										c-0.58-0.11-1.17-0.14-1.75-0.19l-1.77-0.16c-1.18-0.08-2.37-0.08-3.58-0.19c1.18-0.24,2.37-0.44,3.57-0.59
										c1.2-0.04,2.42-0.19,3.63-0.1c2.44,0.04,4.86,0.49,7.22,1.15c2.33,0.75,4.59,1.77,6.61,3.16
										C323.82,189.08,325.66,190.77,326.91,192.85z"/>
								</g>
								<g>
									<path class="st10" d="M328.98,198.77c-0.76-2.04-1.01-4.27-0.88-6.48c0.13-2.22,0.76-4.43,1.86-6.41l0.42-0.74
										c0.15-0.24,0.34-0.46,0.5-0.68c0.36-0.44,0.65-0.93,1.06-1.32l1.23-1.16c0.41-0.39,0.91-0.66,1.36-0.98
										c0.89-0.69,1.96-1.05,2.94-1.52c1.03-0.38,2.11-0.62,3.15-0.86c-0.94,0.58-1.92,1-2.81,1.56c-0.87,0.61-1.8,1.1-2.55,1.82
										c-1.63,1.27-2.94,2.88-3.92,4.65c-1.01,1.76-1.65,3.74-2.02,5.78C328.98,194.49,328.86,196.61,328.98,198.77z"/>
								</g>
							</g>
						</g>
						<g>
							<path class="st12" d="M365.25,209.33c15.45,3.91,15.82-9.55,6.36-17.06c-5.92-4.69,6.16-7.2,10.84-11.76
								c8.04-7.84-4.85-17.69-11.54-10.82c-6.68,6.86-10.83,8.97-15.7,9.57s-18.61,0.75-17.43,9.49c0.74,5.45-3.97,10.1-3.33,15.56
								C348.73,199.48,357.2,207.29,365.25,209.33z"/>
							<g>
								<g>
									<path class="st10" d="M334.45,204.32c5.62-4.89,11.68-9.22,17.92-13.27c3.14-1.99,6.33-3.91,9.61-5.69
										c3.28-1.77,6.65-3.38,10.11-4.75c-3.21,1.89-6.36,3.83-9.52,5.75c-3.14,1.97-6.27,3.93-9.38,5.93l-9.34,6.02
										C340.74,200.35,337.6,202.34,334.45,204.32z"/>
								</g>
								<g>
									<path class="st10" d="M350.31,193.27c-0.14-1.04-0.14-2.06-0.09-3.07c0.04-1.01,0.16-2.01,0.32-3
										c0.16-0.99,0.37-1.98,0.65-2.95c0.27-0.97,0.59-1.94,1.06-2.88c0.15,1.04,0.14,2.06,0.09,3.07c-0.04,1.01-0.16,2.01-0.32,3
										c-0.16,0.99-0.37,1.98-0.65,2.95C351.1,191.36,350.78,192.33,350.31,193.27z"/>
								</g>
								<g>
									<path class="st10" d="M346.08,196.09c1.83-0.3,3.66-0.46,5.48-0.56c1.83-0.11,3.66-0.14,5.48-0.15
										c1.83,0.02,3.66,0.06,5.48,0.18c1.83,0.11,3.65,0.28,5.48,0.6c-1.83,0.31-3.66,0.46-5.48,0.57
										c-1.83,0.11-3.66,0.14-5.48,0.15c-1.83-0.02-3.66-0.06-5.48-0.18C349.74,196.57,347.91,196.4,346.08,196.09z"/>
								</g>
							</g>
						</g>
					</g>
					<g>
						<polygon class="st13" points="350.89,229.46 328.29,229.46 323.03,206.87 356.15,206.87 						"/>
						<rect x="319.49" y="201.12" class="st14" width="40.2" height="9.09"/>
					</g>
				</g>
				<g>
					<g class="st15">
						<path class="st10" d="M129.45,203.92c1.61-3.99,5.48-5.19,7.37-8.79c3.39-6.44-2.31-8.1-2.99-12.38
							c-0.9-5.7,3.1-5.19,5.16-8.66c2.43-4.08-1.68-8.91,0.84-12.78c6.27-9.63,16.47,0.95,23.11,3.18
							c4.07,1.36,10.16,1.94,13.37-0.65c4.23-3.42,8.45-11.34,3.97-15.91c-6.31-6.44-4-9.75,2.83-11.38
							c3.02-0.72,4.41-3.03,1.05-5.66c5.1,7.37-11.9,0.66-14.93,5.66c-2.1,3.47,0.49,5.52,1.22,8.19c1.87,6.83-2.82,12.7-12.61,5.87
							c-5.63-3.93-5.15-10.93-11.12-12.72c-5.58-1.67-12.06,3.33-14.11,10.03c-2.03,6.63-4.44,10.04-11.59,9.28
							c-8.49-0.9-15.04,4.37-11.25,11.97c3.37,6.74,12.7,2.91,17.43,6.77c5.25,4.29,3.62,10.19-3.18,15.73
							c-2.11,1.72-5.35,4.29-4.52,7.22c0.54,1.9,3.93,4.92,6.12,5L129.45,203.92z"/>
					</g>
					<path class="st16" d="M142.03,206.58h-1.82v-2.45c0-1.05-0.85-1.89-1.89-1.89h-21.5c-1.05,0-1.89,0.85-1.89,1.89v15.03
						c0,5.69,4.61,10.31,10.31,10.31h4.67c4.52,0,8.35-2.92,9.74-6.97h2.38c1.82,0,3.29-1.47,3.29-3.29v-9.33
						C145.32,208.05,143.85,206.58,142.03,206.58z M143.22,219.21c0,0.65-0.53,1.19-1.19,1.19h-1.9c0.05-0.41,0.08-0.82,0.08-1.24
						v-10.47h1.82c0.65,0,1.19,0.53,1.19,1.19V219.21z"/>
					<path class="st17" d="M137.45,207.57c0-1.87-0.39-3.66-1.09-5.34h-19.54c-1.05,0-1.89,0.85-1.89,1.89v15.03
						c0,1.82,0.48,3.53,1.3,5.01c0.3,0.01,0.59,0.04,0.89,0.04C128.35,224.21,137.45,216.76,137.45,207.57z"/>
				</g>
				<g>
					<path class="st13" d="M367.61,252.12H95.36c-2.91,0-5.27-2.36-5.27-5.27l0,0c0-2.91,2.36-5.27,5.27-5.27h272.25
						c2.91,0,5.27,2.36,5.27,5.27l0,0C372.88,249.76,370.52,252.12,367.61,252.12z"/>
					<path class="st18" d="M374.28,244.34H88.69c-4.11,0-7.44-3.33-7.44-7.44l0,0c0-4.11,3.33-7.44,7.44-7.44h285.59
						c4.11,0,7.44,3.33,7.44,7.44l0,0C381.72,241.01,378.38,244.34,374.28,244.34z"/>
				</g>
				<g>
					<circle class="st14" cx="328.06" cy="87.84" r="19.32"/>
					<circle class="st10" cx="328.06" cy="87.84" r="15.06"/>
					<g>
						<line class="st19" x1="328.06" y1="87.84" x2="328.06" y2="78.78"/>
						<line class="st19" x1="328.06" y1="87.84" x2="333.6" y2="93.38"/>
					</g>
					<g>
						<g>
							<g>
								<line class="st20" x1="328.06" y1="101.2" x2="328.06" y2="99.41"/>
								<line class="st20" x1="334.74" y1="99.41" x2="333.85" y2="97.86"/>
								<line class="st20" x1="339.63" y1="94.52" x2="338.08" y2="93.63"/>
								<line class="st20" x1="341.43" y1="87.84" x2="339.63" y2="87.84"/>
								<line class="st20" x1="339.63" y1="81.16" x2="338.09" y2="82.06"/>
								<line class="st20" x1="334.74" y1="76.27" x2="333.85" y2="77.81"/>
								<line class="st20" x1="328.06" y1="76.27" x2="328.06" y2="74.48"/>
								<line class="st20" x1="322.28" y1="77.82" x2="321.38" y2="76.27"/>
								<line class="st20" x1="318.04" y1="82.06" x2="316.49" y2="81.16"/>
								<line class="st20" x1="316.49" y1="87.84" x2="314.71" y2="87.84"/>
								<line class="st20" x1="318.04" y1="93.63" x2="316.49" y2="94.52"/>
								<line class="st20" x1="322.28" y1="97.86" x2="321.38" y2="99.41"/>
							</g>
						</g>
					</g>
					<circle class="st14" cx="328.06" cy="87.84" r="0.87"/>
				</g>
				<g>
					<path class="st17" d="M188.1,67.06c-8.22-8.22-21.6-8.13-29.7,0.27c-7.44,7.71-7.77,20.06-0.71,28.13
						c6.85,7.83,18.03,9.21,26.41,4.16c0.74-0.45,1.64-0.55,2.47-0.3l5.26,1.57c0.4,0.12,0.77-0.25,0.66-0.66l-1.57-5.26
						c-0.25-0.83-0.14-1.73,0.3-2.48C196.03,84.49,194.99,73.95,188.1,67.06z"/>
					<g>
						<line class="st21" x1="161.6" y1="72.67" x2="185.19" y2="72.67"/>
						<line class="st21" x1="179.53" y1="78.74" x2="185.19" y2="78.74"/>
						<line class="st21" x1="161.6" y1="78.74" x2="173.91" y2="78.74"/>
						<line class="st21" x1="172.38" y1="84.81" x2="185.19" y2="84.81"/>
						<line class="st21" x1="161.6" y1="84.81" x2="167.75" y2="84.81"/>
						<line class="st21" x1="179.53" y1="90.88" x2="185.19" y2="90.88"/>
						<line class="st21" x1="161.6" y1="90.88" x2="173.63" y2="90.88"/>
					</g>
				</g>
				<g>
					<g>
						<path class="st18" d="M231.64,76.93c0,0-2.1-9.29,6.84-17.27c8.94-7.98,22.76-7.25,30.34-3.09
							c9.82,5.39,19.46,19.66,10.65,40.05c-8.81,20.39,31.57,11.97,18.02,39.59s-36.96,8.55-45.38,19.99s-37.56-18.56-12.66-39.53
							C264.34,95.69,233.52,95.78,231.64,76.93z"/>
						<path class="st22" d="M229.36,137.79c-10.22,4.36-18.68,30.25-19.47,85.49h22.02C231.91,223.28,245.29,130.99,229.36,137.79z"
							/>
						<path class="st17" d="M256.68,129.55c12.08-1.19,31.76,0.81,38.84,8.63c1.56,1.72,1.57,4.95,0.73,9.42
							c-2.96,15.78-16.46,47.02-9.28,81.87H224.1c0,0,5.96-27.23,2.63-35.83c-3.81-9.82-7.11-18.7-3.36-26.91
							c8.54-18.69,0.89-26.42,6.3-29.12C237.12,133.89,246.46,130.56,256.68,129.55z"/>
						<path class="st16" d="M282.63,175.8c-2.63,15.26-20.3,17.14-29.16,14.16c0,0,12.89,7.8,22.18,3.42c0,0,2.37,7.45-1.17,30.89
							h11.56c0,0,0-0.05-0.01-0.12c-1.83-12.26-1.26-23.99,0.34-34.64c0.3-2.7,0.7-5.15,1.23-7.13c0.01-0.02,0.01-0.04,0.02-0.06
							c1.47-7.47,3.3-14.3,4.94-20.27c0.7-4.04,0.97-7.58,0.97-12.02C293.54,150.02,285.26,160.54,282.63,175.8z"/>
						<path class="st23" d="M283.28,208.55c0,0-10.98,13.49-16.29,9.84c-7.03-4.84-12.82-4.75-17.47-1.97
							c-4.82,2.88-6.66,7.86-6.66,7.86h37.69l10.97-9.49L283.28,208.55z"/>
						<path class="st17" d="M295.93,138.73c0,0,9.69,25.31,18,46.01c6.71,16.7-33.74,39.47-33.74,39.47l-6.68-8.95l23.3-25.82
							l-14.25-30.04c0,0-8.26-16.39,4.28-22.2C293.81,133.96,295.93,138.73,295.93,138.73z"/>
						<path class="st23" d="M264.95,104.9c0,0-1.52,19.19,3.08,24.2c5.92,6.44-4.47,20.34-20.08,30.87c0,0-8.72-9.69-1.89-25.47
							c6.84-15.78,0.21-24.7,0.21-24.7L264.95,104.9z"/>
						<path class="st24" d="M268.03,96.62c0,13.15-9.26,23.8-17.09,23.8s-17.6-8.74-18.92-24.92c-1.07-13.1,6-22.68,16.67-22.68
							C259.37,72.81,268.03,83.47,268.03,96.62z"/>
						<path class="st18" d="M235.42,69.73c-1.1,0.63-3.48,2.18-6.26,4.03c-3.02,2.01-6.25,5.5-7.35,9.31
							c-1.9,6.55,2.92,14.85,12.5,11.92c9.59-2.93,14.17-18.31,21.95-9.42c9.67,11.05,13.17,4.89,13.17,4.89
							s-1.94-13.76-11.74-19.95C252.45,67.19,244.53,64.47,235.42,69.73z"/>
						<g>
							<path class="st17" d="M274.48,91.88c0,4.29-2.54,7.77-5.66,7.77c-3.13,0-5.66-3.48-5.66-7.77c0-4.29,2.54-7.77,5.66-7.77
								C271.95,84.11,274.48,87.59,274.48,91.88z"/>
							<path class="st17" d="M251,65.99c-8.71-1.68-17.11,1.61-21.84,7.76c5.22-3.57,12.06-5.12,19.07-3.77
								c11.57,2.23,19.77,11.63,20.04,22.06c0.21-0.68,0.4-1.37,0.53-2.09C270.9,79.02,262.93,68.29,251,65.99z"/>
							<g>
								<path class="st25" d="M267.59,94.42c0,0,1.58,17.55-14.56,19.22"/>
								<path class="st17" d="M251.98,115.39h-2.54c-0.82,0-1.49-0.67-1.49-1.49l0,0c0-0.82,0.67-1.49,1.49-1.49h2.54
									c0.82,0,1.49,0.67,1.49,1.49l0,0C253.47,114.72,252.8,115.39,251.98,115.39z"/>
							</g>
						</g>
					</g>
					<g>
						<g>
							<path class="st13" d="M289.67,229.46H198.1c-1.28,0-2.32-1.04-2.32-2.32v-0.62c0-1.28,1.04-2.32,2.32-2.32h91.57
								c1.28,0,2.32,1.04,2.32,2.32v0.62C291.99,228.43,290.95,229.46,289.67,229.46z"/>
						</g>
						<path class="st26" d="M247.34,229.46h-84.57c-2.3,0-4.35-1.44-5.14-3.6l-19.72-54.18c-1.3-3.57,1.34-7.34,5.14-7.34h84.57
							c2.3,0,4.35,1.44,5.14,3.6l19.72,54.18C253.78,225.69,251.14,229.46,247.34,229.46z"/>
						<path class="st14" d="M141.1,164.71c0.32,32.02,43.2,57.92,96.07,57.92c5.18,0,10.27-0.25,15.23-0.73l-19.64-53.95
							c-0.79-2.16-2.84-3.6-5.14-3.6h-84.57C142.36,164.35,141.7,164.48,141.1,164.71z"/>
						<path class="st27" d="M200.33,195.83c0,3.54-2.87,6.4-6.4,6.4c-3.54,0-6.4-2.87-6.4-6.4s2.87-6.4,6.4-6.4
							C197.47,189.43,200.33,192.3,200.33,195.83z"/>
					</g>
				</g>
				<g>
					<path class="st17" d="M292.07,26.07c5.96-5.96,15.67-5.9,21.55,0.2c5.4,5.59,5.63,14.55,0.51,20.4
						c-4.97,5.68-13.08,6.68-19.16,3.02c-0.54-0.32-1.19-0.4-1.79-0.22l-3.82,1.14c-0.29,0.09-0.56-0.18-0.48-0.48l1.14-3.82
						c0.18-0.6,0.1-1.26-0.22-1.8C286.31,38.72,287.06,31.08,292.07,26.07z"/>
					<g>
						<circle class="st10" cx="294.36" cy="36.75" r="2.44"/>
						<circle class="st10" cx="302.73" cy="36.75" r="2.44"/>
						<circle class="st10" cx="311.11" cy="36.75" r="2.44"/>
					</g>
				</g>
			</g>
			<g class="st28">
				<g>
					<line class="st29" x1="355.97" y1="25.63" x2="358.13" y2="27.78"/>
					<line class="st29" x1="358.13" y1="25.63" x2="355.97" y2="27.78"/>
				</g>
				<g>
					<line class="st30" x1="87.08" y1="140.59" x2="91.39" y2="144.9"/>
					<line class="st30" x1="91.39" y1="140.59" x2="87.08" y2="144.9"/>
				</g>
				<g>
					<line class="st31" x1="206.01" y1="115.39" x2="209.02" y2="118.4"/>
					<line class="st31" x1="209.02" y1="115.39" x2="206.01" y2="118.4"/>
				</g>
				<g>
					<line class="st31" x1="376.25" y1="220.99" x2="379.26" y2="224.01"/>
					<line class="st31" x1="379.26" y1="220.99" x2="376.25" y2="224.01"/>
				</g>
				<path class="st31" d="M258.42,36.75c0,1.02-0.83,1.85-1.85,1.85c-1.02,0-1.85-0.83-1.85-1.85c0-1.02,0.83-1.85,1.85-1.85
					C257.6,34.9,258.42,35.73,258.42,36.75z"/>
				<path class="st31" d="M155.45,112.41c0,1.02-0.83,1.85-1.85,1.85c-1.02,0-1.85-0.83-1.85-1.85c0-1.02,0.83-1.85,1.85-1.85
					S155.45,111.39,155.45,112.41z"/>
				<path class="st31" d="M379.6,89.03c0,1.02-0.83,1.85-1.85,1.85c-1.02,0-1.85-0.83-1.85-1.85c0-1.02,0.83-1.85,1.85-1.85
					C378.78,87.18,379.6,88.01,379.6,89.03z"/>
				<path class="st31" d="M96.79,192.85c0,2.42-1.96,4.38-4.38,4.38s-4.38-1.96-4.38-4.38s1.96-4.38,4.38-4.38
					C94.82,188.46,96.79,190.43,96.79,192.85z"/>
				<path class="st31" d="M337.98,137.54c0,2.42-1.96,4.38-4.38,4.38s-4.38-1.96-4.38-4.38s1.96-4.38,4.38-4.38
					S337.98,135.12,337.98,137.54z"/>
			</g>
		</g>
	</g>
</g>
</svg>
