<?xml version="1.0" encoding="utf-8"?>
<!-- Generator: Adobe Illustrator 24.1.0, SVG Export Plug-In . SVG Version: 6.00 Build 0)  -->
<svg version="1.1" id="Camada_1" xmlns="http://www.w3.org/2000/svg" xmlns:xlink="http://www.w3.org/1999/xlink" x="0px" y="0px"
	 viewBox="0 0 407.6 336.1" style="enable-background:new 0 0 407.6 336.1;" xml:space="preserve">
<style type="text/css">
	.st0{opacity:0.39;}
	.st1{opacity:0.64;fill:#F6D942;enable-background:new    ;}
	.st2{opacity:0.31;fill:#F6D942;enable-background:new    ;}
	.st3{opacity:0.24;}
	.st4{clip-path:url(#SVGID_2_);}
	.st5{fill:#F6D942;stroke:#FFFFFF;stroke-width:1.594;stroke-miterlimit:10;}
	.st6{clip-path:url(#SVGID_4_);}
	.st7{clip-path:url(#SVGID_6_);}
	.st8{opacity:0.3;fill:#F6D942;enable-background:new    ;}
	.st9{fill:#27B761;}
	.st10{fill:#FFFFFF;}
	.st11{fill:#2ECC71;}
	.st12{fill:#55C0EB;}
	.st13{fill:#A3D6E2;}
	.st14{opacity:0.74;}
	.st15{fill:#E8F5FE;}
	.st16{fill:#E2C342;}
	.st17{fill:#F6D942;}
	.st18{fill:#929292;}
	.st19{fill:#4C4C4C;}
	.st20{fill:none;stroke:#929292;stroke-width:0.9782;stroke-linecap:round;stroke-linejoin:round;stroke-miterlimit:10;}
	.st21{fill:none;stroke:#929292;stroke-width:0.6843;stroke-linecap:round;stroke-linejoin:round;stroke-miterlimit:10;}
	.st22{fill:none;stroke:#FFFFFF;stroke-width:1.6653;stroke-linecap:round;stroke-linejoin:round;stroke-miterlimit:10;}
	.st23{fill:#282828;}
	.st24{fill:#F4AE98;}
	.st25{fill:#FFB99F;}
	.st26{fill:#353B48;}
	.st27{fill:none;stroke:#353B48;stroke-width:1.0522;stroke-miterlimit:10;}
	.st28{fill:#B8D7E8;}
	.st29{fill:#CAE2ED;}
	.st30{opacity:7.000000e-02;}
	.st31{fill:none;stroke:#4B4583;stroke-linecap:round;stroke-linejoin:round;stroke-miterlimit:10;}
	.st32{fill:none;stroke:#4B4583;stroke-width:2;stroke-linecap:round;stroke-linejoin:round;stroke-miterlimit:10;}
	.st33{fill:none;stroke:#4B4583;stroke-width:1.398;stroke-linecap:round;stroke-linejoin:round;stroke-miterlimit:10;}
</style>
<g>
	<g class="st0">
		<path class="st1" d="M407.6,14.6c-22-5-62.5-35.3-94.5,9.8c-28.5,40.2-68.3,32.6-88.7,24C190.1,34.1,144.8,26,130,65.9
			s8.4,73.4-63.2,91.6s-58,99.4,12.6,108.9s90-29,153.6-19.5c64.4,9.6,59.7,107.2,169.1,86.4L407.6,14.6z"/>
		<path class="st2" d="M427,47.2c-18,12-84.6,26.4-113.7-7.3c-30.7-35.5-72.9-56.8-97.8-0.7s-16.8,76.1-94.4,66.9
			c-77.8-9.2-100,64.4-48,96.3c53.3,32.7,67.7,75.1,155.7,83.2c54,5,157.6-23.7,186-69.3C440.8,174.6,427,47.2,427,47.2z"/>
	</g>
	<g class="st3">
		<g>
			<g>
				<g>
					<defs>
						<circle id="SVGID_1_" cx="341.7" cy="112.1" r="34.6"/>
					</defs>
					<use xlink:href="#SVGID_1_"  style="overflow:visible;fill:#F6D942;"/>
					<clipPath id="SVGID_2_">
						<use xlink:href="#SVGID_1_"  style="overflow:visible;"/>
					</clipPath>
					<g class="st4">
						<line class="st5" x1="291.6" y1="55.4" x2="178.4" y2="168.6"/>
						<line class="st5" x1="297.6" y1="55.4" x2="184.3" y2="168.6"/>
						<line class="st5" x1="303.5" y1="55.4" x2="190.2" y2="168.6"/>
						<line class="st5" x1="309.4" y1="55.4" x2="196.1" y2="168.6"/>
						<line class="st5" x1="315.3" y1="55.4" x2="202.1" y2="168.6"/>
						<line class="st5" x1="321.3" y1="55.4" x2="208" y2="168.6"/>
						<line class="st5" x1="327.2" y1="55.4" x2="213.9" y2="168.6"/>
						<line class="st5" x1="333.1" y1="55.4" x2="219.9" y2="168.6"/>
						<line class="st5" x1="339" y1="55.4" x2="225.8" y2="168.6"/>
						<line class="st5" x1="345" y1="55.4" x2="231.7" y2="168.6"/>
						<line class="st5" x1="350.9" y1="55.4" x2="237.6" y2="168.6"/>
						<line class="st5" x1="356.8" y1="55.4" x2="243.6" y2="168.6"/>
						<line class="st5" x1="362.7" y1="55.4" x2="249.5" y2="168.6"/>
						<line class="st5" x1="368.7" y1="55.4" x2="255.4" y2="168.6"/>
						<line class="st5" x1="374.6" y1="55.4" x2="261.3" y2="168.6"/>
						<line class="st5" x1="380.5" y1="55.4" x2="267.2" y2="168.6"/>
						<line class="st5" x1="386.4" y1="55.4" x2="273.2" y2="168.6"/>
						<line class="st5" x1="392.4" y1="55.4" x2="279.1" y2="168.6"/>
						<line class="st5" x1="398.3" y1="55.4" x2="285" y2="168.6"/>
						<line class="st5" x1="404.2" y1="55.4" x2="291" y2="168.6"/>
						<line class="st5" x1="410.1" y1="55.4" x2="296.9" y2="168.6"/>
						<line class="st5" x1="416.1" y1="55.4" x2="302.8" y2="168.6"/>
						<line class="st5" x1="422" y1="55.4" x2="308.7" y2="168.6"/>
						<line class="st5" x1="427.9" y1="55.4" x2="314.6" y2="168.6"/>
						<line class="st5" x1="433.8" y1="55.4" x2="320.6" y2="168.6"/>
						<line class="st5" x1="439.8" y1="55.4" x2="326.5" y2="168.6"/>
						<line class="st5" x1="445.7" y1="55.4" x2="332.4" y2="168.6"/>
						<line class="st5" x1="451.6" y1="55.4" x2="338.4" y2="168.6"/>
						<line class="st5" x1="457.5" y1="55.4" x2="344.3" y2="168.6"/>
						<line class="st5" x1="463.5" y1="55.4" x2="350.2" y2="168.6"/>
						<line class="st5" x1="469.4" y1="55.4" x2="356.1" y2="168.6"/>
						<line class="st5" x1="475.3" y1="55.4" x2="362.1" y2="168.6"/>
						<line class="st5" x1="481.2" y1="55.4" x2="368" y2="168.6"/>
						<line class="st5" x1="487.2" y1="55.4" x2="373.9" y2="168.6"/>
						<line class="st5" x1="493.1" y1="55.4" x2="379.8" y2="168.6"/>
						<line class="st5" x1="499" y1="55.4" x2="385.8" y2="168.6"/>
						<line class="st5" x1="505" y1="55.4" x2="391.7" y2="168.6"/>
					</g>
				</g>
			</g>
		</g>
		<g>
			<g>
				<g>
					<defs>
						<circle id="SVGID_3_" cx="219.2" cy="151.2" r="21.6"/>
					</defs>
					<use xlink:href="#SVGID_3_"  style="overflow:visible;fill:#F6D942;"/>
					<clipPath id="SVGID_4_">
						<use xlink:href="#SVGID_3_"  style="overflow:visible;"/>
					</clipPath>
					<g class="st6">
						<line class="st5" x1="169.2" y1="94.5" x2="55.9" y2="207.8"/>
						<line class="st5" x1="175.1" y1="94.5" x2="61.8" y2="207.8"/>
						<line class="st5" x1="181" y1="94.5" x2="67.8" y2="207.8"/>
						<line class="st5" x1="186.9" y1="94.5" x2="73.7" y2="207.8"/>
						<line class="st5" x1="192.9" y1="94.5" x2="79.6" y2="207.8"/>
						<line class="st5" x1="198.8" y1="94.5" x2="85.5" y2="207.8"/>
						<line class="st5" x1="204.7" y1="94.5" x2="91.5" y2="207.8"/>
						<line class="st5" x1="210.6" y1="94.5" x2="97.4" y2="207.8"/>
						<line class="st5" x1="216.6" y1="94.5" x2="103.3" y2="207.8"/>
						<line class="st5" x1="222.5" y1="94.5" x2="109.2" y2="207.8"/>
						<line class="st5" x1="228.4" y1="94.5" x2="115.2" y2="207.8"/>
						<line class="st5" x1="234.4" y1="94.5" x2="121.1" y2="207.8"/>
						<line class="st5" x1="240.3" y1="94.5" x2="127" y2="207.8"/>
						<line class="st5" x1="246.2" y1="94.5" x2="132.9" y2="207.8"/>
						<line class="st5" x1="252.1" y1="94.5" x2="138.9" y2="207.8"/>
						<line class="st5" x1="258" y1="94.5" x2="144.8" y2="207.8"/>
						<line class="st5" x1="264" y1="94.5" x2="150.7" y2="207.8"/>
						<line class="st5" x1="269.9" y1="94.5" x2="156.6" y2="207.8"/>
						<line class="st5" x1="275.8" y1="94.5" x2="162.6" y2="207.8"/>
						<line class="st5" x1="281.8" y1="94.5" x2="168.5" y2="207.8"/>
						<line class="st5" x1="287.7" y1="94.5" x2="174.4" y2="207.8"/>
						<line class="st5" x1="293.6" y1="94.5" x2="180.3" y2="207.8"/>
						<line class="st5" x1="299.5" y1="94.5" x2="186.3" y2="207.8"/>
						<line class="st5" x1="305.5" y1="94.5" x2="192.2" y2="207.8"/>
						<line class="st5" x1="311.4" y1="94.5" x2="198.1" y2="207.8"/>
						<line class="st5" x1="317.3" y1="94.5" x2="204" y2="207.8"/>
						<line class="st5" x1="323.2" y1="94.5" x2="210" y2="207.8"/>
						<line class="st5" x1="329.1" y1="94.5" x2="215.9" y2="207.8"/>
						<line class="st5" x1="335.1" y1="94.5" x2="221.8" y2="207.8"/>
						<line class="st5" x1="341" y1="94.5" x2="227.7" y2="207.8"/>
						<line class="st5" x1="346.9" y1="94.5" x2="233.7" y2="207.8"/>
						<line class="st5" x1="352.9" y1="94.5" x2="239.6" y2="207.8"/>
						<line class="st5" x1="358.8" y1="94.5" x2="245.5" y2="207.8"/>
						<line class="st5" x1="364.7" y1="94.5" x2="251.4" y2="207.8"/>
						<line class="st5" x1="370.6" y1="94.5" x2="257.4" y2="207.8"/>
						<line class="st5" x1="376.6" y1="94.5" x2="263.3" y2="207.8"/>
						<line class="st5" x1="382.5" y1="94.5" x2="269.2" y2="207.8"/>
					</g>
				</g>
			</g>
		</g>
		<g>
			<g>
				<g>
					<defs>
						<circle id="SVGID_5_" cx="340.5" cy="267.2" r="21.6"/>
					</defs>
					<use xlink:href="#SVGID_5_"  style="overflow:visible;fill:#F6D942;"/>
					<clipPath id="SVGID_6_">
						<use xlink:href="#SVGID_5_"  style="overflow:visible;"/>
					</clipPath>
					<g class="st7">
						<line class="st5" x1="290.5" y1="210.5" x2="177.2" y2="323.8"/>
						<line class="st5" x1="296.4" y1="210.5" x2="183.1" y2="323.8"/>
						<line class="st5" x1="302.3" y1="210.5" x2="189.1" y2="323.8"/>
						<line class="st5" x1="308.3" y1="210.5" x2="195" y2="323.8"/>
						<line class="st5" x1="314.2" y1="210.5" x2="200.9" y2="323.8"/>
						<line class="st5" x1="320.1" y1="210.5" x2="206.9" y2="323.8"/>
						<line class="st5" x1="326" y1="210.5" x2="212.8" y2="323.8"/>
						<line class="st5" x1="332" y1="210.5" x2="218.7" y2="323.8"/>
						<line class="st5" x1="337.9" y1="210.5" x2="224.6" y2="323.8"/>
						<line class="st5" x1="343.8" y1="210.5" x2="230.6" y2="323.8"/>
						<line class="st5" x1="349.8" y1="210.5" x2="236.5" y2="323.8"/>
						<line class="st5" x1="355.7" y1="210.5" x2="242.4" y2="323.8"/>
						<line class="st5" x1="361.6" y1="210.5" x2="248.3" y2="323.8"/>
						<line class="st5" x1="367.5" y1="210.5" x2="254.3" y2="323.8"/>
						<line class="st5" x1="373.5" y1="210.5" x2="260.2" y2="323.8"/>
						<line class="st5" x1="379.4" y1="210.5" x2="266.1" y2="323.8"/>
						<line class="st5" x1="385.3" y1="210.5" x2="272" y2="323.8"/>
						<line class="st5" x1="391.2" y1="210.5" x2="278" y2="323.8"/>
						<line class="st5" x1="397.1" y1="210.5" x2="283.9" y2="323.8"/>
						<line class="st5" x1="403.1" y1="210.5" x2="289.8" y2="323.8"/>
						<line class="st5" x1="409" y1="210.5" x2="295.7" y2="323.8"/>
						<line class="st5" x1="414.9" y1="210.5" x2="301.7" y2="323.8"/>
						<line class="st5" x1="420.9" y1="210.5" x2="307.6" y2="323.8"/>
						<line class="st5" x1="426.8" y1="210.5" x2="313.5" y2="323.8"/>
						<line class="st5" x1="432.7" y1="210.5" x2="319.4" y2="323.8"/>
						<line class="st5" x1="438.6" y1="210.5" x2="325.4" y2="323.8"/>
						<line class="st5" x1="444.5" y1="210.5" x2="331.3" y2="323.8"/>
						<line class="st5" x1="450.5" y1="210.5" x2="337.2" y2="323.8"/>
						<line class="st5" x1="456.4" y1="210.5" x2="343.1" y2="323.8"/>
						<line class="st5" x1="462.3" y1="210.5" x2="349.1" y2="323.8"/>
						<line class="st5" x1="468.2" y1="210.5" x2="355" y2="323.8"/>
						<line class="st5" x1="474.2" y1="210.5" x2="360.9" y2="323.8"/>
						<line class="st5" x1="480.1" y1="210.5" x2="366.8" y2="323.8"/>
						<line class="st5" x1="486" y1="210.5" x2="372.8" y2="323.8"/>
						<line class="st5" x1="492" y1="210.5" x2="378.7" y2="323.8"/>
						<line class="st5" x1="497.9" y1="210.5" x2="384.6" y2="323.8"/>
						<line class="st5" x1="503.8" y1="210.5" x2="390.5" y2="323.8"/>
					</g>
				</g>
			</g>
		</g>
	</g>
	<path class="st8" d="M194,23.6c-0.8-1.8-2.5-3-4.6-3c-1,0-2,0.3-2.8,0.8c-0.8-1.7-2.5-2.9-4.5-2.9c-1.4,0-2.7,0.6-3.6,1.6
		c-1.5-1.8-3.8-2.9-6.3-2.9c-2.6,0-5,1.2-6.5,3.1c-0.9-1.1-2.3-1.8-3.8-1.8c-0.1,0-0.1,0-0.2,0c-1.9-3.8-5.7-6.4-10.2-6.4
		c-4.6,0-8.6,2.8-10.4,6.8c-0.6-0.3-1.3-0.4-2-0.4c-2.4,0-4.4,1.7-4.9,3.9c-0.8-0.6-1.8-0.9-2.9-0.9c-1.6,0-3.1,0.8-4,2L194,23.6
		L194,23.6L194,23.6z"/>
	<path class="st8" d="M327.7,43.4c0.6-1.5,2.1-2.5,3.8-2.5c0.9,0,1.6,0.3,2.3,0.7c0.7-1.4,2.1-2.4,3.8-2.4c1.2,0,2.3,0.5,3,1.3
		c1.3-1.5,3.2-2.4,5.3-2.4c2.2,0,4.2,1,5.5,2.6c0.8-0.9,1.9-1.5,3.2-1.5c0,0,0.1,0,0.1,0c1.5-3.2,4.8-5.4,8.6-5.4
		c3.9,0,7.2,2.3,8.7,5.7c0.5-0.2,1.1-0.3,1.7-0.3c2,0,3.7,1.4,4.1,3.3c0.7-0.5,1.5-0.8,2.4-0.8c1.4,0,2.6,0.7,3.3,1.7L327.7,43.4
		L327.7,43.4z"/>
</g>
<g>
	<path class="st9" d="M333.3,188.4c-8.7-1.5-18.1-26.9-1.9-35.4c16.2-8.5,21.7-13,25-32.8c3.4-19.8,14.9-10.4,12.3,1.2
		s14.7,10.1,18.3,15.7c6.2,9.6-7.6,11.1-15.5,16.6c-7.9,5.4,6.2,9.2,0.6,18.4S348.2,191,333.3,188.4z"/>
	<g>
		<g>
			<path class="st10" d="M332.4,188.1l3.1-5.4l3.1-5.4c2.1-3.6,4.3-7.1,6.5-10.6c2.2-3.5,4.5-7,6.9-10.4c1.2-1.7,2.4-3.4,3.6-5.1
				c1.3-1.6,2.5-3.3,3.9-4.9c-0.6,0.9-1.1,1.7-1.7,2.6l-1.7,2.6c-1.1,1.7-2.3,3.5-3.4,5.2l-6.7,10.5c-2.2,3.5-4.5,7-6.8,10.5
				C337.1,181.2,334.9,184.8,332.4,188.1z"/>
		</g>
		<g>
			<path class="st10" d="M341.4,173.7c3.4-1.3,6.9-2.2,10.5-3c3.5-0.8,7.1-1.5,10.7-1.9c-3.4,1.3-6.9,2.2-10.5,3
				C348.6,172.7,345,173.4,341.4,173.7z"/>
		</g>
		<g>
			<path class="st10" d="M350,160.3c-0.4-2.1-0.4-4.2-0.4-6.4c0.1-2.1,0.3-4.2,0.8-6.3c0.4,2.1,0.4,4.2,0.4,6.4
				C350.8,156.1,350.6,158.2,350,160.3z"/>
		</g>
	</g>
</g>
<g>
	<path class="st11" d="M336,201.1c0,0-4.9-9.5,3.5-15.6s12-13.9,7.3-21.2c-4.8-7.2-17-2.7-22.1-6.2c-5.2-3.4-2.9-10.8-7.2-18.8
		c-5.7-10.7-16.6-7.9-19.2-6.2s-7.1,6.7-1.2,16.4s1.6,13.1-3.2,20.7s3.6,10.6,17,13.1s15.8,19.1,15.8,19.1L336,201.1"/>
	<g>
		<g>
			<path class="st10" d="M332.6,210.6c-0.1-3.2-0.4-6.3-0.8-9.4c-0.5-3.1-1-6.2-1.7-9.2c-0.7-3.1-1.5-6.1-2.5-9.1l-1.5-4.5l-1.7-4.4
				c-0.5-1.5-1.2-2.9-1.9-4.3c-0.7-1.4-1.2-2.9-2-4.2l-2.2-4.2c-0.3-0.7-0.8-1.4-1.2-2l-1.2-2c-3.1-5.4-7-10.4-10.8-15.4
				c1.1,1.1,2.1,2.3,3.2,3.5c1,1.2,2.2,2.3,3.1,3.6c1.9,2.5,3.9,5,5.6,7.7c3.6,5.2,6.4,11,8.9,16.8c2.4,5.9,4.2,12,5.4,18.2
				c0.6,3.1,1,6.3,1.3,9.4C332.7,204.3,332.9,207.5,332.6,210.6z"/>
		</g>
		<g>
			<path class="st10" d="M326.9,179.7c-1.8-1.6-3.7-3-5.8-4.1c-2-1.1-4.2-2-6.4-2.7c-1.1-0.3-2.2-0.6-3.4-0.8
				c-0.6-0.1-1.1-0.3-1.7-0.3c-0.6-0.1-1.2-0.2-1.7-0.2c-0.6-0.1-1.2-0.1-1.8-0.2l-1.8-0.2c-1.2-0.1-2.4-0.1-3.6-0.2
				c1.2-0.2,2.4-0.4,3.6-0.6c1.2,0,2.4-0.2,3.6-0.1c2.4,0,4.9,0.5,7.2,1.1c2.3,0.8,4.6,1.8,6.6,3.2
				C323.8,175.9,325.7,177.6,326.9,179.7z"/>
		</g>
		<g>
			<path class="st10" d="M329,185.6c-0.8-2-1-4.3-0.9-6.5c0.1-2.2,0.8-4.4,1.9-6.4l0.4-0.7c0.1-0.2,0.3-0.5,0.5-0.7
				c0.4-0.4,0.6-0.9,1.1-1.3l1.2-1.2c0.4-0.4,0.9-0.7,1.4-1c0.9-0.7,2-1.1,2.9-1.5c1-0.4,2.1-0.6,3.1-0.9c-0.9,0.6-1.9,1-2.8,1.6
				c-0.9,0.6-1.8,1.1-2.5,1.8c-1.6,1.3-2.9,2.9-3.9,4.6c-1,1.8-1.6,3.7-2,5.8C329,181.3,328.9,183.4,329,185.6z"/>
		</g>
	</g>
</g>
<g>
	<path class="st11" d="M365.2,196.1c15.5,3.9,15.8-9.6,6.4-17.1c-5.9-4.7,6.2-7.2,10.8-11.8c8-7.8-4.9-17.7-11.5-10.8
		c-6.7,6.9-10.8,9-15.7,9.6s-18.6,0.8-17.4,9.5c0.7,5.4-4,10.1-3.3,15.6C348.7,186.3,357.2,194.1,365.2,196.1z"/>
	<g>
		<g>
			<path class="st10" d="M334.5,191.1c5.6-4.9,11.7-9.2,17.9-13.3c3.1-2,6.3-3.9,9.6-5.7c3.3-1.8,6.6-3.4,10.1-4.8
				c-3.2,1.9-6.4,3.8-9.5,5.8c-3.1,2-6.3,3.9-9.4,5.9l-9.3,6C340.7,187.2,337.6,189.2,334.5,191.1z"/>
		</g>
		<g>
			<path class="st10" d="M350.3,180.1c-0.1-1-0.1-2.1-0.1-3.1c0-1,0.2-2,0.3-3s0.4-2,0.6-2.9c0.3-1,0.6-1.9,1.1-2.9
				c0.1,1,0.1,2.1,0.1,3.1c0,1-0.2,2-0.3,3s-0.4,2-0.6,2.9C351.1,178.2,350.8,179.1,350.3,180.1z"/>
		</g>
		<g>
			<path class="st10" d="M346.1,182.9c1.8-0.3,3.7-0.5,5.5-0.6c1.8-0.1,3.7-0.1,5.5-0.1c1.8,0,3.7,0.1,5.5,0.2
				c1.8,0.1,3.6,0.3,5.5,0.6c-1.8,0.3-3.7,0.5-5.5,0.6c-1.8,0.1-3.7,0.1-5.5,0.1c-1.8,0-3.7-0.1-5.5-0.2
				C349.7,183.4,347.9,183.2,346.1,182.9z"/>
		</g>
	</g>
</g>
<g>
	<polygon class="st12" points="350.9,216.3 328.3,216.3 323,193.7 356.1,193.7 	"/>
	<rect x="319.5" y="187.9" class="st13" width="40.2" height="9.1"/>
</g>
<g>
	<g class="st14">
		<path class="st15" d="M129.4,190.7c1.6-4,5.5-5.2,7.4-8.8c3.4-6.4-2.3-8.1-3-12.4c-0.9-5.7,3.1-5.2,5.2-8.7
			c2.4-4.1-1.7-8.9,0.8-12.8c6.3-9.6,16.5,0.9,23.1,3.2c4.1,1.4,10.2,1.9,13.4-0.6c4.2-3.4,8.4-11.3,4-15.9c-6.3-6.4-4-9.8,2.8-11.4
			c3-0.7,4.4-3,1.1-5.7c5.1,7.4-11.9,0.7-14.9,5.7c-2.1,3.5,0.5,5.5,1.2,8.2c1.9,6.8-2.8,12.7-12.6,5.9c-5.6-3.9-5.1-10.9-11.1-12.7
			c-5.6-1.7-12.1,3.3-14.1,10c-2,6.6-4.4,10-11.6,9.3c-8.5-0.9-15,4.4-11.2,12c3.4,6.7,12.7,2.9,17.4,6.8c5.2,4.3,3.6,10.2-3.2,15.7
			c-2.1,1.7-5.3,4.3-4.5,7.2c0.5,1.9,3.9,4.9,6.1,5L129.4,190.7z"/>
	</g>
	<path class="st16" d="M142,193.4h-1.8v-2.4c0-1.1-0.9-1.9-1.9-1.9h-21.5c-1.1,0-1.9,0.9-1.9,1.9v15c0,5.7,4.6,10.3,10.3,10.3h4.7
		c4.5,0,8.4-2.9,9.7-7h2.4c1.8,0,3.3-1.5,3.3-3.3v-9.3C145.3,194.9,143.9,193.4,142,193.4z M143.2,206c0,0.6-0.5,1.2-1.2,1.2h-1.9
		c0.1-0.4,0.1-0.8,0.1-1.2v-10.5h1.8c0.6,0,1.2,0.5,1.2,1.2L143.2,206L143.2,206z"/>
	<path class="st17" d="M137.4,194.4c0-1.9-0.4-3.7-1.1-5.3h-19.5c-1.1,0-1.9,0.9-1.9,1.9v15c0,1.8,0.5,3.5,1.3,5c0.3,0,0.6,0,0.9,0
		C128.4,211,137.4,203.6,137.4,194.4z"/>
</g>
<g>
	<path class="st18" d="M367.6,238.9H95.4c-2.9,0-5.3-2.4-5.3-5.3l0,0c0-2.9,2.4-5.3,5.3-5.3h272.2c2.9,0,5.3,2.4,5.3,5.3l0,0
		C372.9,236.6,370.5,238.9,367.6,238.9z"/>
	<path class="st19" d="M374.3,231.2H88.7c-4.1,0-7.4-3.3-7.4-7.4l0,0c0-4.1,3.3-7.4,7.4-7.4h285.6c4.1,0,7.4,3.3,7.4,7.4l0,0
		C381.7,227.8,378.4,231.2,374.3,231.2z"/>
</g>
<g>
	<circle class="st12" cx="328.1" cy="74.7" r="19.3"/>
	<circle class="st10" cx="328.1" cy="74.7" r="15.1"/>
	<g>
		<line class="st20" x1="328.1" y1="74.7" x2="328.1" y2="65.6"/>
		<line class="st20" x1="328.1" y1="74.7" x2="333.6" y2="80.2"/>
	</g>
	<g>
		<g>
			<g>
				<line class="st21" x1="328.1" y1="88" x2="328.1" y2="86.2"/>
				<line class="st21" x1="334.7" y1="86.2" x2="333.9" y2="84.7"/>
				<line class="st21" x1="339.6" y1="81.3" x2="338.1" y2="80.4"/>
				<line class="st21" x1="341.4" y1="74.7" x2="339.6" y2="74.7"/>
				<line class="st21" x1="339.6" y1="68" x2="338.1" y2="68.9"/>
				<line class="st21" x1="334.7" y1="63.1" x2="333.9" y2="64.6"/>
				<line class="st21" x1="328.1" y1="63.1" x2="328.1" y2="61.3"/>
				<line class="st21" x1="322.3" y1="64.6" x2="321.4" y2="63.1"/>
				<line class="st21" x1="318" y1="68.9" x2="316.5" y2="68"/>
				<line class="st21" x1="316.5" y1="74.7" x2="314.7" y2="74.7"/>
				<line class="st21" x1="318" y1="80.4" x2="316.5" y2="81.3"/>
				<line class="st21" x1="322.3" y1="84.7" x2="321.4" y2="86.2"/>
			</g>
		</g>
	</g>
	<circle class="st18" cx="328.1" cy="74.7" r="0.9"/>
</g>
<g>
	<path class="st17" d="M188.1,53.9c-8.2-8.2-21.6-8.1-29.7,0.3c-7.4,7.7-7.8,20.1-0.7,28.1c6.9,7.8,18,9.2,26.4,4.2
		c0.7-0.4,1.6-0.6,2.5-0.3l5.3,1.6c0.4,0.1,0.8-0.2,0.7-0.7l-1.6-5.3c-0.2-0.8-0.1-1.7,0.3-2.5C196,71.3,195,60.8,188.1,53.9z"/>
	<g>
		<line class="st22" x1="161.6" y1="59.5" x2="185.2" y2="59.5"/>
		<line class="st22" x1="179.5" y1="65.6" x2="185.2" y2="65.6"/>
		<line class="st22" x1="161.6" y1="65.6" x2="173.9" y2="65.6"/>
		<line class="st22" x1="172.4" y1="71.6" x2="185.2" y2="71.6"/>
		<line class="st22" x1="161.6" y1="71.6" x2="167.8" y2="71.6"/>
		<line class="st22" x1="179.5" y1="77.7" x2="185.2" y2="77.7"/>
		<line class="st22" x1="161.6" y1="77.7" x2="173.6" y2="77.7"/>
	</g>
</g>
<g>
	<g>
		<path class="st23" d="M231.6,63.7c0,0-2.1-9.3,6.8-17.3s22.8-7.2,30.3-3.1c9.8,5.4,19.5,19.7,10.6,40s31.6,12,18,39.6
			s-37,8.6-45.4,20s-37.6-18.6-12.7-39.5C264.3,82.5,233.5,82.6,231.6,63.7z"/>
		<path class="st16" d="M229.4,124.6c-10.2,4.4-18.7,30.3-19.5,85.5h22C231.9,210.1,245.3,117.8,229.4,124.6z"/>
		<path class="st17" d="M256.7,116.4c12.1-1.2,31.8,0.8,38.8,8.6c1.6,1.7,1.6,5,0.7,9.4c-3,15.8-16.5,47-9.3,81.9h-62.9
			c0,0,6-27.2,2.6-35.8c-3.8-9.8-7.1-18.7-3.4-26.9c8.5-18.7,0.9-26.4,6.3-29.1C237.1,120.7,246.5,117.4,256.7,116.4z"/>
		<path class="st16" d="M282.6,162.6c-2.6,15.3-20.3,17.1-29.2,14.2c0,0,12.9,7.8,22.2,3.4c0,0,2.4,7.4-1.2,30.9H286
			c0,0,0-0.1,0-0.1c-1.8-12.3-1.3-24,0.3-34.6c0.3-2.7,0.7-5.1,1.2-7.1c0,0,0,0,0-0.1c1.5-7.5,3.3-14.3,4.9-20.3c0.7-4,1-7.6,1-12
			C293.5,136.8,285.3,147.4,282.6,162.6z"/>
		<path class="st24" d="M283.3,195.4c0,0-11,13.5-16.3,9.8c-7-4.8-12.8-4.8-17.5-2c-4.8,2.9-6.7,7.9-6.7,7.9h37.7l11-9.5
			L283.3,195.4z"/>
		<path class="st16" d="M295.9,125.5c0,0,9.7,25.3,18,46c6.7,16.7-33.7,39.5-33.7,39.5l-6.7-8.9l23.3-25.8l-14.2-30
			c0,0-8.3-16.4,4.3-22.2C293.8,120.8,295.9,125.5,295.9,125.5z"/>
		<path class="st24" d="M265,91.7c0,0-1.5,19.2,3.1,24.2c5.9,6.4-4.5,20.3-20.1,30.9c0,0-8.7-9.7-1.9-25.5
			c6.8-15.8,0.2-24.7,0.2-24.7L265,91.7z"/>
		<path class="st25" d="M268,83.4c0,13.2-9.3,23.8-17.1,23.8s-17.6-8.7-18.9-24.9c-1.1-13.1,6-22.7,16.7-22.7
			C259.4,59.6,268,70.3,268,83.4z"/>
		<path class="st23" d="M235.4,56.5c-1.1,0.6-3.5,2.2-6.3,4c-3,2-6.2,5.5-7.4,9.3c-1.9,6.6,2.9,14.8,12.5,11.9
			c9.6-2.9,14.2-18.3,22-9.4c9.7,11.1,13.2,4.9,13.2,4.9s-1.9-13.8-11.7-20C252.4,54,244.5,51.3,235.4,56.5z"/>
		<g>
			<path class="st26" d="M274.5,78.7c0,4.3-2.5,7.8-5.7,7.8c-3.1,0-5.7-3.5-5.7-7.8c0-4.3,2.5-7.8,5.7-7.8
				C272,70.9,274.5,74.4,274.5,78.7z"/>
			<path class="st17" d="M251,52.8c-8.7-1.7-17.1,1.6-21.8,7.8c5.2-3.6,12.1-5.1,19.1-3.8c11.6,2.2,19.8,11.6,20,22.1
				c0.2-0.7,0.4-1.4,0.5-2.1C270.9,65.8,262.9,55.1,251,52.8z"/>
			<g>
				<path class="st27" d="M267.6,81.2c0,0,1.6,17.6-14.6,19.2"/>
				<path class="st26" d="M252,102.2h-2.5c-0.8,0-1.5-0.7-1.5-1.5l0,0c0-0.8,0.7-1.5,1.5-1.5h2.5c0.8,0,1.5,0.7,1.5,1.5l0,0
					C253.5,101.5,252.8,102.2,252,102.2z"/>
			</g>
		</g>
	</g>
	<g>
		<g>
			<path class="st28" d="M289.7,216.3h-91.6c-1.3,0-2.3-1-2.3-2.3v-0.6c0-1.3,1-2.3,2.3-2.3h91.6c1.3,0,2.3,1,2.3,2.3v0.6
				C292,215.2,291,216.3,289.7,216.3z"/>
		</g>
		<path class="st29" d="M247.3,216.3h-84.6c-2.3,0-4.4-1.4-5.1-3.6l-19.7-54.2c-1.3-3.6,1.3-7.3,5.1-7.3h84.6c2.3,0,4.4,1.4,5.1,3.6
			l19.7,54.2C253.8,212.5,251.1,216.3,247.3,216.3z"/>
		<path class="st15" d="M141.1,151.5c0.3,32,43.2,57.9,96.1,57.9c5.2,0,10.3-0.2,15.2-0.7l-19.6-53.9c-0.8-2.2-2.8-3.6-5.1-3.6
			h-84.6C142.4,151.2,141.7,151.3,141.1,151.5z"/>
	</g>
</g>
<g>
	<path class="st17" d="M292.1,12.9c6-6,15.7-5.9,21.5,0.2c5.4,5.6,5.6,14.5,0.5,20.4c-5,5.7-13.1,6.7-19.2,3
		c-0.5-0.3-1.2-0.4-1.8-0.2l-3.8,1.1c-0.3,0.1-0.6-0.2-0.5-0.5l1.1-3.8c0.2-0.6,0.1-1.3-0.2-1.8C286.3,25.5,287.1,17.9,292.1,12.9z"
		/>
	<g>
		<circle class="st10" cx="294.4" cy="23.6" r="2.4"/>
		<circle class="st10" cx="302.7" cy="23.6" r="2.4"/>
		<circle class="st10" cx="311.1" cy="23.6" r="2.4"/>
	</g>
</g>
<g class="st30">
	<g>
		<line class="st31" x1="356" y1="12.4" x2="358.1" y2="14.6"/>
		<line class="st31" x1="358.1" y1="12.4" x2="356" y2="14.6"/>
	</g>
	<g>
		<line class="st32" x1="87.1" y1="127.4" x2="91.4" y2="131.7"/>
		<line class="st32" x1="91.4" y1="127.4" x2="87.1" y2="131.7"/>
	</g>
	<g>
		<line class="st33" x1="206" y1="102.2" x2="209" y2="105.2"/>
		<line class="st33" x1="209" y1="102.2" x2="206" y2="105.2"/>
	</g>
	<g>
		<line class="st33" x1="376.2" y1="207.8" x2="379.3" y2="210.8"/>
		<line class="st33" x1="379.3" y1="207.8" x2="376.2" y2="210.8"/>
	</g>
	<path class="st33" d="M258.4,23.6c0,1-0.8,1.8-1.9,1.8c-1,0-1.9-0.8-1.9-1.8c0-1,0.8-1.8,1.9-1.8C257.6,21.7,258.4,22.5,258.4,23.6
		z"/>
	<path class="st33" d="M155.4,99.2c0,1-0.8,1.8-1.9,1.8s-1.9-0.8-1.9-1.8s0.8-1.8,1.9-1.8S155.4,98.2,155.4,99.2z"/>
	<path class="st33" d="M379.6,75.8c0,1-0.8,1.8-1.9,1.8c-1,0-1.9-0.8-1.9-1.8s0.8-1.8,1.9-1.8C378.8,74,379.6,74.8,379.6,75.8z"/>
	<path class="st33" d="M96.8,179.7c0,2.4-2,4.4-4.4,4.4s-4.4-2-4.4-4.4s2-4.4,4.4-4.4C94.8,175.3,96.8,177.2,96.8,179.7z"/>
	<path class="st33" d="M338,124.4c0,2.4-2,4.4-4.4,4.4s-4.4-2-4.4-4.4s2-4.4,4.4-4.4S338,121.9,338,124.4z"/>
</g>
</svg>
