<?xml version="1.0" standalone="no"?>
<!DOCTYPE svg PUBLIC "-//W3C//DTD SVG 20010904//EN"
 "http://www.w3.org/TR/2001/REC-SVG-20010904/DTD/svg10.dtd">
<svg version="1.0" xmlns="http://www.w3.org/2000/svg"
 width="700.000000pt" height="700.000000pt" viewBox="0 0 700.000000 700.000000"
 preserveAspectRatio="xMidYMid meet">
<metadata>
Created by potrace 1.11, written by Peter Selinger 2001-2013
</metadata>
<g transform="translate(0.000000,700.000000) scale(0.100000,-0.100000)"
fill="#000000" stroke="none">
<path d="M3425 6983 c-60 -31 -103 -98 -106 -164 -1 -19 2 -74 6 -124 3 -49 8
-108 10 -130 17 -234 19 -250 31 -287 7 -24 7 -24 -131 6 -188 41 -462 41
-652 2 -46 -10 -65 -11 -72 -2 -5 6 -36 52 -69 102 -74 113 -111 139 -197 139
-73 0 -118 -23 -157 -80 -51 -75 -47 -158 14 -256 15 -25 28 -49 28 -52 0 -3
-33 -23 -72 -45 -230 -126 -453 -339 -600 -572 -53 -84 -54 -85 -96 -87 -26
-1 -62 -13 -87 -27 -101 -60 -126 -226 -46 -302 28 -26 28 -27 15 -78 -7 -28
-15 -67 -18 -86 -3 -19 -7 -44 -10 -55 -19 -95 -27 -338 -14 -440 4 -33 10
-76 12 -97 9 -65 41 -201 62 -259 17 -51 18 -66 2 -66 -27 0 -164 -14 -195
-19 -81 -15 -151 -120 -140 -212 16 -128 102 -191 247 -178 36 3 103 8 150 11
47 4 99 8 115 10 38 5 38 5 109 -85 104 -132 272 -285 411 -375 42 -27 120
-70 185 -102 68 -33 76 -41 175 -189 44 -65 86 -126 95 -134 8 -9 28 -34 45
-55 16 -22 66 -83 110 -136 44 -52 94 -112 110 -133 17 -21 38 -48 48 -60 10
-11 28 -34 40 -49 12 -16 27 -34 32 -40 18 -20 119 -176 181 -282 77 -129 131
-233 189 -370 l47 -110 3 -360 c4 -409 7 -450 42 -560 77 -244 235 -428 455
-529 205 -95 435 -77 640 48 147 90 240 196 319 361 82 173 79 153 76 629 -3
437 -4 441 -46 490 -42 48 -39 48 -607 48 -386 0 -537 3 -548 12 -8 6 -40 74
-71 151 -139 346 -259 544 -518 859 -111 135 -186 231 -183 233 2 2 70 6 152
8 82 2 160 6 174 9 14 3 54 10 90 16 98 17 215 50 310 87 76 29 88 32 124 22
161 -43 431 -57 596 -30 278 46 508 143 705 296 357 278 516 687 449 1152 -20
133 -24 151 -51 248 -96 338 -268 596 -558 837 -55 46 -199 135 -300 186 -101
51 -305 123 -382 137 -31 5 -62 22 -110 62 -80 66 -202 147 -293 194 -81 41
-78 39 -57 51 33 18 76 69 88 105 15 48 -7 441 -32 572 -14 69 -75 134 -135
144 -62 11 -107 7 -139 -10z m50 -1767 c178 -75 -19 -357 -308 -441 -116 -33
-224 -14 -255 45 -28 54 10 151 90 231 135 133 360 212 473 165z m3 -410 c7
-32 -19 -64 -73 -93 -46 -24 -56 -26 -80 -15 -21 10 -25 17 -19 35 15 51 86
99 139 95 20 -2 31 -9 33 -22z m867 -3529 l100 -2 3 -29 c2 -15 -1 -26 -6 -23
-5 4 -9 0 -9 -8 0 -8 3 -12 7 -10 4 2 7 -20 8 -50 0 -39 -3 -53 -11 -48 -9 5
-9 3 -1 -8 15 -19 15 -110 1 -128 -8 -10 -8 -13 -1 -8 7 4 11 -6 12 -28 1 -25
-5 -39 -21 -50 -12 -8 -17 -15 -11 -15 5 0 15 5 22 12 10 10 11 4 8 -27 -2
-22 -7 -62 -10 -89 -2 -27 -11 -53 -18 -57 -10 -7 -10 -9 -1 -9 10 0 10 -6 1
-25 -6 -14 -15 -25 -20 -25 -5 0 -6 -4 -3 -10 7 -11 -22 -71 -39 -82 -6 -4 -8
-8 -4 -8 11 0 -29 -47 -81 -97 -76 -72 -167 -108 -277 -108 -71 0 -88 4 -150
34 -124 62 -226 191 -264 339 -14 52 -17 110 -16 306 1 132 4 246 8 251 6 9
418 10 773 2z"/>
<path d="M4266 1242 c-3 -5 1 -9 9 -9 8 0 12 4 9 9 -3 4 -7 8 -9 8 -2 0 -6 -4
-9 -8z"/>
<path d="M4330 1240 c0 -5 5 -10 11 -10 5 0 7 5 4 10 -3 6 -8 10 -11 10 -2 0
-4 -4 -4 -10z"/>
<path d="M4334 1162 c4 -3 14 -7 22 -8 9 -1 13 0 10 4 -4 3 -14 7 -22 8 -9 1
-13 0 -10 -4z"/>
<path d="M4235 1111 c-3 -5 -2 -12 3 -15 5 -3 9 1 9 9 0 17 -3 19 -12 6z"/>
<path d="M4330 926 c0 -2 7 -7 16 -10 8 -3 12 -2 9 4 -6 10 -25 14 -25 6z"/>
<path d="M4287 639 c7 -7 15 -10 18 -7 3 3 -2 9 -12 12 -14 6 -15 5 -6 -5z"/>
<path d="M4340 640 c-9 -6 -10 -10 -3 -10 6 0 15 5 18 10 8 12 4 12 -15 0z"/>
<path d="M4285 560 c-3 -6 1 -7 9 -4 18 7 21 14 7 14 -6 0 -13 -4 -16 -10z"/>
<path d="M4195 501 c-3 -5 -2 -12 3 -15 5 -3 9 1 9 9 0 17 -3 19 -12 6z"/>
<path d="M4115 469 c-4 -6 -5 -12 -2 -15 2 -3 7 2 10 11 7 17 1 20 -8 4z"/>
<path d="M4109 403 c-13 -16 -12 -17 4 -4 16 13 21 21 13 21 -2 0 -10 -8 -17
-17z"/>
<path d="M4776 6715 c-55 -19 -92 -60 -132 -143 -19 -41 -34 -75 -34 -78 0 -2
-11 -27 -24 -56 -129 -283 -135 -304 -110 -387 46 -156 259 -182 346 -41 28
47 207 465 211 495 5 35 -18 108 -45 147 -43 62 -135 90 -212 63z"/>
<path d="M5810 5764 c-47 -14 -351 -230 -425 -302 -156 -151 15 -413 210 -323
34 16 194 128 275 192 14 11 53 40 86 65 48 35 66 55 84 96 69 160 -67 320
-230 272z"/>
<path d="M1879 2886 c-20 -7 -52 -23 -70 -36 -102 -71 -337 -247 -357 -268
-119 -124 -33 -343 135 -342 47 0 99 25 184 87 325 235 319 230 345 299 58
151 -90 313 -237 260z"/>
</g>
</svg>
