<?xml version="1.0" encoding="utf-8"?>
<!-- Generator: Adobe Illustrator 24.1.0, SVG Export Plug-In . SVG Version: 6.00 Build 0)  -->
<svg version="1.1" id="Camada_1" xmlns="http://www.w3.org/2000/svg" xmlns:xlink="http://www.w3.org/1999/xlink" x="0px" y="0px"
	 viewBox="0 0 480 480" style="enable-background:new 0 0 480 480;" xml:space="preserve">
<style type="text/css">
	.st0{fill:#F6D842;}
	.st1{fill:#ECECEC;fill-opacity:0;}
	.st2{fill:#929292;}
	.st3{fill:#ECECEC;}
	.st4{fill:#4C4C4C;}
</style>
<path class="st0" d="M472,344v32c0,8.8-7.2,16-16,16H24c-8.8,0-16-7.2-16-16v-32H472z"/>
<path class="st1" d="M392,72v192c0,8.8-7.2,16-16,16H104c-8.8,0-16-7.2-16-16V72H392z"/>
<path class="st0" d="M392,24v48H88V24c0-8.8,7.2-16,16-16h272C384.8,8,392,15.2,392,24z"/>
<path class="st2" d="M328,440l24,32H128l24-32h32h112H328z"/>
<path class="st3" d="M288,392l8,48H184l8-48H288z"/>
<path class="st4" d="M352,32h16v16h-16V32z"/>
<path class="st4" d="M320,32h16v16h-16V32z"/>
<path class="st4" d="M288,32h16v16h-16V32z"/>
<path class="st4" d="M456,96h-56V24c0-13.2-10.8-24-24-24H104C90.8,0,80,10.8,80,24v72H24c-13.2,0-24,10.8-24,24v256
	c0,13.2,10.8,24,24,24h158.6l-5.4,32H152c-2.5,0-4.9,1.2-6.4,3.2l-24,32c-1.8,2.4-2.1,5.7-0.7,8.4c1.3,2.7,4.1,4.4,7.1,4.4h224
	c3,0,5.8-1.7,7.1-4.4c1.4-2.7,1.1-6-0.7-8.4l-24-32c-1.5-2-3.9-3.2-6.4-3.2h-25.2l-5.4-32H456c13.2,0,24-10.8,24-24V120
	C480,106.8,469.2,96,456,96z M96,24c0-4.4,3.6-8,8-8h272c4.4,0,8,3.6,8,8v40H96V24z M96,80h288v184c0,4.4-3.6,8-8,8H104
	c-4.4,0-8-3.6-8-8V80z M324,448l12,16H144l12-16H324z M193.4,432l5.4-32h82.4l5.4,32H193.4z M464,376c0,4.4-3.6,8-8,8H24
	c-4.4,0-8-3.6-8-8v-24h448V376z M464,336H16V120c0-4.4,3.6-8,8-8h56v152c0,13.2,10.8,24,24,24h32h16h48h16h48h16h48h16h32
	c13.2,0,24-10.8,24-24V112h56c4.4,0,8,3.6,8,8V336z"/>
<g>
	<path class="st4" d="M188.3,271.2V168.6h25.8v102.6c0,0.3,0,0.5,0.1,0.8H227c0-0.3,0.1-0.5,0.1-0.8v-122c0-1-0.2-2-0.7-2.9
		L207,107.6c-1.6-3.2-5.5-4.5-8.7-2.9c-1.2,0.6-2.3,1.6-2.9,2.9l-19.4,38.8c-0.4,0.9-0.7,1.9-0.7,2.9v122c0,0.3,0,0.5,0.1,0.8h12.8
		C188.3,271.7,188.3,271.5,188.3,271.2z M201.2,124.9l5.7,11.4h-11.4L201.2,124.9z M188.3,150.8l0.8-1.5h24.3l0.8,1.5v4.9h-25.8
		V150.8z"/>
	<path class="st4" d="M342.7,159.3c-1.6-3.2-5.5-4.5-8.7-2.9c-1.2,0.6-2.3,1.6-2.9,2.9L311.8,198c-0.4,0.9-0.7,1.9-0.7,2.9v70.3
		c0,0.3,0,0.5,0.1,0.8h12.8c0-0.3,0.1-0.5,0.1-0.8v-50.9h25.8v50.9c0,0.3,0,0.5,0.1,0.8h12.8c0-0.3,0.1-0.5,0.1-0.8v-70.3
		c0-1-0.2-2-0.7-2.9L342.7,159.3z M349.8,207.4H324v-4.9l12.9-25.8l12.9,25.8V207.4z"/>
	<path class="st4" d="M136.9,213.8h12.4l-2.4,58.2h12.9l2.7-64.3c0-0.1,0-0.3,0-0.4V207c0-0.2,0-0.5-0.1-0.7v0l-6-35.9
		c7.5-5.7,12.5-16,12.5-27.7c0-16.6-19.2-35-21.4-37c-2.5-2.3-6.3-2.3-8.8,0c-2.2,2-21.4,20.4-21.4,37c0,11.7,5,22,12.5,27.7
		l-6,35.9v0c0,0.2-0.1,0.5-0.1,0.7v0.2c0,0.2,0,0.3,0,0.4l2.7,64.3h12.9L136.9,213.8z M137.8,200.9l4.3-25.8h2l4.3,25.8H137.8z
		 M130.2,142.8c0-6.6,6.8-16.3,12.9-23.1c5.5,6.1,12.9,16,12.9,23.1c0,10.5-5.9,19.4-12.9,19.4S130.2,153.3,130.2,142.8z"/>
	<path class="st4" d="M298.2,104H240c-3.6,0-6.5,2.9-6.5,6.5V272h12.9V116.9h45.2v12.9h-19.4c-3.6,0-6.5,2.9-6.5,6.5
		c0,3.6,2.9,6.5,6.5,6.5h19.4v12.9h-6.5c-3.6,0-6.5,2.9-6.5,6.5s2.9,6.5,6.5,6.5h6.5v12.9h-19.4c-3.6,0-6.5,2.9-6.5,6.5
		c0,3.6,2.9,6.5,6.5,6.5h19.4v12.9h-6.5c-3.6,0-6.5,2.9-6.5,6.5s2.9,6.5,6.5,6.5h6.5v12.9h-19.4c-3.6,0-6.5,2.9-6.5,6.5
		c0,3.6,2.9,6.5,6.5,6.5h19.4V272h12.9V110.5C304.6,106.9,301.7,104,298.2,104z"/>
</g>
</svg>
