<?xml version="1.0" encoding="utf-8"?>
<!-- Generator: Adobe Illustrator 24.0.3, SVG Export Plug-In . SVG Version: 6.00 Build 0)  -->
<svg version="1.1" id="Camada_1" xmlns="http://www.w3.org/2000/svg" xmlns:xlink="http://www.w3.org/1999/xlink" x="0px" y="0px"
	 viewBox="0 0 466 466" style="enable-background:new 0 0 466 466;" xml:space="preserve">
<style type="text/css">
	.st0{fill:#55C0EB;}
	.st1{fill:#F6D842;}
	.st2{fill:#F5C99D;}
	.st3{fill:#A7A7A7;}
	.st4{fill:#429EBA;}
</style>
<g id="Business_Card">
	<path class="st0" d="M161,97h288c8.8,0,16,7.2,16,16v192c0,8.8-7.2,16-16,16H161c-8.8,0-16-7.2-16-16V113
		C145,104.2,152.2,97,161,97z"/>
	<circle class="st1" cx="233" cy="169" r="40"/>
	<path class="st2" d="M269.7,253.3c-8.9-15.3-28.4-20.5-43.8-11.8l-65,37.5h-16V193h-32l-48,48v112h96l55.4-32l41.5-24
		C273.3,288.2,278.5,268.6,269.7,253.3z"/>
	<path class="st3" d="M65,353v8H1V217h64v24V353z"/>
	<g>
		<path class="st4" d="M345,137h80v16h-80V137z"/>
		<path class="st4" d="M313,137h16v16h-16V137z"/>
		<path class="st4" d="M313,169h112v16H313V169z"/>
		<path class="st4" d="M297,233h48v16h-48V233z"/>
		<path class="st4" d="M361,233h64v16h-64V233z"/>
		<path class="st4" d="M297,265h128v16H297V265z"/>
	</g>
</g>
</svg>
