<?xml version="1.0" encoding="utf-8"?>
<!-- Generator: Adobe Illustrator 22.0.0, SVG Export Plug-In . SVG Version: 6.00 Build 0)  -->
<svg version="1.1" id="Layer_1" xmlns="http://www.w3.org/2000/svg" xmlns:xlink="http://www.w3.org/1999/xlink" x="0px" y="0px"
	 viewBox="0 0 476 476" style="enable-background:new 0 0 476 476;" xml:space="preserve">
<style type="text/css">
	.st0{fill:#AAE1F9;}
	.st1{fill:#F9E109;}
	.st2{fill:#57B7EB;}
	.st3{fill:#FCBC04;}
	.st4{fill:#C4F236;}
	.st5{fill:#A1D51C;}
	.st6{fill:#F89C8D;}
	.st7{fill:#F8664F;}
	.st8{fill:#CC5144;}
	.st9{fill:#E59730;}
</style>
<path class="st0" d="M35,251h224v176H35V251z"/>
<path class="st1" d="M11,427h272l0,0v16c0,17.7-14.3,32-32,32H43c-17.7,0-32-14.3-32-32V427L11,427z"/>
<path class="st2" d="M67,315v-64H35v176h224v-32H147C102.8,395,67,359.2,67,315z"/>
<path class="st3" d="M59,451c-13.3,0-24-10.7-24-24l0,0H11v16c0,17.7,14.3,32,32,32h208c14.6,0,27.2-9.9,30.9-24H59z"/>
<path class="st4" d="M363,259h96c8.8,0,16,7.2,16,16v96c0,8.8-7.2,16-16,16h-96c-8.8,0-16-7.2-16-16v-96
	C347,266.2,354.2,259,363,259z"/>
<circle class="st2" cx="411" cy="323" r="24"/>
<path class="st5" d="M371,299v-40h-8c-8.8,0-16,7.2-16,16v96c0,8.8,7.2,16,16,16h96c8.8,0,16-7.2,16-16v-8h-40
	C399.7,363,371,334.3,371,299z"/>
<circle class="st0" cx="419" cy="315" r="8"/>
<path class="st4" d="M11,83h96v128H11V83z"/>
<circle class="st6" cx="203" cy="67" r="64"/>
<path class="st0" d="M187,91V43l48,24L187,91z"/>
<path class="st7" d="M227,107c-35.3,0-64-28.7-64-64c0-11.1,2.9-22,8.4-31.6c-30.5,17.9-40.7,57.1-22.8,87.6s57.1,40.7,87.6,22.8
	c9.4-5.5,17.2-13.4,22.8-22.8C249.2,104.5,238.2,107.2,227,107z"/>
<path class="st0" d="M363,11h96c8.8,0,16,7.2,16,16v96c0,8.8-7.2,16-16,16h-96c-8.8,0-16-7.2-16-16V27C347,18.2,354.2,11,363,11z"/>
<path class="st2" d="M371,51V11h-8c-8.8,0-16,7.2-16,16v96c0,8.8,7.2,16,16,16h96c8.8,0,16-7.2,16-16v-8h-40
	C399.7,115,371,86.3,371,51z"/>
<path class="st5" d="M35,139V83H11v128h96v-24H83C56.5,187,35,165.5,35,139z"/>
<path class="st7" d="M139.5,332.3l27.7-16l0,0l32,55.4c4.4,7.7,1.8,17.4-5.9,21.9c-7.7,4.4-17.4,1.8-21.9-5.9L139.5,332.3
	L139.5,332.3z"/>
<path class="st8" d="M187.5,351.4l-20.2-35.1l-27.8,16l19,32.8l13.8-8L187.5,351.4z"/>
<path class="st4" d="M309,289.9l-136.7,51.2l-40-69.3L245,179L309,289.9z"/>
<path class="st6" d="M97.7,291.8l34.6-20l0,0l40,69.3l0,0l-34.6,20c-11.5,6.6-26.2,2.7-32.8-8.8l-16-27.7
	C82.3,313.1,86.2,298.4,97.7,291.8z"/>
<path class="st8" d="M75,332.6l13.9-8l0,0l16,27.7l0,0l-13.9,8c-7.7,4.4-17.4,1.8-21.9-5.9C64.7,346.8,67.3,337,75,332.6z"/>
<path class="st5" d="M181.6,316.6c-0.8,0.3-1.6,0.7-2.4,1.1l-15.3,8.8l8.4,14.6L309,289.9l-10-17.3L181.6,316.6z"/>
<path class="st7" d="M159.5,329.1c-19.2,11-43.6,4.3-54.6-14.9c-4.1-7.2-5.9-15.5-5.1-23.7l-2.2,1.3c-11.5,6.6-15.4,21.3-8.8,32.8
	c0,0,0,0,0,0l16,27.7c6.6,11.5,21.3,15.4,32.8,8.8c0,0,0,0,0,0l34.6-20l-8.4-14.6L159.5,329.1z"/>
<path class="st2" d="M59,475v-16c0-4.4,3.6-8,8-8s8,3.6,8,8v16H59z"/>
<path class="st2" d="M219,475v-16c0-4.4,3.6-8,8-8s8,3.6,8,8v16H219z"/>
<path class="st3" d="M435,35h-16c-13.3,0-24,10.7-24,24v8h-8c-4.4,0-8,3.6-8,8s3.6,8,8,8h8v24c0,4.4,3.6,8,8,8s8-3.6,8-8V83h8
	c4.4,0,8-3.6,8-8s-3.6-8-8-8h-8v-8c0-4.4,3.6-8,8-8h16c4.4,0,8-3.6,8-8S439.4,35,435,35z"/>
<g>
	<path class="st1" d="M283,171c-1.7,0-3.4-0.6-4.8-1.6c-3.5-2.7-4.3-7.7-1.6-11.2l24-32c2.7-3.5,7.7-4.2,11.2-1.6
		c3.5,2.7,4.2,7.7,1.6,11.2l-24,32C287.9,169.8,285.5,171,283,171z"/>
	<path class="st1" d="M307,203c-2.5,0-4.9-1.2-6.4-3.2c-2.7-3.5-1.9-8.5,1.6-11.2l32-24c3.5-2.7,8.5-1.9,11.2,1.6
		c2.7,3.5,1.9,8.5-1.6,11.2l-32,24C310.4,202.4,308.7,203,307,203L307,203z"/>
	<path class="st1" d="M331,235c-4.4,0.4-8.4-2.8-8.8-7.2c-0.4-4.4,2.8-8.4,7.2-8.8l40-8c4.4-0.9,8.7,2,9.6,6.4s-2,8.7-6.4,9.6l-40,8
		H331z"/>
</g>
<path class="st3" d="M75,123H59c-4.4,0-8-3.6-8-8c0-4.4,3.6-8,8-8h16c4.4,0,8,3.6,8,8C83,119.4,79.4,123,75,123z"/>
<path class="st3" d="M75,155H43c-4.4,0-8-3.6-8-8s3.6-8,8-8h32c4.4,0,8,3.6,8,8S79.4,155,75,155z"/>
<path class="st3" d="M75,187H43c-4.4,0-8-3.6-8-8s3.6-8,8-8h32c4.4,0,8,3.6,8,8S79.4,187,75,187z"/>
<path class="st9" d="M403,115c3.2,0,6.1-2,7.4-5c-5.5-2.3-10.7-5.4-15.4-9.1v6.1C395,111.4,398.6,115,403,115z"/>
<path class="st9" d="M43,187h32c0.7,0,1.4-0.2,2-0.4c-11.4-1.5-22-7-29.7-15.6H43c-4.4,0-8,3.6-8,8S38.6,187,43,187z"/>
</svg>
