<?xml version="1.0" encoding="utf-8"?>
<!-- Generator: Adobe Illustrator 22.0.0, SVG Export Plug-In . SVG Version: 6.00 Build 0)  -->
<svg version="1.1" id="Layer_1" xmlns="http://www.w3.org/2000/svg" xmlns:xlink="http://www.w3.org/1999/xlink" x="0px" y="0px"
	 viewBox="0 0 392 392" style="enable-background:new 0 0 392 392;" xml:space="preserve">
<style type="text/css">
	.st0{fill:#F6D842;}
	.st1{fill:#FF9900;}
	.st2{fill:#55C0EB;}
	.st3{fill:#FFB55C;}
</style>
<path class="st0" d="M355.8,303.7l15.8,64.1L307.5,352L355.8,303.7z"/>
<path class="st1" d="M104.9,227.9l39.2-39.2l70.3,70.3L87,386.4c-3.9,3.9-10.2,3.9-14.1,0l0,0l-56.2-56.1c-3.9-3.9-3.9-10.2,0-14.1
	L104.9,227.9z"/>
<path class="st1" d="M226.3,106.5L287,45.8l32.2-32.2c3.9-3.9,10.2-3.9,14.1,0l0,0l56.1,56.2c3.9,3.9,3.9,10.2,0,14.1L262.8,210.6
	l-70.3-70.3L226.3,106.5z"/>
<path class="st2" d="M144.2,188.6l-82.1-82.1l48.3-48.3l82.1,82.1l70.3,70.3l93.1,93.1L307.5,352l-93.1-93.1L144.2,188.6z"/>
<g>
	<path class="st3" d="M257.3,143.6c-1.6,0-3.1-0.6-4.2-1.8l-31-31c-2.4-2.3-2.4-6.1-0.1-8.5c2.3-2.4,6.1-2.4,8.5-0.1
		c0,0,0,0,0.1,0.1l31,31.1c2.3,2.3,2.3,6.1,0,8.5C260.5,142.9,258.9,143.5,257.3,143.6L257.3,143.6z"/>
	<path class="st3" d="M307.1,71.9c-1.6,0-3.1-0.6-4.2-1.8L282.8,50c-2.3-2.3-2.3-6.1,0-8.5c2.3-2.3,6.1-2.3,8.5,0l20.1,20.1
		c2.3,2.3,2.3,6.1,0,8.5C310.2,71.3,308.7,71.9,307.1,71.9L307.1,71.9z"/>
	<path class="st3" d="M136,264.9c-1.6,0-3.1-0.6-4.2-1.8l-31.1-31c-2.3-2.4-2.3-6.2,0.1-8.5c2.3-2.3,6.1-2.3,8.4,0l31.1,31
		c2.3,2.3,2.3,6.1,0,8.5C139.1,264.3,137.6,264.9,136,264.9L136,264.9z"/>
	<path class="st3" d="M82.1,341.8c-1.6,0-3.1-0.6-4.2-1.8L63,325.2c-2.4-2.3-2.4-6.1-0.1-8.5s6.1-2.4,8.5-0.1l0.1,0.1l14.8,14.8
		c2.3,2.3,2.3,6.1,0,8.5C85.2,341.2,83.7,341.8,82.1,341.8L82.1,341.8z"/>
</g>
<path class="st0" d="M78.9,187.5c-1.6,0-3.1-0.6-4.2-1.8L7.4,118.4c-2.3-2.3-2.3-6.1,0-8.5l0,0l41.8-41.4c2.4-2.3,6.2-2.3,8.5,0
	s2.3,6.2,0,8.5l0,0l-37.5,37.1l63,63c2.3,2.3,2.3,6.1,0,8.5C82,186.8,80.5,187.5,78.9,187.5L78.9,187.5z"/>
<path class="st1" d="M82,44.3L53.4,72.8l0,0L48,78.1l-1.6-1.6l-11-11c-9.4-9.4-9.4-24.6,0-34s24.6-9.4,34,0l0.1,0.1l10.8,10.9
	L82,44.3z"/>
<path class="st0" d="M110.4,58.3l-48.3,48.3L40.9,85.4l12.6-12.5L82,44.3l7.2-7.2L110.4,58.3z"/>
</svg>
