<?xml version="1.0" encoding="utf-8"?>
<!-- Generator: Adobe Illustrator 22.0.0, SVG Export Plug-In . SVG Version: 6.00 Build 0)  -->
<svg version="1.1" id="flat" xmlns="http://www.w3.org/2000/svg" xmlns:xlink="http://www.w3.org/1999/xlink" x="0px" y="0px"
	 viewBox="0 0 466 466" style="enable-background:new 0 0 466 466;" xml:space="preserve">
<style type="text/css">
	.st0{fill:#DEAE7E;}
	.st1{fill:#C8DBF7;}
	.st2{fill:#E0EDFF;}
	.st3{fill:#A2B8E0;}
	.st4{fill:#F6BB00;}
	.st5{fill:#EDA600;}
	.st6{fill:#F5C99D;}
</style>
<path class="st0" d="M439,313v136h-54.1c-11.8,0-23.4,2.7-33.9,8s-22.1,8-33.9,8H183c-17.7,0-32-14.3-32-32V313H439z"/>
<path class="st1" d="M319,99.6V409c0,13.3-10.7,24-24,24H47c-13.3,0-24-10.7-24-24V25C23,11.7,33.7,1,47,1h166.7
	c6,0,11.8,2.3,16.2,6.3l81.3,74.6C316.2,86.4,319,92.8,319,99.6z"/>
<path class="st2" d="M316.5,89H247c-13.3,0-24-10.7-24-24V2.9c2.5,1.1,4.9,2.6,6.9,4.4l81.3,74.6C313.4,83.9,315.2,86.3,316.5,89z"
	/>
<g>
	<path class="st3" d="M55,81h16v40H55V81z"/>
	<path class="st3" d="M87,105h16v16H87V105z"/>
	<path class="st3" d="M87,33h16v56H87V33z"/>
	<path class="st3" d="M63,313h24v16H63V313z"/>
	<path class="st3" d="M103,313h64v16h-64V313z"/>
	<path class="st3" d="M63,345h48v16H63V345z"/>
	<path class="st3" d="M95,385h16v16H95V385z"/>
	<path class="st3" d="M127,385h80v16h-80V385z"/>
	<path class="st3" d="M223,385h16v16h-16V385z"/>
</g>
<path class="st4" d="M247,161v88l-48,32h-48l-48-32v-88H247z"/>
<path class="st5" d="M175,201l72-40l-72-40l-72,40L175,201z"/>
<path class="st6" d="M359,393c-15.1,0-29.3-7.1-38.4-19.2L311,361h-72c-13.3,0-24-10.7-24-24s10.7-24,24-24h200v80H359z"/>
</svg>
