<?xml version="1.0" encoding="utf-8"?>
<!-- Generator: Adobe Illustrator 24.1.0, SVG Export Plug-In . SVG Version: 6.00 Build 0)  -->
<svg version="1.1" id="Capa_1" xmlns="http://www.w3.org/2000/svg" xmlns:xlink="http://www.w3.org/1999/xlink" x="0px" y="0px"
	 viewBox="0 0 480 480" style="enable-background:new 0 0 480 480;" xml:space="preserve">
<style type="text/css">
	.st0{fill:#F6D842;}
	.st1{opacity:0;fill:#DEDFE3;}
	.st2{fill:#3F708D;}
	.st3{fill:#2F9BD7;}
	.st4{opacity:0;}
	.st5{fill:#DEDFE3;}
	.st6{fill:#E7343A;}
	.st7{fill:#E7F6FE;}
	.st8{fill:#FFB398;}
	.st9{fill:#FE946F;}
	.st10{fill:#4C4C4C;}
	.st11{fill:#ECECEC;}
</style>
<rect x="136" y="48" class="st0" width="208" height="352"/>
<path class="st1" d="M120,176H24c-8.8,0-16-7.2-16-16V64c0-8.8,7.2-16,16-16h96c8.8,0,16,7.2,16,16v96C136,168.8,128.8,176,120,176z
	"/>
<path class="st2" d="M288,224h-96c-8.8,0-16-7.2-16-16v-96c0-8.8,7.2-16,16-16h96c8.8,0,16,7.2,16,16v96
	C304,216.8,296.8,224,288,224z"/>
<path class="st3" d="M40,91.2l2.8,1.9c9,6.1,19.6,9.3,30.4,9.3l0,0V94c0-7.7,6.2-14,13.8-14l0,0c7.6,0,13.8,6.3,13.8,14l11.1,8.4
	l-11.1,11.2l0,0c0,12.4-9.9,22.4-22.2,22.4H40l11.1-11.2l0,0C44,117.6,40,107.9,40,97.8V91.2z"/>
<g class="st4">
	<path class="st5" d="M264,136v-16h-24c-4.4,0-8,3.6-8,8v24h-16v16h16v32h16v-32h16v-16h-16v-16H264z"/>
	<path class="st5" d="M408,104c-17.7,0-32-14.3-32-32h-32v48c0,8.8,7.2,16,16,16h96c8.8,0,16-7.2,16-16V72h-32
		C440,89.7,425.7,104,408,104z"/>
</g>
<path class="st6" d="M456,8h-96c-8.8,0-16,7.2-16,16v48h32c0-17.7,14.3-32,32-32s32,14.3,32,32h32V24C472,15.2,464.8,8,456,8z"/>
<g>
	<circle class="st7" cx="408" cy="72" r="32"/>
	<rect x="232" y="328" class="st7" width="16" height="16"/>
</g>
<path class="st8" d="M168,440c22.1,0,40-17.9,40-40v-8c0-35.3-28.7-64-64-64h24c22.1,0,40-17.9,40-40h-80c-8.8,0-16,7.2-16,16v176
	h128v-40H168z"/>
<path class="st9" d="M208,400c0,22.1-17.9,40-40,40h72v40h48v-40h16v-40H208z"/>
<g>
	<path class="st8" d="M368,320h-52c-11,0-20-9-20-20l0,0c0-11,9-20,20-20h52c11,0,20,9,20,20l0,0C388,311,379,320,368,320z"/>
	<path class="st8" d="M368,360h-52c-11,0-20-9-20-20l0,0c0-11,9-20,20-20h52c11,0,20,9,20,20l0,0C388,351,379,360,368,360z"/>
	<path class="st8" d="M356,400h-52c-11,0-20-9-20-20l0,0c0-11,9-20,20-20h52c11,0,20,9,20,20l0,0C376,391,367,400,356,400z"/>
	<path class="st8" d="M332,440h-52c-11,0-20-9-20-20l0,0c0-11,9-20,20-20h52c11,0,20,9,20,20l0,0C352,431,343,440,332,440z"/>
</g>
<rect x="160" y="40" class="st10" width="160" height="16"/>
<path class="st10" d="M396,300c0-15.4-12.6-28-28-28h-16V160h-16v112h-20c-15.4,0-28,12.6-28,28c0,7.8,3.3,14.9,8.5,20
	c-5.2,5.1-8.5,12.2-8.5,20c0,5.4,1.6,10.4,4.3,14.7c-9.6,4.5-16.3,14.1-16.3,25.3c0,4.3,1.1,8.3,2.8,12H216
	c0-24.5-12.3-46.1-31-59.1c18.1-6.9,31-24.4,31-44.9c0-4.4-3.6-8-8-8h-64v-80h-16v80c-13.2,0-24,10.8-24,24v176h16V304
	c0-4.4,3.6-8,8-8h71c-3.6,13.8-16.1,24-31,24h-24c-4.4,0-8,3.6-8,8s3.6,8,8,8c30.9,0,56,25.1,56,56v8c0,4.4,3.6,8,8,8h46.8
	c-1.7,3.7-2.8,7.7-2.8,12c0,15.4,12.6,28,28,28v32h16v-32h32h4c15.4,0,28-12.6,28-28c0-4.4-1.1-8.4-2.9-12.1
	C372,407.3,384,395.1,384,380c0-5.4-1.6-10.4-4.3-14.7c9.6-4.5,16.3-14.1,16.3-25.3c0-7.8-3.3-14.9-8.5-20
	C392.7,314.9,396,307.8,396,300z M332,432h-4h-40h-8c-6.6,0-12-5.4-12-12s5.4-12,12-12h24h28c6.6,0,12,5.4,12,12S338.6,432,332,432z
	 M356,392h-24h-28c-6.6,0-12-5.4-12-12s5.4-12,12-12h12h40c6.6,0,12,5.4,12,12S362.6,392,356,392z M380,340c0,6.6-5.4,12-12,12h-12
	h-40c-6.6,0-12-5.4-12-12s5.4-12,12-12h52C374.6,328,380,333.4,380,340z M316,312c-6.6,0-12-5.4-12-12s5.4-12,12-12h52
	c6.6,0,12,5.4,12,12s-5.4,12-12,12H316z"/>
<path class="st10" d="M108.5,89.7C106.5,79.6,97.7,72,87.1,72c-11.9,0-21.7,9.7-21.8,21.7c-6.4-1.1-12.5-3.6-18-7.3l-2.8-1.9
	c-2.4-1.7-5.6-1.8-8.2-0.4c-2.6,1.4-4.2,4.1-4.2,7.1v6.6c0,9.6,2.9,18.8,8.3,26.6l-6,6.1c-2.3,2.3-2.9,5.7-1.7,8.7
	c1.2,3,4.2,4.9,7.4,4.9h38.8c15.5,0,28.2-11.8,30-26.9l9-9.1c1.6-1.6,2.5-3.9,2.3-6.2c-0.2-2.3-1.3-4.4-3.1-5.8L108.5,89.7z
	 M95.2,108c-1.5,1.5-2.3,3.5-2.3,5.6c0,7.9-6.4,14.4-14.2,14.4H58.4c1.3-2.9,0.7-6.4-1.6-8.8c-3.7-3.8-6.4-8.5-7.8-13.7
	c7.6,3.2,15.8,4.9,24.2,4.9c4.4,0,8-3.6,8-8V94c0-3.3,2.6-6,5.8-6s5.8,2.7,5.8,6c0,2.5,1.2,4.9,3.2,6.4l3.8,2.9L95.2,108z"/>
<path class="st11" d="M232,128v24h-16v16h16v32h16v-32h16v-16h-16v-16h16v-16h-24C235.6,120,232,123.6,232,128z"/>
<path class="st10" d="M312,208v-96c0-13.2-10.8-24-24-24h-96c-13.2,0-24,10.8-24,24v96c0,13.2,10.8,24,24,24h96
	C301.2,232,312,221.2,312,208z M184,208v-96c0-4.4,3.6-8,8-8h96c4.4,0,8,3.6,8,8v96c0,4.4-3.6,8-8,8h-96
	C187.6,216,184,212.4,184,208z"/>
<path class="st10" d="M144,160V64c0-13.2-10.8-24-24-24H24C10.8,40,0,50.8,0,64v96c0,13.2,10.8,24,24,24h96
	C133.2,184,144,173.2,144,160z M16,160V64c0-4.4,3.6-8,8-8h96c4.4,0,8,3.6,8,8v96c0,4.4-3.6,8-8,8H24C19.6,168,16,164.4,16,160z"/>
<path class="st10" d="M456,0h-96c-13.2,0-24,10.8-24,24v96c0,13.2,10.8,24,24,24h96c13.2,0,24-10.8,24-24V24C480,10.8,469.2,0,456,0
	z M360,16h96c4.4,0,8,3.6,8,8v40h-16.8c-3.7-18.2-19.9-32-39.2-32s-35.5,13.8-39.2,32H352V24C352,19.6,355.6,16,360,16z M432,72
	c0,13.2-10.8,24-24,24s-24-10.8-24-24s10.8-24,24-24S432,58.8,432,72z M456,128h-96c-4.4,0-8-3.6-8-8V80h16.8
	c3.7,18.2,19.9,32,39.2,32s35.5-13.8,39.2-32H464v40C464,124.4,460.4,128,456,128z"/>
<rect x="232" y="328" class="st10" width="16" height="16"/>
</svg>
