<?xml version="1.0" encoding="utf-8"?>
<!-- Generator: Adobe Illustrator 24.0.3, SVG Export Plug-In . SVG Version: 6.00 Build 0)  -->
<svg version="1.1" id="OBJECTS" xmlns="http://www.w3.org/2000/svg" xmlns:xlink="http://www.w3.org/1999/xlink" x="0px" y="0px"
	 viewBox="0 0 443.8 409.4" style="enable-background:new 0 0 443.8 409.4;" xml:space="preserve">
<style type="text/css">
	.st0{fill:#FFB55C;}
	.st1{fill:#FFFFFF;}
	.st2{fill:#473A51;}
	.st3{fill:#007080;}
	.st4{fill:#E7BFA7;}
	.st5{fill:#24AECE;}
	.st6{fill:#3B160F;}
	.st7{fill:#045C69;}
	.st8{opacity:0.3;fill:#FFFFFF;}
	.st9{fill:#4C4C4C;}
	.st10{fill:#FF815F;}
</style>
<title>2357030</title>
<path class="st0" d="M229.6,233.4c0,0,3.3,32.7,30.6,40.8s42,2.9,58.2-14c0,0-4.4,33.2-22.8,45.7c0,0,43.5-5.3,57.5-50.5
	c0,0,42-3,44.2-41.8c0,0,40.5-13.8,45.7-50.6S430.3,115,406.8,101c0,0,9.5-21.1-17.3-42.1c-18.8-11-40.9,0.9-40.9,0.9
	s-10.3-36.1-60.4-37.6c-15.5,0-40.2,15.5-42.6,32.4c0,0-29.4-17.7-56.4,1.5s-19.2,54.5-10.2,70.8c0,0-28.9,28-13.3,67.8
	S229.6,233.4,229.6,233.4z"/>
<path class="st1" d="M311.3,190.1h-36.7v-3.7c0-6.2,0.7-11.3,2.1-15.2c1.4-3.9,3.5-7.5,6.3-10.7c2.8-3.2,9.1-8.9,18.9-17
	c5.2-4.2,7.8-8.1,7.8-11.7s-1-6.3-3.1-8.2c-2.1-2-5.3-2.9-9.5-2.9c-4.2-0.1-8.4,1.5-11.3,4.5c-3,3-4.9,8.3-5.7,15.8l-37.4-4.6
	c1.3-13.8,6.3-24.8,15-33.2s22.1-12.6,40.1-12.6c14,0,25.3,2.9,34,8.8c11.7,7.9,17.6,18.5,17.6,31.7c0,5.6-1.6,11.1-4.5,15.8
	c-3,5.1-9.2,11.3-18.5,18.6c-6.5,5.2-10.6,9.3-12.3,12.4S311.3,185.1,311.3,190.1z M290.7,199.9h4.6c9.6,0,17.3,7.8,17.3,17.3
	c0,0,0,0,0,0l0,0c0,9.6-7.8,17.3-17.3,17.3h-4.6c-9.6,0-17.3-7.8-17.3-17.3v0l0,0C273.3,207.6,281.1,199.9,290.7,199.9
	C290.7,199.9,290.7,199.9,290.7,199.9L290.7,199.9z"/>
<path class="st2" d="M193.6,378.8c0,0-8.7-2-12.4,0s-0.8,10.3,18.8,7.3L193.6,378.8z"/>
<path class="st2" d="M239.6,378.8c0,0,8.7-2,12.4,0s0.8,10.3-18.8,7.3L239.6,378.8z"/>
<path class="st3" d="M180.7,360.4c0,0-8.6-2-7.1,8.6c1.5,6.9,26.4,17.2,26.4,17.2v-20.7L180.7,360.4z"/>
<path class="st4" d="M211.4,313.8v6.1c0,0,4.8,6,10.4,0v-6.1C221.8,313.8,214.9,307.6,211.4,313.8z"/>
<path class="st3" d="M254,360.4c0,0,8.6-2,7.1,8.6c-1.5,6.9-26.4,17.2-26.4,17.2v-20.7L254,360.4z"/>
<path class="st5" d="M234,323l-8.3-3c-5.7-2.1-12-2.1-17.7,0l-8.4,3c0,0-12,6.6-2.2,40.8c0,0,5.9,5.2,19.4,5.2s19.4-5.2,19.4-5.2
	C246.1,329.7,234,323,234,323z"/>
<path class="st6" d="M211.1,278.7c0,0-6.1-1.8-8.9,2.1s0,9.1,0,9.1s-4.4,0.9-5.2,6.4s3.4,7.3,3.4,7.3c-1.5,2.6-1.3,5.8,0.4,8.2
	c1.8,2.5,7.7,0,7.7,0c0.2,1.5,1.2,2.7,2.7,3.2c2.5,0.9,4.8-2,4.8-2s3,4.1,9.1,2.1s5.2-6.9,5.2-6.9s4.5,0.9,6.6-2.7s-1.6-7.8-1.6-7.8
	c1.5-3.2,1.5-6.9,0-10.1c-2.5-5.3-6.4-3.4-6.4-3.4s0.5-5.2-2.7-7s-6.9,2.3-6.9,2.3s0.2-5.2-3.7-5.2
	C211.2,274.4,211.1,278.7,211.1,278.7z"/>
<path class="st7" d="M197.4,363.8c0,0-1.2,11.3,0,18.7s19.1,8.1,27.7,7.6s14.8-3.9,11.1-26.3C236.2,363.8,217.1,373.5,197.4,363.8z"
	/>
<path class="st8" d="M199.2,337.7c0.3,2.3,0.5,4.6,0.7,7l0.6,7l0.5,7c0.1,2.3,0.3,4.7,0.4,7c-0.4-2.3-0.7-4.6-1-7s-0.5-4.6-0.7-7
	s-0.3-4.7-0.4-7S199.2,340,199.2,337.7z"/>
<path class="st8" d="M234.3,337.6c0,2.3-0.1,4.7-0.1,7s-0.3,4.7-0.4,7s-0.4,4.6-0.7,7s-0.6,4.6-1,7c0.1-2.3,0.2-4.7,0.4-7l0.5-7
	l0.6-7C233.8,342.3,234,339.9,234.3,337.6z"/>
<circle class="st9" cx="32.3" cy="53.6" r="5.2"/>
<circle class="st9" cx="148.8" cy="40.3" r="8"/>
<circle class="st9" cx="189.6" cy="248.9" r="6.4"/>
<circle class="st9" cx="387.5" cy="295" r="3"/>
<path class="st9" d="M79.8,299.6c0,2.2-1.8,3.9-3.9,3.9c-2.2,0-3.9-1.8-3.9-3.9s1.8-3.9,3.9-4c0,0,0,0,0,0
	C78,295.7,79.8,297.4,79.8,299.6z"/>
<path class="st9" d="M369.1,3.9c0,2.2-1.8,3.9-3.9,3.9c-2.2,0-3.9-1.8-3.9-3.9s1.8-3.9,3.9-3.9c0,0,0,0,0,0
	C367.3,0,369.1,1.8,369.1,3.9z"/>
<path class="st10" d="M156.1,65.2L29.6,98.8c-21.2,5.7-33.9,27.5-28.2,48.7c0,0,0,0,0,0l23.1,86.9c5.4,20.4,25.8,33,46.4,28.8
	c11.2,15.9,31.1,23.6,29.1,20.8c-5.5-7.6-8.8-16.5-9.8-25.8L199.7,229c21.3-5.6,33.9-27.4,28.3-48.7c0,0,0,0,0,0l-23.2-86.9
	C199.2,72.1,177.4,59.5,156.1,65.2C156.1,65.1,156.1,65.1,156.1,65.2z"/>
<path class="st1" d="M132.5,187.3l-27.9,8.4l-0.8-2.8c-1.3-3.9-1.9-8-1.9-12.1c0.2-3.3,1-6.6,2.4-9.6c1.4-3.1,4.9-8.9,10.5-17.3
	c3-4.4,4.1-8,3.3-10.7c-0.6-2.4-2.1-4.4-4.3-5.6c-2-1-4.7-1-7.9-0.1c-3.3,0.9-6,3.1-7.6,6.1c-1.6,3-1.8,7.4-0.7,13.4l-29.6,5.1
	c-2.2-10.8-0.9-20.4,3.8-28.8c4.7-8.4,13.9-14.7,27.6-18.8c10.7-3.2,20-3.6,27.9-1.1c10.7,3.3,17.6,10,20.7,20.1
	c1.3,4.3,1.3,8.8,0.2,13.1c-1.1,4.6-4.4,10.7-9.8,18.4c-3.8,5.4-5.9,9.5-6.5,12.3C131.1,180.7,131.4,184.1,132.5,187.3z
	 M119.1,199.4l3.5-1.1c7.3-2.2,15,1.9,17.2,9.2c0,0,0,0,0,0l0,0c2.2,7.3-1.9,15-9.2,17.2c0,0,0,0,0,0l-3.6,1.1
	c-7.3,2.2-15-1.9-17.2-9.2c0,0,0,0,0,0l0,0C107.6,209.3,111.7,201.7,119.1,199.4C119,199.5,119,199.5,119.1,199.4z"/>
<path class="st9" d="M263.9,305.8c0,0.7-0.6,1.3-1.3,1.3s-1.3-0.6-1.3-1.3s0.6-1.3,1.3-1.3l0,0C263.3,304.5,263.9,305.1,263.9,305.8
	z"/>
<path class="st9" d="M364.5,328.7c0,0.7-0.6,1.3-1.3,1.3c-0.7,0-1.3-0.6-1.3-1.3s0.6-1.3,1.3-1.3l0,0
	C363.9,327.4,364.5,328,364.5,328.7z"/>
<path class="st9" d="M135.9,274.3c0,0.7-0.6,1.3-1.3,1.3s-1.3-0.6-1.3-1.3c0-0.7,0.6-1.3,1.3-1.3l0,0
	C135.3,273,135.9,273.6,135.9,274.3z"/>
<path class="st9" d="M7.7,217.2c0,0.7-0.6,1.3-1.3,1.3c-0.7,0-1.3-0.6-1.3-1.3s0.6-1.3,1.3-1.3l0,0C7.1,215.9,7.7,216.5,7.7,217.2z"
	/>
<path class="st9" d="M235.6,15.6c0,0.7-0.6,1.3-1.3,1.3s-1.3-0.6-1.3-1.3s0.6-1.3,1.3-1.3l0,0C235,14.3,235.6,14.9,235.6,15.6z"/>
<path class="st9" d="M38.8,7.9c0,0.7-0.6,1.3-1.3,1.3c-0.7,0-1.3-0.6-1.3-1.3s0.6-1.3,1.3-1.3l0,0C38.2,6.6,38.8,7.2,38.8,7.9z"/>
<path class="st9" d="M425.3,58.9c0,0.7-0.6,1.3-1.3,1.3c-0.7,0-1.3-0.6-1.3-1.3s0.6-1.3,1.3-1.3l0,0
	C424.7,57.6,425.3,58.2,425.3,58.9z"/>
<path class="st9" d="M86.2,57.6c0,0.4-0.3,0.7-0.7,0.7s-0.7-0.3-0.7-0.7s0.3-0.7,0.7-0.7l0,0C85.9,57,86.1,57.2,86.2,57.6L86.2,57.6
	z"/>
<path class="st9" d="M136.6,322.5c0,0.2-0.3,0.4-0.7,0.4s-0.7-0.2-0.7-0.4c0-0.2,0.3-0.4,0.7-0.4l0,0
	C136.3,322.2,136.5,322.3,136.6,322.5L136.6,322.5z"/>
<path class="st9" d="M33,322.9c0,0.4-0.3,0.7-0.7,0.7s-0.7-0.3-0.7-0.7s0.3-0.7,0.7-0.7l0,0C32.7,322.3,32.9,322.5,33,322.9
	L33,322.9z"/>
<path class="st9" d="M303.1,337.7c0,0.4-0.3,0.7-0.7,0.7s-0.7-0.3-0.7-0.7s0.3-0.7,0.7-0.7l0,0C302.8,337.1,303,337.3,303.1,337.7
	L303.1,337.7z"/>
<path class="st9" d="M115.4,14.3c0,0.4-0.3,0.7-0.7,0.7s-0.7-0.3-0.7-0.7s0.3-0.7,0.7-0.7l0,0C115.1,13.7,115.3,13.9,115.4,14.3
	L115.4,14.3z"/>
<path class="st9" d="M322,6.6c0,0.4-0.3,0.7-0.7,0.7s-0.7-0.3-0.7-0.7s0.3-0.7,0.7-0.7l0,0C321.7,6,321.9,6.2,322,6.6L322,6.6z"/>
</svg>
