<?xml version="1.0" encoding="utf-8"?>
<!-- Generator: Adobe Illustrator 24.1.0, SVG Export Plug-In . SVG Version: 6.00 Build 0)  -->
<svg version="1.1" id="Camada_1" xmlns="http://www.w3.org/2000/svg" xmlns:xlink="http://www.w3.org/1999/xlink" x="0px" y="0px"
	 viewBox="0 0 512 512" style="enable-background:new 0 0 512 512;" xml:space="preserve">
<style type="text/css">
	.st0{opacity:0;fill:#DEDFE3;}
	.st1{fill:#F6D842;}
	.st2{fill:#E9C338;}
	.st3{fill:#DEDFE3;}
	.st4{fill:#929292;}
	.st5{fill-rule:evenodd;clip-rule:evenodd;fill:#FFFFFF;}
	.st6{fill:#4C4C4C;}
</style>
<path id="Shape" class="st0" d="M498.3,394.8c-5.3,39.5-2.4,18-14.5,108.7H23c-12.2-91.2-9.3-70-14.5-108.7
	c-0.6-4.9,0.9-9.8,4.1-13.5s7.9-5.8,12.8-5.8h2.3L6.1,165.8c-1.1-10,2.3-20,9.3-27.3s16.8-11.1,26.8-10.5l-2.7-10.8
	c-1.9-7.7-0.2-15.8,4.6-22s12.3-9.9,20.2-9.9h9.9L66.5,66c-2.1-5.2-1.4-11.2,1.7-15.9c3.2-4.7,8.4-7.5,14.1-7.5h14.1l-4.3-10.8
	C90,26.7,90.7,20.7,93.8,16s8.4-7.5,14.1-7.5h291c5.6,0,10.9,2.8,14.1,7.5s3.8,10.6,1.7,15.9l-4.3,10.8h14.1
	c5.6,0,10.9,2.8,14.1,7.5s3.8,10.6,1.7,15.9l-7.7,19.3h9.9c7.9,0,15.3,3.6,20.2,9.9s6.6,14.3,4.6,22c-0.1,0.6-2.7,10.7-2.8,11.3
	c17.9,2.9,30.4,19.3,28.4,37.4l-21.5,209.7h10c4.9,0,9.6,2.1,12.8,5.8S498.9,389.9,498.3,394.8L498.3,394.8z"/>
<path id="Shape_2_" class="st1" d="M498.3,394.8l-4.3,31.9H12.7l-4.3-31.9c-0.6-4.9,0.9-9.8,4.1-13.5s7.9-5.8,12.8-5.8h456
	c4.9,0,9.6,2.1,12.8,5.8C497.4,385,498.9,389.9,498.3,394.8L498.3,394.8z"/>
<path id="Shape_4_" class="st2" d="M494,426.7l-10.2,76.8H23l-10.2-76.8H494z"/>
<path id="Shape_6_" class="st1" d="M467.3,117.2c-0.1,0.6-2.7,10.7-2.8,11.3c-4.6-0.7,24.3-0.4-422.3-0.4l-2.7-10.8
	c-1.9-7.7-0.2-15.8,4.6-22s12.3-9.9,20.2-9.9h378.2c7.9,0,15.3,3.6,20.2,9.9S469.2,109.5,467.3,117.2L467.3,117.2z"/>
<path id="Shape_8_" class="st3" d="M440.3,66l-7.7,19.3H74.2L66.5,66c-2.1-5.2-1.4-11.2,1.7-15.9c3.2-4.7,8.4-7.5,14.1-7.5h342.2
	c5.6,0,10.9,2.8,14.1,7.5S442.4,60.8,440.3,66z"/>
<path id="Shape_10_" class="st1" d="M414.7,31.9l-4.3,10.8h-314l-4.3-10.8C90,26.7,90.7,20.7,93.8,16c3.2-4.7,8.4-7.5,14.1-7.5h291
	c5.6,0,10.9,2.8,14.1,7.5C416.1,20.7,416.8,26.7,414.7,31.9z"/>
<path id="Shape_11_" class="st4" d="M74.2,375.5L58.7,197.7c-0.4-4.8,1.2-9.5,4.4-13s7.8-5.5,12.6-5.5h143.5
	c9.4,0,17.1,7.6,17.1,17.1v179.2H74.2z"/>
<path id="Shape_12_" class="st4" d="M442.7,221.9H287.5c-4.7,0-8.5-3.8-8.5-8.5v-25.6c0-4.7,3.8-8.5,8.5-8.5h160.3
	c2.6,0,5,1.1,6.6,3.1s2.3,4.6,1.8,7.1L451,215C450.2,219,446.7,221.9,442.7,221.9L442.7,221.9z"/>
<path id="Shape_13_" class="st5" d="M94.3,375.5l-0.3-3c-0.9-8,3.1-15.8,10.2-19.6c0.6-0.3,7.6-5.4,25.1-15.9
	c4.9-2.7,7.8-8.1,7.3-13.7l-1.5-13.4c-7.6-6-13.6-13.8-17.6-22.6c-1.2-3-0.5-2-3.1-3.9c-3.3-2.4-2.8-4.3-4.3-17.6
	c-0.3-2.3,2.1-4.4,3.4-5.9l-2.2-19.9c-0.1-3.5,0.6-26.7,33-26.7c32.2,0,38.2,22.9,39,26.5l2.3,20.1c3.3,3,4.5,4,4.7,5.8
	c1.4,12.9,2.6,15.2-0.3,17.6c-2.2,1.9-1.7,0.9-2.2,3.9c-1.8,8.6-6.2,16.5-12.5,22.6l1.5,13.4c1,5.9,4.7,11,10.1,13.6
	c0.3,0.2,28.7,15.9,29.1,16.1c7.8,3.6,13.2,11,14.3,19.5l0.3,3H94.3V375.5z"/>
<path id="Shape_14_" class="st6" d="M20.9,368.1c-12.2,3.4-20,15.3-18.3,27.9l14.5,108.7c0.6,4.2,4.2,7.4,8.4,7.4h460.8
	c4.3,0,7.9-3.2,8.5-7.4L509.3,396c1-7.4-1.3-14.9-6.3-20.4s-12.1-8.7-19.6-8.5L504,166.8c2.1-19-8.9-37.1-26.7-44l0.9-3.4
	c2.5-9.7,0.5-20.1-5.4-28.2S457.7,78,447.7,77.3l3.1-7.9c3.3-8.2,2.1-17.4-3-24.5s-13.6-11.1-22.4-10.6c2.8-7.8,1.7-16.5-3.1-23.3
	S409.8,0,401.5,0h-291c-8.3,0-16.1,4-20.9,10.8s-5.9,15.5-3.1,23.3c-8.8-0.6-17.2,3.4-22.4,10.6s-6.3,16.4-3,24.6l3.1,7.9
	c-10.2,0.7-19.6,6-25.5,14.4s-7.6,19-4.7,28.9c-21.5,4.4-36.2,24.4-33.8,46.3L20.9,368.1z M484,384c2.5,0,4.8,1.1,6.4,2.9
	c1.6,1.9,2.4,4.3,2,6.7l-3.3,24.5H119.5c-4.7,0-8.5,3.8-8.5,8.5s3.8,8.5,8.5,8.5h367.4l-8,59.7H33.1l-8-59.7h51.7
	c4.7,0,8.5-3.8,8.5-8.5s-3.8-8.5-8.5-8.5h-54l-3.3-24.5c-0.3-2.4,0.4-4.9,2-6.7c1.6-1.9,4-2.9,6.4-2.9H484z M145,322.3
	c-1.5-13.3-1-16-4.4-18.9c-6.5-5.1-11.7-11.7-15.2-19.3c-1.9-4.9-2-4.8-5.5-7.3l-1.1-10.1c4.4-5.1,3.6-3.8,0.9-27
	c0-4.3,1.6-8.5,4.5-11.7c5.5-4.6,12.7-6.9,19.9-6.2c25.3,0,29.9,16.4,30.5,18.9c2.8,25.3,1.6,22.3,7.1,27.4l1.1,9.9
	c-2.4,1.9-3.8,4.8-3.8,7.8c-1.3,6-4.2,11.5-8.4,16.1c-5.6,6.1-4.6,5-2.7,22.3c1.2,8.7,6.6,16.2,14.5,20.1
	c32.9,18.2,33.6,17.8,36.7,22.6H102.8c0.8-2.8,2.8-5.2,5.4-6.6c0.7-0.3,6.9-4.4,25.2-15.9C141.5,340.1,146,331.3,145,322.3
	L145,322.3z M190.5,329.3c-2.8-1.3-4.8-3.9-5.5-6.9l-1.1-9.5c5.9-6.6,10-14.7,11.9-23.4c3.2-3,4.7-7.3,4.3-11.6
	c-1.7-15-1.1-17.1-6.5-22l-2.1-17.7c-0.7-3.4-8-33.3-47.3-33.3c-28.4,0-42.1,16.8-41.5,36.1l1.8,16.3c-2.2,2.7-3.2,6.1-2.9,9.5
	l1.5,13c0.5,4.3,2.8,8.1,6.4,10.6c4,9.1,10,17.3,17.5,23.8l1.1,10.1c0.2,2.4-1.2,4.6-3.3,5.5l-24.6,15.6
	c-8.1,4.3-13.5,12.4-14.5,21.6c-1.5,0,0.2,13.3-15.7-169.9c-0.2-2.4,0.6-4.8,2.2-6.5c1.6-1.8,3.9-2.8,6.3-2.8H222
	c4.7,0,8.5,3.8,8.5,8.5v157.3C224.9,347.4,222.5,347,190.5,329.3L190.5,329.3z M103.5,20.8c1.6-2.4,4.2-3.8,7-3.8h291
	c2.8,0,5.5,1.4,7.1,3.8s1.9,5.3,0.8,7.9l-2.1,5.4H104.8C102.3,27.8,100.6,25.1,103.5,20.8z M84.9,51.2H427c2.8,0,5.5,1.4,7.1,3.7
	s1.9,5.3,0.9,8l-5.6,13.9H82.6L77,62.9c-1.1-2.6-0.7-5.6,0.9-8C79.5,52.6,82.1,51.2,84.9,51.2L84.9,51.2z M66.9,93.9h378.2
	c5.3,0,10.2,2.4,13.5,6.6s4.4,9.6,3.1,14.7l-1.1,4.4H51.4l-1.1-4.4c-1.3-5.1-0.2-10.5,3.1-14.7S61.6,93.9,66.9,93.9z M42.7,136.5
	h419c7.3,0,14.2,3.1,19.1,8.5s7.2,12.6,6.4,19.9l-20.8,202H247.5V196.3c0-14.1-11.5-25.6-25.6-25.6H78.4c-7.2,0-14,3-18.9,8.3
	s-7.3,12.4-6.6,19.5l14.6,168.4H38l-20.8-202c-0.8-7.2,1.6-14.4,6.4-19.8S35.4,136.5,42.7,136.5L42.7,136.5z"/>
<path id="Shape_15_" class="st6" d="M290.1,230.4h155.1c8.1,0,15.1-5.8,16.7-13.7l5.1-25.6c1-5-0.3-10.2-3.5-14.2s-8.1-6.2-13.2-6.2
	H290.1c-9.4,0-17.1,7.6-17.1,17.1v25.6C273.1,222.8,280.7,230.4,290.1,230.4z M290.1,187.7h160.3l-5.1,25.6c0,11.1,0,11.7,0,0H290.1
	V187.7z"/>
<path id="Shape_16_" class="st6" d="M281.6,273.1h17.1c4.7,0,8.5-3.8,8.5-8.5s-3.8-8.5-8.5-8.5h-17.1c-4.7,0-8.5,3.8-8.5,8.5
	S276.9,273.1,281.6,273.1z"/>
<path id="Shape_17_" class="st6" d="M443.7,256H332.8c-4.7,0-8.5,3.8-8.5,8.5s3.8,8.5,8.5,8.5h110.9c4.7,0,8.5-3.8,8.5-8.5
	S448.4,256,443.7,256z"/>
<path id="Shape_18_" class="st6" d="M281.6,315.7h85.3c4.7,0,8.5-3.8,8.5-8.5s-3.8-8.5-8.5-8.5h-85.3c-4.7,0-8.5,3.8-8.5,8.5
	S276.9,315.7,281.6,315.7z"/>
<path id="Shape_19_" class="st6" d="M435.2,298.7h-34.1c-4.7,0-8.5,3.8-8.5,8.5s3.8,8.5,8.5,8.5h34.1c4.7,0,8.5-3.8,8.5-8.5
	S439.9,298.7,435.2,298.7z"/>
</svg>
