<?xml version="1.0" encoding="utf-8"?>
<!-- Generator: Adobe Illustrator 24.0.3, SVG Export Plug-In . SVG Version: 6.00 Build 0)  -->
<svg version="1.1" id="Layer_1" xmlns="http://www.w3.org/2000/svg" xmlns:xlink="http://www.w3.org/1999/xlink" x="0px" y="0px"
	 viewBox="0 0 512 426.7" style="enable-background:new 0 0 512 426.7;" xml:space="preserve">
<style type="text/css">
	.st0{fill:#F6D842;}
	.st1{fill:#ECECEC;}
	.st2{fill:#4C4C4C;}
</style>
<path class="st0" d="M453.3,53.3H58.7C26.3,53.3,0,79.6,0,112v245.3C0,389.7,26.3,416,58.7,416h394.7c32.4,0,58.7-26.3,58.7-58.7
	V112C512,79.6,485.7,53.3,453.3,53.3z"/>
<g>
	<path class="st1" d="M304,0h-96c-20.6,0-37.3,16.7-37.3,37.3V80c0,20.6,16.7,37.3,37.3,37.3h96c20.6,0,37.3-16.7,37.3-37.3V37.3
		C341.3,16.7,324.6,0,304,0z"/>
	<path class="st1" d="M213.3,202.7c0,29.5-23.9,53.3-53.3,53.3s-53.3-23.9-53.3-53.3c0-29.5,23.9-53.3,53.3-53.3
		S213.3,173.2,213.3,202.7z"/>
	<path class="st1" d="M197.3,277.3h-74.7C90.3,277.3,64,303.6,64,336v10.7c0,8.8,7.2,16,16,16h160c8.8,0,16-7.2,16-16V336
		C256,303.6,229.7,277.3,197.3,277.3z"/>
</g>
<path class="st2" d="M453.3,426.7H58.7C26.3,426.7,0,400.4,0,368V101.3C0,69,26.3,42.7,58.7,42.7h128c8.8,0,16,7.2,16,16
	s-7.2,16-16,16h-128C44,74.7,32,86.7,32,101.4V368c0,14.7,12,26.7,26.7,26.7h394.7c14.7,0,26.7-12,26.7-26.7V101.3
	c0-14.7-12-26.7-26.7-26.7h-128c-8.8,0-16-7.2-16-16s7.2-16,16-16h128c32.4,0,58.7,26.3,58.7,58.7V368
	C512,400.4,485.7,426.7,453.3,426.7z"/>
<path class="st1" d="M304,101.3h-96c-11.8,0-21.3-9.6-21.3-21.3V37.3c0-11.8,9.6-21.3,21.3-21.3h96c11.8,0,21.3,9.6,21.3,21.3V80
	C325.3,91.8,315.8,101.3,304,101.3z"/>
<path class="st2" d="M304,117.3h-96c-20.6,0-37.3-16.7-37.3-37.3V37.3C170.7,16.7,187.4,0,208,0h96c20.6,0,37.3,16.7,37.3,37.3V80
	C341.3,100.6,324.6,117.3,304,117.3z M208,32c-2.9,0-5.3,2.4-5.3,5.3V80c0,2.9,2.4,5.3,5.3,5.3h96c2.9,0,5.3-2.4,5.3-5.3V37.3
	c0-2.9-2.4-5.3-5.3-5.3H208z"/>
<path class="st2" d="M160,256c-29.4,0-53.3-23.9-53.3-53.3s23.9-53.3,53.3-53.3s53.3,23.9,53.3,53.3S189.4,256,160,256z M160,181.3
	c-11.8,0-21.3,9.6-21.3,21.3c0,11.8,9.6,21.3,21.3,21.3s21.3-9.6,21.3-21.3S171.8,181.3,160,181.3z"/>
<path class="st2" d="M240,362.7c-8.8,0-16-7.2-16-16V336c0-14.7-12-26.7-26.7-26.7h-74.7c-14.7,0-26.7,12-26.7,26.7v10.7
	c0,8.8-7.2,16-16,16s-16-7.2-16-16V336c0-32.4,26.3-58.7,58.7-58.7h74.7c32.4,0,58.7,26.3,58.7,58.7v10.7
	C256,355.5,248.8,362.7,240,362.7z"/>
<path class="st2" d="M432,192H314.7c-8.8,0-16-7.2-16-16s7.2-16,16-16H432c8.8,0,16,7.2,16,16S440.8,192,432,192z"/>
<path class="st2" d="M432,277.3H314.7c-8.8,0-16-7.2-16-16s7.2-16,16-16H432c8.8,0,16,7.2,16,16S440.8,277.3,432,277.3z"/>
<path class="st2" d="M432,362.7H314.7c-8.8,0-16-7.2-16-16s7.2-16,16-16H432c8.8,0,16,7.2,16,16S440.8,362.7,432,362.7z"/>
</svg>
