<?xml version="1.0" encoding="utf-8"?>
<!-- Generator: Adobe Illustrator 24.1.0, SVG Export Plug-In . SVG Version: 6.00 Build 0)  -->
<svg version="1.1" id="Camada_1" xmlns="http://www.w3.org/2000/svg" xmlns:xlink="http://www.w3.org/1999/xlink" x="0px" y="0px"
	 viewBox="0 0 480 480" style="enable-background:new 0 0 480 480;" xml:space="preserve">
<style type="text/css">
	.st0{fill:#F6D842;}
	.st1{opacity:0;fill:#ECECEC;fill-opacity:0;}
	.st2{fill:#929292;}
	.st3{fill:#ECECEC;}
	.st4{fill:#4C4C4C;}
</style>
<path class="st0" d="M472,344v32c0,8.8-7.2,16-16,16H24c-8.8,0-16-7.2-16-16v-32H472z"/>
<path class="st1" d="M392,72v192c0,8.8-7.2,16-16,16H104c-8.8,0-16-7.2-16-16V72H392z"/>
<path class="st0" d="M392,24v48H88V24c0-8.8,7.2-16,16-16h272C384.8,8,392,15.2,392,24z"/>
<path class="st2" d="M328,440l24,32H128l24-32h32h112H328z"/>
<path class="st3" d="M288,392l8,48H184l8-48H288z"/>
<path class="st4" d="M456,96h-56V24c0-13.2-10.8-24-24-24H104C90.8,0,80,10.8,80,24v72H24c-13.2,0-24,10.8-24,24v256
	c0,13.2,10.8,24,24,24h158.6l-5.4,32H152c-2.5,0-4.9,1.2-6.4,3.2l-24,32c-1.8,2.4-2.1,5.7-0.7,8.4c1.3,2.7,4.1,4.4,7.1,4.4h224
	c3,0,5.8-1.7,7.1-4.4c1.4-2.7,1.1-6-0.7-8.4l-24-32c-1.5-2-3.9-3.2-6.4-3.2h-25.2l-5.4-32H456c13.2,0,24-10.8,24-24V120
	C480,106.8,469.2,96,456,96z M96,24c0-4.4,3.6-8,8-8h272c4.4,0,8,3.6,8,8v40H96V24z M96,80h288v184c0,4.4-3.6,8-8,8H104
	c-4.4,0-8-3.6-8-8V80z M324,448l12,16H144l12-16H324z M193.4,432l5.4-32h82.4l5.4,32H193.4z M464,376c0,4.4-3.6,8-8,8H24
	c-4.4,0-8-3.6-8-8v-24h448V376z M464,336H16V120c0-4.4,3.6-8,8-8h56v152c0,13.2,10.8,24,24,24h32v16H80v16h64c4.4,0,8-3.6,8-8v-24
	h48v32h16v-32h48v32h16v-32h48v24c0,4.4,3.6,8,8,8h64v-16h-56v-16h32c13.2,0,24-10.8,24-24V112h56c4.4,0,8,3.6,8,8V336z"/>
<path class="st4" d="M352,32h16v16h-16V32z"/>
<path class="st4" d="M320,32h16v16h-16V32z"/>
<path class="st4" d="M288,32h16v16h-16V32z"/>
<path class="st4" d="M194.3,122.3l-48,48c-3.1,3.1-3.1,8.2,0,11.3l48,48l11.3-11.3L163.3,176l42.3-42.3L194.3,122.3z"/>
<path class="st4" d="M285.7,122.3l-11.3,11.3l42.3,42.3l-42.3,42.3l11.3,11.3l48-48c3.1-3.1,3.1-8.2,0-11.3L285.7,122.3z"/>
<path class="st4" d="M208.4,245.3l48-144.1l15.2,5.1l-48,144.1L208.4,245.3z"/>
</svg>
