<?xml version="1.0" encoding="utf-8"?>
<!-- Generator: Adobe Illustrator 24.0.3, SVG Export Plug-In . SVG Version: 6.00 Build 0)  -->
<svg version="1.1" id="Layer_1" xmlns="http://www.w3.org/2000/svg" xmlns:xlink="http://www.w3.org/1999/xlink" x="0px" y="0px"
	 viewBox="0 0 424 374.1" style="enable-background:new 0 0 424 374.1;" xml:space="preserve">
<style type="text/css">
	.st0{fill:#F6D842;}
	.st1{fill:#4C4C4C;}
</style>
<path class="st0" d="M417,47v58.1H7V47C7,24.9,24.9,7,47,7h330C399.1,7,417,24.9,417,47z M202.8,56.7c0-8.4-6.7-15.2-15.1-15.2
	c-8.4,0-15.2,6.7-15.2,15.1s6.7,15.2,15.1,15.2l0,0C196,71.8,202.8,65.1,202.8,56.7z M134.8,56.5c0-8.4-6.7-15.2-15.1-15.2
	s-15.2,6.7-15.2,15.1s6.7,15.2,15.1,15.2l0,0C127.9,71.6,134.7,64.9,134.8,56.5L134.8,56.5z M66.7,56.3c0-8.4-6.7-15.2-15.1-15.2
	s-15.2,6.7-15.2,15.1s6.7,15.2,15.1,15.2S66.7,64.7,66.7,56.3L66.7,56.3z"/>
<g>
	<path class="st1" d="M167.3,272.1c-1.6,0-3.2-0.5-4.5-1.7l-45.3-38.6c-1.6-1.3-2.5-3.3-2.5-5.3s0.9-4,2.5-5.3l45.3-38.6
		c2.9-2.5,7.4-2.2,9.9,0.8c2.5,2.9,2.2,7.4-0.8,9.9l-39,33.2l39,33.2c2.9,2.5,3.3,6.9,0.8,9.9C171.2,271.3,169.3,272.1,167.3,272.1z
		"/>
	<path class="st1" d="M256.7,272.1c-2,0-3.9-0.8-5.3-2.5c-2.5-2.9-2.2-7.4,0.8-9.9l39-33.2l-39-33.2c-2.9-2.5-3.3-6.9-0.8-9.9
		c2.5-2.9,6.9-3.3,9.9-0.8l45.3,38.6c1.6,1.3,2.5,3.3,2.5,5.3s-0.9,4-2.5,5.3l-45.3,38.6C259.9,271.6,258.3,272.1,256.7,272.1z"/>
	<path class="st1" d="M196,301.1c-0.5,0-1-0.1-1.5-0.2c-3.8-0.8-6.2-4.5-5.4-8.3l28.2-134c0.8-3.8,4.5-6.2,8.3-5.4s6.2,4.5,5.4,8.3
		l-28.2,134C202.1,298.8,199.2,301.1,196,301.1z"/>
	<path class="st1" d="M377,374.1H47c-25.9,0-47-21.1-47-47V47C0,21.1,21.1,0,47,0h330c25.9,0,47,21.1,47,47v280.1
		C424,353,402.9,374.1,377,374.1z M47,14c-18.2,0-33,14.8-33,33v280.1c0,18.2,14.8,33,33,33h330c18.2,0,33-14.8,33-33V47
		c0-18.2-14.8-33-33-33H47z"/>
	<path class="st1" d="M417,112.1H7c-3.9,0-7-3.1-7-7s3.1-7,7-7h410c3.9,0,7,3.1,7,7C424,109,420.9,112.1,417,112.1z"/>
	<path class="st1" d="M119.6,78.6L119.6,78.6c-12.3,0-22.2-10-22.2-22.2c0-5.9,2.3-11.5,6.5-15.6c4.2-4.2,9.7-6.4,15.6-6.4h0.1
		c5.9,0,11.5,2.3,15.6,6.5c4.2,4.2,6.5,9.8,6.4,15.7l0,0C141.7,68.7,131.8,78.6,119.6,78.6z M119.6,48.3c-2.2,0-4.2,0.8-5.7,2.4
		c-1.5,1.5-2.4,3.6-2.4,5.8c0,4.5,3.6,8.2,8.1,8.2l0,0c4.5,0,8.1-3.6,8.1-8.1c0-2.2-0.8-4.2-2.4-5.8
		C123.8,49.1,121.8,48.3,119.6,48.3L119.6,48.3z M134.8,56.5L134.8,56.5L134.8,56.5z"/>
	<path class="st1" d="M51.5,78.4L51.5,78.4c-6,0-11.5-2.3-15.7-6.5s-6.5-9.8-6.4-15.7c0-12.2,10-22.1,22.2-22.1s22.1,10,22.1,22.2
		l0,0c0,5.9-2.3,11.5-6.5,15.6C63,76.1,57.4,78.4,51.5,78.4z M51.5,48.1c-4.5,0-8.1,3.6-8.1,8.1c0,2.2,0.8,4.2,2.4,5.8
		s3.6,2.4,5.8,2.4l0,0c2.2,0,4.2-0.8,5.7-2.4c1.5-1.5,2.4-3.6,2.4-5.8C59.7,51.8,56.1,48.1,51.5,48.1C51.6,48.1,51.5,48.1,51.5,48.1
		z M66.7,56.3L66.7,56.3L66.7,56.3z"/>
	<path class="st1" d="M187.7,78.8C187.6,78.8,187.6,78.8,187.7,78.8c-6,0-11.5-2.3-15.7-6.5s-6.5-9.8-6.4-15.7
		c0-12.2,10-22.1,22.2-22.1h0.1c12.2,0,22.1,10,22.1,22.2v0.1C209.7,69,199.8,78.8,187.7,78.8z M187.7,48.5c-2.2,0-4.2,0.8-5.8,2.4
		c-1.5,1.5-2.4,3.6-2.4,5.8c0,2.2,0.8,4.2,2.4,5.8c1.5,1.5,3.6,2.4,5.8,2.4l0,0c4.5,0,8.1-3.6,8.2-8.1c0,0,0,0,0-0.1
		C195.8,52.1,192.2,48.5,187.7,48.5L187.7,48.5z M202.8,56.7L202.8,56.7L202.8,56.7z"/>
</g>
</svg>
