<?xml version="1.0" encoding="utf-8"?>
<!-- Generator: Adobe Illustrator 24.0.3, SVG Export Plug-In . SVG Version: 6.00 Build 0)  -->
<svg version="1.1" id="OBJECTS" xmlns="http://www.w3.org/2000/svg" xmlns:xlink="http://www.w3.org/1999/xlink" x="0px" y="0px"
	 viewBox="0 0 339.7 287.4" style="enable-background:new 0 0 339.7 287.4;" xml:space="preserve">
<style type="text/css">
	.st0{fill:#F9DC44;}
	.st1{display:none;fill:#FFC800;}
	.st2{display:none;fill:#FF9900;}
	.st3{fill:#FFB55C;}
	.st4{fill:#FF9900;}
	.st5{fill:none;stroke:#FFFFFF;stroke-width:1.16;stroke-miterlimit:10;}
	.st6{fill:#FFFFFF;}
	.st7{fill:#B8D7E8;}
	.st8{fill:#E8F5FE;}
	.st9{fill:none;stroke:#FFFFFF;stroke-miterlimit:10;}
	.st10{fill:#F8B71F;}
	.st11{fill:#F6D842;}
	.st12{fill:none;stroke:#7F7F7F;stroke-width:1.13;stroke-miterlimit:10;}
	.st13{fill:#55C0EB;}
	.st14{fill:#A3D6E2;}
	.st15{fill:#D81313;}
	.st16{fill:none;stroke:#A3D6E2;stroke-width:3;stroke-miterlimit:10;}
	.st17{fill:none;stroke:#E8C235;stroke-width:2;stroke-miterlimit:10;}
	.st18{fill:#D1D3D4;}
	.st19{fill:none;stroke:#7F7F7F;stroke-width:5;stroke-linecap:round;stroke-linejoin:round;}
</style>
<path class="st0" d="M226.8,267.1c-13.9,7.3-29.6,10.4-45.2,8.9c-0.9-0.1-1.9-0.2-2.9-0.4c1.9-2.3,3.1-5.2,3.4-8.2
	c0.4-5.1-3.4-9.7-7.4-11.5c-3.6-1.7-7.2-1.2-9.7,1.3c-1.7,1.8-2.5,4.1-2.4,6.6c0.1,3.3,1.5,6.5,3.9,8.8c2.4,2.1,5.2,3.6,8.3,4.4
	c-2.8,2.4-6.1,4.2-9.6,5.3c-16.9,5.6-37.4,0.7-53.6-12.8c-12.6-10.6-22.7-25.8-31.8-47.9c-3-7.2-5.7-14.6-8.3-21.8
	c-3.7-10.3-7.6-20.9-12.3-31c4.2-5.5,7.1-11.8,8.6-18.5c2.5-10.7,1.9-22,1.2-32.7l-0.2-2.7c-0.7-9.7-1.5-19.8-0.1-29.5
	c0.4-2.5,0.9-4.9,1.5-7.4h-2.1c-0.6,2.3-1.1,4.7-1.4,7.1c-1.4,9.9-0.6,20.1,0.1,29.9l0.2,2.7c0.8,11,1.3,21.7-1.1,32.1
	c-1.4,6.1-4,11.9-7.6,16.9c-3.2-6.7-7.4-14.1-13.9-19.1c-6-4.6-15.6-7.2-23.2-2.8c-4.5,2.8-7.5,7.5-8,12.7
	c-0.9,6.1,1.1,12.4,5.3,16.9c7.6,7.6,21,8.8,31.3,2.7c3-1.8,5.7-4.1,8-6.7c4.5,9.8,8.2,20.1,11.8,30c2.6,7.2,5.3,14.7,8.3,21.9
	c9.2,22.4,19.5,37.9,32.4,48.7c12.1,10.1,26.6,15.6,40.4,15.6c5.2,0,10.3-0.8,15.2-2.4c4.2-1.3,8.1-3.6,11.3-6.6
	c1.5,0.3,3,0.5,4.3,0.6c16,1.5,32.1-1.6,46.3-9.1L226.8,267.1z M48.8,175.3c-9.5,5.6-22,4.6-28.9-2.4c-3.8-4.1-5.6-9.7-4.7-15.2
	c0.5-4.6,3-8.8,7-11.2c2.4-1.3,5.1-2,7.8-2c4.8,0.1,9.4,1.7,13.2,4.7c6.3,4.7,10.3,12.1,13.4,18.6l0.3,0.6
	C54.6,171.1,51.9,173.4,48.8,175.3L48.8,175.3z M176.4,275.2c-3.2-0.6-6.1-2-8.6-4.2c-2-1.9-3.2-4.6-3.3-7.3
	c-0.1-1.9,0.6-3.7,1.9-5.1c1-1.1,2.5-1.7,4-1.7c1.2,0,2.3,0.3,3.4,0.8c3.4,1.5,6.6,5.3,6.2,9.5C179.8,270.2,178.5,273,176.4,275.2
	L176.4,275.2z"/>
<title>2771233</title>
<path class="st1" d="M323.4,138.3c13.2,38.6-6.7,81.2-42.3,104.9c-37,24.7-83,25.8-126.5,22c-3.7-0.3-7.4-0.7-11.1-1.1
	c-27.4-2.9-55.5-9.3-79-23.4C39.7,225.8,9.4,197,9,167.4c-0.3-23.3,5-48,29.1-59.4c13-6.1,27.9-6.4,41.3-11.1
	c12.7-4.5,22-14.4,28.6-25.2c7.8-12.7,12.8-26.8,21.7-38.8c20.9-28.3,62.2-40.8,96.5-27.7c17.4,6.6,31,19.4,40,34.7
	c9.9,16.8,12.2,37,24.8,52.4C303,107.1,317.2,120.2,323.4,138.3z"/>
<path class="st2" d="M159.3,243c-5.8-3.5-11.3-7.6-16.9-11.8c-10.5-7.8-20.5-14-33.8-16.7c-13.5-2.8-27.7-3.1-40.6-8.4
	c-17.5-7.2-29.7-23.2-35.2-40.4s-5.1-35.6-3-53.4c-14,13.8-21.9,32.9-21.3,52c1,33,27.8,59.7,55.8,76.6c23.5,14.1,51.6,20.5,79,23.4
	c3.7,0.4,7.4,0.8,11.1,1.1c31.7,2.8,65.4,3.3,95.7-7.1c-6.4,2.2-16.1-0.4-22.7-1c-15.9-1.5-32-1.3-47.6-5.2
	C172.7,250,165.7,247,159.3,243z"/>
<path class="st1" d="M281.1,243.2c-9.1,6-18.9,10.8-29.2,14.3c-31.2,4.8-62.1-3-86.7-22.6c-15-12.2-24-31-43-36.7
	c-23-6.6-49,0.9-68-13.2c-22.7-17.7-28.6-46-23.6-72.8c2.4-1.7,4.9-3.1,7.5-4.3C51,102,65.9,101.7,79.3,97
	c12.7-4.5,22-14.4,28.6-25.2c5.6-9,9.7-18.8,14.9-28.1c2-3.7,4.3-7.3,6.8-10.7c20.9-28.3,62.2-40.8,96.5-27.7
	c12.4,4.8,23.4,12.7,31.8,23c3.1,3.7,5.8,7.6,8.2,11.7c9.9,16.8,12.2,37,24.8,52.4c12.1,14.8,26.3,27.9,32.5,46
	C336.6,176.9,316.7,219.5,281.1,243.2z"/>
<path class="st2" d="M257.9,28.2c-5.5,5.8-13.4,8.6-21.2,7.7c-4.8,5.6-13.3,6.2-18.8,1.4c-3.2-2.7-4.9-6.8-4.6-11
	c-0.6,11.1-10.9,20.8-22,20.6c-10.8-0.2-20.5-9.6-21.3-20.3c0,4.8-3.9,8.7-8.7,8.7c-2.4,0-4.7-1-6.3-2.7c-2,9-9.8,15.6-19,16
	c-4.8,0-9.5-1.7-13.2-4.9c2-3.7,4.3-7.3,6.8-10.7C150.5,4.7,191.8-7.8,226,5.2C238.4,10,249.4,17.9,257.9,28.2z"/>
<path class="st1" d="M203.8,12.4c-0.3-1.1-2-0.6-1.7,0.5c0.9,3.7-1,8-4.9,9.2c-3.5,1-7.1-0.5-8.9-3.6c-0.2-0.4-0.7-0.5-1.1-0.3
	c-0.2,0.1-0.4,0.4-0.4,0.7c-0.5,6.9-6.5,12.1-13.5,11.6c-1.1-0.1-2.3-0.3-3.3-0.7c-2.7-0.9-4.2-2.7-6.4-4.3
	c-0.1-0.2-0.4-0.2-0.6-0.1s-0.2,0.4-0.1,0.6l0,0c2.2,5.1,10.2,6.8,15,5.5c4.9-1.5,8.7-5.5,10-10.5c2.6,2.9,6.6,4,10.3,2.6
	C202.7,21.8,204.8,16.8,203.8,12.4z"/>
<path class="st2" d="M297.6,221.4c-4.1,7.1-7,13.2-13.9,18.4c-5.9,4.5-12.5,7.8-18.4,12.1c-11.8,8.4-25.2,14.4-39.4,17.5
	c-8.1,1.9-13-4.4-8.4-11c4.4-6.3,11.5-10.1,15.3-16.9c7.5-13.5-2.2-31.4,3.9-45.7c1.4-3.2,4.4-6.4,7.8-5.5c4.1,1.1,4.4,6.9,3.6,11.1
	c-1,5.4,0.7,15.1,8.4,11.6c14.1-6.4,7-31.3,4.2-41.5c-1.9-6.9-1.2-13.1-1.7-20.1c-0.2-3.6,0.7-7.8,4.1-9s6.7,1.4,8.1,4.5
	s1.4,6.6,1.9,10c0.1,1.5,0.6,2.9,1.5,4.1c0.9,1.2,2.6,1.6,4,0.9c1.2-0.8,1.4-2.5,1.4-4c0.4-8.2-0.1-16.4-1.5-24.4
	c-1.5-7.9-4.8-17.2-4.8-25.2c-0.8-4.2-1.4-9.2,1.6-12.3c3.7-3.9,10.8-2,13.9,2.4s3.5,10.1,3.6,15.5c0.5,13,2.4,26.6,1.6,39.4
	c-0.2,1,0,2.1,0.5,3c1.2,1.7,4.2,1,5.3-0.8s1-4.1,1.1-6.2s0.5-4.5,2.3-5.6c2.1-1.4,5.2-0.2,6.7,1.9s1.6,4.9,1.5,7.4
	c-0.5,12.1-3.9,25.6-13,34c-5.1,4.7-11,8.2-15.4,13.7c-4.7,5.8-5.4,12.1-6.9,19.2c2.3,1.8,5.9,0.7,8-1.3s3.6-4.8,5.7-6.8
	s5.6-3.2,8-1.5c1.6,1.4,2.3,3.5,1.9,5.6C299.5,217.8,298.7,219.7,297.6,221.4z"/>
<path class="st1" d="M302.5,158.7c-2.6,3-4.4,6.6-6.5,10l-7,11.3c-3.2,5.2-6.6,10.4-9.8,15.6c6.4-17.4,9.7-35.7,9.9-54.2
	c0.1-16.6-2-33.7-7.6-49.4c-0.1-0.2-0.3-0.4-0.6-0.3s-0.4,0.3-0.3,0.6c3.8,14.4,6.5,28.9,6.8,43.8c0.3,14.5-1.3,29-4.9,43.1
	c-1.9,7.6-4.4,15.1-7.5,22.3c-3-15.2-6.6-30.4-9.9-45.6c-0.1-0.6-1.1-0.4-1,0.3c3.2,16,6.1,32,9.8,47.9c-6.6,14.9-15.5,28.7-26.3,41
	c-0.1-12.5-2-25.4-6.4-37c-0.2-0.6-1.1-0.4-0.9,0.2c3.5,12.8,5.7,25.4,5.6,38.6l-1.1,1.2c-4.3,4.6-8.9,9-13.8,13
	c-14.1,1.5-28.4,0.8-42.4-1.9c-9.8-1.9-19.4-4.8-28.6-8.7c-9.3-3.9-18.1-8.9-27.5-12.5c-18.8-7.1-39.5-5.7-58.3-12.9
	c-16.9-6.4-31.3-17.9-41.4-32.9c-11.9-17.9-16.4-40-13.6-61.2c0.1-0.6-1-0.8-1.1-0.1c-6.4,37.1,13.3,74.8,46.5,92
	c8.3,4.2,17.1,7.1,26.3,8.6c10.6,1.9,21.4,2.7,31.9,5.4c10.7,2.7,20.4,7.9,30.4,12.6c9.1,4.3,18.6,7.7,28.4,10.2
	c15.3,3.7,31,5,46.7,3.7c-4.6,3.6-9.3,7.1-14.2,10.4c-0.1-0.4-0.5-0.6-0.9-0.5c-0.1,0-0.2,0.1-0.3,0.2c-0.7,0.9-1.5,1.7-2.1,2.6
	s0.1,2.1,1.2,1.5c7.2-4.2,14-9.1,20.3-14.6c5.8-0.6,11.6-1.6,17.2-3c1.1-0.3,0.7-2-0.5-1.8c-4.7,1.1-9.5,1.9-14.2,2.5
	c2.7-2.4,5.3-4.9,7.8-7.5c1.1-1.1,2.2-2.3,3.3-3.4c0,0.5,0.4,0.8,0.9,0.8c0.1,0,0.1,0,0.2,0l16.8-7l8.2-3.4c2.6-1.1,5.5-2,7.8-3.5
	c0.3-0.2,0.4-0.6,0.2-1c-0.2-0.2-0.4-0.3-0.7-0.3c-2.8,0.7-5.6,2.1-8.2,3.2l-8.2,3.4l-15.3,6.4c0-0.2,0-0.4,0-0.6
	c7.1-7.9,13.5-16.5,18.9-25.6c4-6.7,7.5-13.8,10.5-21c4.5-6.6,8.6-13.5,12.8-20.3l6.8-10.8c2.2-3.6,4.9-7.1,6.6-10.9
	C303.4,158.9,302.9,158.3,302.5,158.7z"/>
<path class="st1" d="M158.5,264.8c-14.9-8.1-30.6-14.7-46.9-19.5c-8.1-2.4-16.3-4.4-24.6-6.1c-8.3-1.6-16.8-3.1-25.2-3.3
	c-0.4,0-0.5,0.6-0.1,0.7c8.3,1.5,16.7,2.4,25,4.1c8.1,1.6,16.2,3.7,24.1,6.1c16.2,5,31.9,11.5,47,19.4
	C158.6,266.7,159.4,265.3,158.5,264.8z"/>
<path class="st3" d="M229.5,127v55.2c0,6.7-5.4,12.1-12.1,12.1h-81.5l-19.8,19.9v-19.9h-3.3c-6.7,0-12.1-5.4-12.1-12l0,0V127
	c0-6.7,5.4-12.1,12-12.1l0,0h104.7C224.1,114.9,229.5,120.3,229.5,127L229.5,127z"/>
<path class="st4" d="M254.3,94.5H149.6c-6.7,0-12.1,5.4-12.1,12.1l0,0v55.2c0,6.7,5.4,12.1,12.1,12.1l0,0h81.5l19.9,19.8v-19.8h3.3
	c6.7,0,12.1-5.4,12.1-12.1l0,0v-55.2C266.3,99.9,260.9,94.5,254.3,94.5L254.3,94.5z"/>
<path class="st5" d="M260.9,160.3v-50.5c0-6.1-4.9-11-11-11c0,0,0,0-0.1,0H154"/>
<path class="st6" d="M178.9,152.9c0,2.9-2.4,5.3-5.3,5.3c-2.9,0-5.3-2.4-5.3-5.3c0-2.9,2.4-5.3,5.3-5.3
	C176.6,147.6,178.9,149.9,178.9,152.9L178.9,152.9z"/>
<path class="st6" d="M207.2,152.9c0,2.9-2.4,5.3-5.3,5.3s-5.3-2.4-5.3-5.3s2.4-5.3,5.3-5.3l0,0C204.8,147.6,207.2,149.9,207.2,152.9
	L207.2,152.9z"/>
<path class="st6" d="M235.4,152.9c0,2.9-2.4,5.3-5.3,5.3s-5.3-2.4-5.3-5.3s2.4-5.3,5.3-5.3l0,0C233.1,147.6,235.4,150,235.4,152.9
	L235.4,152.9z"/>
<polygon class="st7" points="276.8,59.9 288.9,69.7 293.7,51.4 "/>
<polygon class="st8" points="311.9,47.6 258.2,78.8 224.5,22.3 "/>
<line class="st9" x1="301.8" y1="47.5" x2="250.2" y2="32"/>
<polygon class="st7" points="282.9,64.6 224.5,22.3 291.8,58.8 "/>
<rect x="30.8" y="48.9" transform="matrix(0.9444 -0.3289 0.3289 0.9444 -20.6642 28.8333)" class="st10" width="88.2" height="53.2"/>
<polyline class="st9" points="90.6,93.7 119.2,84 107.8,47.5 "/>
<polygon class="st10" points="125.4,86.2 75.3,76.6 42,115.2 "/>
<polygon class="st11" points="107.8,35.9 101.9,43.3 75.3,76.6 34.1,67 24.8,64.8 30.8,57.5 45,40.1 57.3,25 76.5,29.1 98.7,33.9 
	"/>
<polygon class="st8" points="94.8,22.7 101.9,43.3 75.3,76.6 34.1,67 26.9,46.4 "/>
<line class="st12" x1="42.1" y1="52" x2="54.9" y2="47.5"/>
<line class="st12" x1="45.2" y1="61" x2="88.8" y2="45.9"/>
<line class="st12" x1="47" y1="66.1" x2="90.6" y2="50.9"/>
<g>
	<path class="st13" d="M329.5,159.8c0.7,1.5,3.5,6.9,5.5,9.9c3.8,6,4.8,9.5,3,16.7c-1.9,7.4-5.2,14.4-8.5,21.3
		c-7.1,14.3-16.6,27.3-28.2,38.3c-32.3,31-65.4,27.6-71.1,28.8s-16.1-11.1-16.1-11.1c8.1-5.7,23-11.6,30.3-14.3c0,0,5.4,17,32.1-4.5
		s49.9-47.8,34.9-57C316.3,176.5,329.5,159.8,329.5,159.8z"/>
	<path class="st9" d="M299.8,239.3c0,0,27.7-26.6,35.7-61.6"/>
	<path class="st14" d="M311.3,187.9L311.3,187.9c15,9.3-8.2,35.6-34.9,57s-32.1,4.5-32.1,4.5l0,0c2.6-1,4.2-1.5,4.2-1.5
		c10.9,13.5,54.1-36.7,60.1-43.9s1-11.8,1-11.8L311.3,187.9z"/>
	<path class="st15" d="M311.3,187.9l-1.5,4.3C310.2,190.7,310.7,189.2,311.3,187.9z"/>
	<path class="st13" d="M214.1,263.6l-6.2-10.1c-2.4-3.9-1.4-9.1,2.3-11.8c5.9-4.3,15-10.1,23.7-12.1c4.4-1,8.9,1.4,10.4,5.7
		l4.4,12.5L214.1,263.6z"/>
	<path class="st13" d="M309.8,192.1l-7.6-4.4c-2.4-1.4-3.7-3.9-3.6-6.6c0.5-7,3-20.3,15.1-27.3c2.4-1.4,5.4-1.2,7.6,0.3l8.1,5.6
		c-0.3,1.5-0.9,3.5-1.8,5.8c-1.7,4.4-3.7,7.6-6.3,11.4C318.6,180.9,314.7,186.1,309.8,192.1z"/>
	<path class="st16" d="M248.6,247.8c-10.5,7.3-22.1,12.7-34.5,15.8"/>
	<path class="st16" d="M309.8,192.1c0,0,18-17,19.7-32.3"/>
</g>
<path class="st17" d="M297.9,73.7c6.4,6.2,10.4,14.4,11.4,23.2c0.5,4.7,0.1,9.7-2.2,13.9s-6.7,7.4-11.5,7.4s-9.5-3.9-9.7-8.6
	c-0.2-5.2,5.1-9.6,10.3-9.7s10.1,3,13.6,6.9c9.2,10.2,10.4,26.8,2.8,38.2"/>
<circle class="st13" cx="63.2" cy="237.3" r="42"/>
<path class="st9" d="M63.2,198.9c21.3,0,38.5,17.2,38.5,38.5l0,0"/>
<circle class="st6" cx="63.2" cy="237.3" r="33.8"/>
<path class="st18" d="M63.2,203.5c-9.6,0-18.7,4.1-25.2,11.2c13.9-12.5,35.3-11.3,47.8,2.6c11.5,12.9,11.5,32.3,0,45.2
	c13.9-12.5,15-33.9,2.6-47.8C82,207.6,72.8,203.5,63.2,203.5L63.2,203.5z"/>
<polyline class="st19" points="64.4,214 64.4,239.1 82.5,239.1 "/>
</svg>
