<?xml version="1.0" encoding="utf-8"?>
<!-- Generator: Adobe Illustrator 24.0.3, SVG Export Plug-In . SVG Version: 6.00 Build 0)  -->
<svg version="1.1" id="Camada_1" xmlns="http://www.w3.org/2000/svg" xmlns:xlink="http://www.w3.org/1999/xlink" x="0px" y="0px"
	 viewBox="0 0 264.8 242.5" style="enable-background:new 0 0 264.8 242.5;" xml:space="preserve">
<style type="text/css">
	.st0{fill:#CFCECE;}
	.st1{fill:#DCDCDC;}
	.st2{fill:#A7A7A7;}
	.st3{fill:#2A2F36;}
	.st4{fill:#4C4C4C;}
	.st5{fill:#C9C8C8;}
	.st6{opacity:3.000000e-02;fill:#FFFFFF;enable-background:new    ;}
	.st7{clip-path:url(#SVGID_2_);}
	.st8{fill:#E7BFA7;}
	.st9{fill:#757474;}
	.st10{fill:#003F47;}
	.st11{fill:#045C69;}
	.st12{fill:#007080;}
	.st13{fill:#8CCECD;}
	.st14{fill:#51BBB5;}
	.st15{fill:#FAC98C;}
	.st16{fill:#3B160F;}
	.st17{fill:#CE9E81;}
	.st18{fill:#A56153;}
	.st19{fill:url(#SVGID_3_);}
	.st20{fill:#5B5B5A;}
	.st21{fill:none;stroke:#4B2B19;stroke-width:0.41;stroke-miterlimit:10;}
	.st22{fill:url(#SVGID_4_);}
	.st23{fill:#0F7EC2;}
	.st24{fill:#FFFFFF;}
	.st25{fill:#E50756;}
	.st26{fill:#BCBCBC;}
	.st27{fill:#FF6633;}
	.st28{fill:#E8F5FE;}
	.st29{fill:#ADD1E3;}
	.st30{fill:#B6B6B6;}
	.st31{fill:#F8B71F;}
	.st32{fill:#066A6F;}
	.st33{fill:#00AAB2;}
	.st34{fill:#EB673A;}
	.st35{fill:#F6BBC0;}
	.st36{fill:#F4AFB7;}
	.st37{fill:#F1949E;}
	.st38{fill:#55C0EB;}
	.st39{fill:#F3F3F3;}
	.st40{fill:#415A6B;}
	.st41{opacity:4.000000e-02;fill:#FFFFFF;}
	.st42{opacity:4.000000e-02;fill:#FCFCFC;}
	.st43{fill:#727272;}
</style>
<title>person</title>
<ellipse class="st0" cx="139" cy="213.9" rx="59.1" ry="2.3"/>
<polygon class="st1" points="124.2,194.2 153.6,194.2 158.6,212.1 119.2,212.1 "/>
<polygon class="st2" points="124.2,194.2 153.6,194.2 154.9,198.9 122.8,198.9 "/>
<polygon class="st2" points="158.6,212.1 119.2,212.1 120.2,208.6 157.6,208.6 "/>
<path class="st1" d="M164.2,213.6h-50.4l0,0v-0.2c0-1.4,1.1-2.6,2.6-2.6l0,0h45.3c1.4,0,2.6,1.1,2.6,2.6l0,0
	C164.2,213.5,164.2,213.6,164.2,213.6z"/>
<path class="st1" d="M212.6,182.5v9.1c0,2.2-1.8,3.9-3.9,3.9H69.1c-2.2,0-3.9-1.8-3.9-3.9v-9.1H212.6z"/>
<path class="st3" d="M65.2,98.6c0-2.2,1.8-3.9,3.9-3.9h139.6c2.2,0,3.9,1.8,3.9,3.9v83.8H65.2V98.6z"/>
<rect x="70.5" y="99.9" class="st4" width="136.9" height="77.2"/>
<path class="st5" d="M136.3,188.6c0,1.3,1,2.3,2.3,2.3c1.3,0,2.3-1,2.3-2.3c0-1.3-1-2.3-2.3-2.3l0,0
	C137.3,186.3,136.3,187.4,136.3,188.6z"/>
<path class="st6" d="M65.2,98.6c0-2.2,1.8-3.9,3.9-3.9h139.6c1.1,0,2.1,0.4,2.8,1.2L65.2,176V98.6z"/>
<g>
	<defs>
		<rect id="SVGID_1_" x="86.5" y="54.2" width="101.4" height="122.9"/>
	</defs>
	<clipPath id="SVGID_2_">
		<use xlink:href="#SVGID_1_"  style="overflow:visible;"/>
	</clipPath>
	<g class="st7">
		<path class="st8" d="M99.2,98.2c-0.5-1.1-0.8-2.3-0.8-3.6c0-1.4-0.5-1.5-1.1-0.9s-0.1,2.2,0.1,2.5S99.2,98.2,99.2,98.2z"/>
		<polygon class="st9" points="87.2,88 98.4,101.6 100.8,99.9 90.3,86.9 		"/>
		<path class="st8" d="M92.7,94c-2.3,2.8-1.8,5.4-0.3,7.2s3.2,1.3,5,2.1c1.1,0.4,2,1.3,2.4,2.4l2.1-1.1c0-1.4-0.2-2.8-0.5-4.2
			c-0.2-0.7-0.9-1.1-1.6-1c-0.1,0-0.3,0.1-0.4,0.2c-0.7,0.4-1.3,0.7-1.3,0.7L97,99.2c0.9-1,0.8-2.5-0.2-3.4
			C95.2,93.9,93.4,93.1,92.7,94z"/>
		<path class="st10" d="M150.9,237.1c0,0,2.3,4.6,1.1,5.1s-6.6,0.5-6-0.9c0.8-1.5,1.8-2.8,2.9-4.1L150.9,237.1z"/>
		<path class="st10" d="M134.1,236.6c1.5,2.1,3.4,5.2,1.4,5.4s-9.7,0.7-10.4-0.5c-0.4-0.7,1.9-1.2,3.8-1.5s1.5-3,1.5-3L134.1,236.6z
			"/>
		<path class="st11" d="M114.6,192.8c1.2-6.3,5.7-29.5,8-41.5c3.7,7.5,12.9,9.8,18.2,12.2c-4.5,11.9-10.7,28.1-12.1,32.4
			c-0.6,1.6-0.6,3.4,0,5c0.7,2.2,7.3,36.3,7.3,36.3l-7.4,1.6c0,0-12.6-33.4-13.7-36.9C114,198.9,113.9,195.8,114.6,192.8z"/>
		<path class="st12" d="M122.3,145.1c0.4,0.1,26.4,2.9,30.6,3.3c0.8-0.1,1.5-0.2,2-0.2l-2,90.4l-6.4-0.8c0,0-6.2-63.4-7.5-74.8
			c-0.1,0-14.6-2.9-16.5-11.6C122.2,149.2,122.1,147.1,122.3,145.1z"/>
		<path class="st13" d="M136.1,93.8c-6.5,1-11,3.5-14,9.4c-2.6,5.2-6.3,13.6-6.8,14.6s-1.4,0.8-2.3-0.2S102.1,103,102.1,103
			c-1.5,0.5-2.7,1.5-3.5,2.9c4,9.2,10,21.4,11.1,23c1.1,1.6,3.9,1.7,5.4,0.9s11.7-8,11.7-8S135.2,97.6,136.1,93.8z"/>
		<path class="st14" d="M144.7,93.6c6.3,1,11.5,2.2,11.8,6.9s-0.7,48.5-0.7,48.5s-24.2,3.5-33.4-4.3c0.9-13.1,3.7-37.4,4.3-43
			S133.7,91.8,144.7,93.6z"/>
		<path class="st15" d="M163.8,133.8c-0.3,0.3-7.2,1.2-7.2,1.2l-4.4,3l-2.9,3.7l0.4,0.9l3.2-2.8l2.5-1.6l-3.6,3.9l-4.9,5l0.8,0.9
			l6.4-5.1l-5.3,6l0.5,0.3l5.8-4.8l-3.2,4.7l0.9,0.2l3.7-4l-1.9,2.5h0.7l4.5-5.5l5.2-7.2L163.8,133.8z"/>
		<path class="st13" d="M147.8,94.2c7.7,0.9,11.5,3,20.4,9.2c5.6,3.9,14.5,10.5,15.7,12s0.7,4.4-1.1,6.7s-19.2,16.2-19.2,16.2
			l-3.1-4.6c0,0,10-10.2,11.1-11.7s0.9-2.6-0.1-3.2s-12.4-6-16.9-7.8C152.9,110.4,146.4,98.2,147.8,94.2z"/>
		<path class="st16" d="M132,89.8c0,0-6.2-6.9-6.4-16.3c-0.2-10.2,6-14.5,13.8-14.7c8.6-0.1,12.5,2.7,15.2,8.2
			c2.4,4.9,1.6,10-0.4,14.6C151.3,88.8,144.7,90.2,132,89.8z"/>
		<path class="st8" d="M137.9,93.9c0,0-0.1,3.6-0.1,4.2s6.6,2.1,7-1.7c0.2-1.4,0.1-3.6,0.1-3.6C142.7,93.8,140.3,94.1,137.9,93.9z"
			/>
		<path class="st17" d="M144.9,92.8l0.1-4.2l-7-0.2l-0.1,5.5C140.3,94.1,142.7,93.8,144.9,92.8z"/>
		<path class="st8" d="M127.1,74.4c0,8.8-0.8,11.8,0.6,14.3c1.3,2.4,5.3,5.7,14.5,3.4c6.6-1.7,8.3-6.7,8.3-6.7
			c0.6,0.3,1.3,0.5,2,0.4c1.3-0.2,2.2-1.4,2.1-2.7c-0.2-2.3-1.2-3-2.1-3.3c-1-0.2-2.1,0.2-2.7,1.1c0-1.9-0.1-3.9-0.4-5.8
			c-0.4-2.5-0.8-5-12.4-5.8c-2.9-0.2-6.8-0.2-8.3,0.5S127.1,72,127.1,74.4z"/>
		<path class="st18" d="M134.3,81.1c-0.4-0.1-0.9-0.2-1.3-0.2c-0.4,0-0.8,0.1-1.2,0.3c-0.3,0.2-0.2,0.7,0.1,1c0.3,0.3,0.6,0.6,1,0.8
			c-0.4-0.2-0.8-0.4-1.1-0.7c-0.2-0.2-0.3-0.4-0.3-0.6c-0.1-0.3,0-0.5,0.2-0.7c0.4-0.3,0.9-0.4,1.3-0.3
			C133.5,80.7,133.9,80.9,134.3,81.1z"/>
		<path class="st18" d="M141,84.9c0.1,0.5,0,1.1-0.4,1.5c-0.4,0.4-0.9,0.7-1.4,0.8c-0.5,0.1-1.1,0-1.6-0.1c-0.2-0.1-0.5-0.2-0.7-0.2
			l-0.7-0.3c0.5,0.1,1,0.3,1.5,0.3c0.5,0.1,1,0.1,1.5,0c0.5-0.1,0.9-0.3,1.3-0.6C140.8,85.9,141,85.4,141,84.9z"/>
		
			<linearGradient id="SVGID_3_" gradientUnits="userSpaceOnUse" x1="-8217.1113" y1="381.2403" x2="-8218.5615" y2="377.8802" gradientTransform="matrix(0.99 -0.13 -0.13 -0.99 8323.3203 -617.41)">
			<stop  offset="0" style="stop-color:#C8916A"/>
			<stop  offset="1" style="stop-color:#C8916A;stop-opacity:0"/>
		</linearGradient>
		<path class="st19" d="M135.6,75.9c-0.3,1-1.2,4.1,1.7,4.7s2.7-3.1,2.7-3.1C138.5,76.9,137,76.3,135.6,75.9z"/>
		<path class="st20" d="M136.2,75.8c3.4,0.7,5.1,2.2,2.9,2S134,75.3,136.2,75.8z"/>
		<path class="st21" d="M135.7,80.5c0.5-1.2,1.8-1,2.2,0.2"/>
		
			<linearGradient id="SVGID_4_" gradientUnits="userSpaceOnUse" x1="-8225.4404" y1="375.561" x2="-8224.8906" y2="372.091" gradientTransform="matrix(0.99 -0.13 -0.13 -0.99 8323.3203 -617.41)">
			<stop  offset="0" style="stop-color:#C8916A"/>
			<stop  offset="1" style="stop-color:#C8916A;stop-opacity:0"/>
		</linearGradient>
		<path class="st22" d="M132,75.8c0.3,0.8,1.2,3.7-1,4.4s-2.4-3-2.4-3S130.9,76.1,132,75.8z"/>
		<path class="st20" d="M131.4,75.7c-2.5,0.4-4,2.1-1.8,1.5S132.7,75.4,131.4,75.7z"/>
		<path class="st21" d="M130.1,80c0.4-1.4,2-1.2,2.1-0.1"/>
		<path class="st16" d="M149.9,72.1c-1.3,1.3-4.6,1.9-7.3,1.9c-12.2,0-14.7-3.4-15.1-3.8l1.9-4.6C136.9,63,145.3,65.6,149.9,72.1z"
			/>
	</g>
</g>
<path class="st23" d="M62.9,60h47.5c0.9,0,1.6,0.7,1.6,1.6v13.1c0,0.9-0.7,1.6-1.6,1.6H62.9c-0.9,0-1.6-0.7-1.6-1.6V61.7
	C61.3,60.8,62,60,62.9,60z"/>
<path class="st24" d="M71.6,65.7c0,1-0.8,1.8-1.8,1.8c-1,0-1.8-0.8-1.8-1.8s0.8-1.8,1.8-1.8S71.6,64.7,71.6,65.7L71.6,65.7z"/>
<path class="st24" d="M73.9,72.2h-8.5c-0.1-2.4,1.7-4.4,4.1-4.5c2.4-0.1,4.4,1.7,4.5,4.1C73.9,71.9,73.9,72.1,73.9,72.2z"/>
<path class="st25" d="M75.6,71.9c0,1.1-0.9,2-2,2s-2-0.9-2-2s0.9-2,2-2S75.6,70.8,75.6,71.9z"/>
<path class="st24" d="M81.9,63.3h7.9c0.7,0,1.2,0.5,1.2,1.2v5.9c0,0.7-0.5,1.2-1.2,1.2h-7.9c-0.7,0-1.2-0.5-1.2-1.2v-5.9
	C80.7,63.8,81.2,63.3,81.9,63.3z"/>
<polygon class="st24" points="82.7,71.3 81.8,73.6 84.6,71.4 "/>
<rect x="82.4" y="66" class="st26" width="6.8" height="0.5"/>
<rect x="82.4" y="67.2" class="st26" width="6.8" height="0.5"/>
<rect x="82.4" y="68.5" class="st26" width="6.8" height="0.5"/>
<path class="st24" d="M97.5,66h0.8c0.4,0,0.7,0.3,0.7,0.7v4c0,0.4-0.3,0.7-0.7,0.7h-0.8c-0.4,0-0.7-0.3-0.7-0.7v-4
	C96.8,66.3,97.1,66,97.5,66z"/>
<path class="st24" d="M99.8,70.5v-3.8c0-0.6,0.8-1.2,1.5-1.8c0.5-0.5,0.7-1.1,0.6-1.8c0-0.4,0.4-0.5,1-0.1c0.6,0.8,0.6,1.9,0.1,2.7
	h3.3c0.6,0,1.1,1.1,0,1.6c0.5,0.2,0.3,1.3-0.6,1.4c0.8,0.1,0.8,1.4-0.4,1.4c0.6,0.1,0.6,1-0.6,1h-4C100.2,71.3,99.9,70.9,99.8,70.5z
	"/>
<path class="st23" d="M89.9,76.1l3.5,3.7c0.2,0.3,0.7,0.3,0.9,0.1c0,0,0,0,0.1-0.1l3.8-3.8L89.9,76.1z"/>
<path class="st27" d="M127.7,39.3c-0.8,0-1.6,0.4-2.1,1.1c-0.9-1.1-2.5-1.3-3.6-0.5c-0.6,0.5-1,1.2-1,2c0,2.8,4.6,5.1,4.6,5.1
	s4.6-2.2,4.6-5.1C130.2,40.4,129.1,39.3,127.7,39.3C127.7,39.3,127.7,39.3,127.7,39.3z"/>
<path class="st27" d="M232.6,155.2c-1.1-0.6-2.4-0.6-3.5-0.1c-0.2-2.1-2.2-3.7-4.3-3.4c-1.3,0.1-2.4,0.9-3,2
	c-2.1,3.8,2.5,10.1,2.5,10.1s7.8,0.4,9.9-3.4C235.1,158.6,234.4,156.2,232.6,155.2z"/>
<path class="st27" d="M35.8,73.7c-1.7-0.1-3.4,0.5-4.5,1.9c-1.5-2.5-4.8-3.3-7.3-1.8c-1.5,0.9-2.4,2.4-2.6,4.1
	c-0.5,6,8.8,11.4,8.8,11.4s10-3.8,10.5-9.8C41,76.5,38.8,73.9,35.8,73.7C35.9,73.7,35.9,73.7,35.8,73.7z"/>
<path class="st28" d="M69.4,44.7l20.5-6.6c0.9-0.3,1.4-1.2,1.1-2.1c0,0,0,0,0,0l-7.4-22.7c-3.1-1.6-5.2-2.8-8.2-4.3L59.5,14
	c-0.9,0.3-1.4,1.2-1.1,2.1l8.9,27.4C67.6,44.4,68.5,44.9,69.4,44.7C69.4,44.7,69.4,44.7,69.4,44.7z"/>
<path class="st29" d="M76.9,13.5c0.3,0.9,1.3,1.4,2.2,1.1l4.5-1.4c-3-1.5-5.2-2.8-8.1-4.2L76.9,13.5z"/>
<rect x="67.2" y="22.7" transform="matrix(0.9515 -0.3077 0.3077 0.9515 -3.5742 23.8059)" class="st30" width="13" height="1.2"/>
<rect x="68" y="25" transform="matrix(0.9515 -0.3077 0.3077 0.9515 -4.2534 24.1519)" class="st30" width="13" height="1.2"/>
<rect x="68.7" y="27.3" transform="matrix(0.9515 -0.3077 0.3077 0.9515 -4.9299 24.4942)" class="st30" width="13" height="1.2"/>
<rect x="69.5" y="29.6" transform="matrix(0.9515 -0.3077 0.3077 0.9515 -5.6065 24.8366)" class="st30" width="13" height="1.2"/>
<path class="st4" d="M109,35.6c0,0.7-0.6,1.3-1.3,1.3c-0.7,0-1.3-0.6-1.3-1.3c0-0.7,0.6-1.3,1.3-1.3c0,0,0,0,0,0
	C108.4,34.3,109,34.9,109,35.6z"/>
<path class="st4" d="M149.6,51.3c0,0.3-0.2,0.6-0.6,0.6c-0.3,0-0.6-0.2-0.6-0.6c0,0,0,0,0,0c0-0.3,0.2-0.6,0.6-0.6
	C149.4,50.8,149.6,51,149.6,51.3C149.6,51.3,149.6,51.3,149.6,51.3z"/>
<path class="st4" d="M199,23.8c0,1.2-1,2.2-2.2,2.2s-2.2-1-2.2-2.2s1-2.2,2.2-2.2S199,22.5,199,23.8z"/>
<path class="st4" d="M246.8,60.2c0,0.5-0.4,0.9-0.9,0.9s-0.9-0.4-0.9-0.9c0-0.5,0.4-0.9,0.9-0.9S246.8,59.6,246.8,60.2L246.8,60.2z"
	/>
<path class="st4" d="M215.8,79.3c0,0.9-0.8,1.7-1.7,1.7c-0.9,0-1.7-0.8-1.7-1.7c0-0.9,0.8-1.7,1.7-1.7c0,0,0,0,0,0
	C215.1,77.6,215.8,78.3,215.8,79.3z"/>
<path class="st4" d="M231.4,130.6c0,0.7-0.6,1.3-1.3,1.3c-0.7,0-1.3-0.6-1.3-1.3s0.6-1.3,1.3-1.3c0,0,0,0,0,0
	C230.8,129.3,231.4,129.9,231.4,130.6z"/>
<path class="st4" d="M264.8,114.3c0,1.5-1.2,2.6-2.6,2.6c-1.5,0-2.6-1.2-2.6-2.6c0-1.5,1.2-2.6,2.6-2.6c0,0,0,0,0,0
	C263.6,111.7,264.8,112.9,264.8,114.3C264.8,114.3,264.8,114.3,264.8,114.3z"/>
<path class="st4" d="M47.3,160.4c0,0.7-0.6,1.3-1.3,1.3c-0.7,0-1.3-0.6-1.3-1.3c0-0.7,0.6-1.3,1.3-1.3
	C46.7,159.1,47.3,159.7,47.3,160.4C47.3,160.4,47.3,160.4,47.3,160.4z"/>
<path class="st4" d="M10.5,160.1c0,1.3-1,2.3-2.3,2.3c-1.3,0-2.3-1-2.3-2.3c0-1.3,1-2.3,2.3-2.3C9.5,157.8,10.5,158.8,10.5,160.1
	L10.5,160.1z"/>
<circle class="st4" cx="1" cy="102.2" r="1"/>
<path class="st4" d="M45,48c0,1.7-1.3,3-3,3s-3-1.3-3-3s1.3-3,3-3S45,46.3,45,48z"/>
<path class="st4" d="M39.7,4.6c0,0.4-0.3,0.7-0.7,0.7S38.3,5,38.3,4.6s0.3-0.7,0.7-0.7l0,0C39.4,3.9,39.7,4.2,39.7,4.6
	C39.7,4.6,39.7,4.6,39.7,4.6z"/>
<path class="st4" d="M103.9,2.3c0,1.3-1,2.3-2.3,2.3c-1.3,0-2.3-1-2.3-2.3c0-1.3,1-2.3,2.3-2.3C102.9,0,103.9,1,103.9,2.3
	C103.9,2.3,103.9,2.3,103.9,2.3z"/>
<circle class="st4" cx="209.7" cy="3.6" r="1.3"/>
<g>
	<path class="st23" d="M31,116.7c-1.5,0.1-2.7,0.7-3.7,1.7c-1,1.1-1.4,2.4-1.4,3.8s0.7,2.7,1.7,3.7c1.1,1,2.4,1.4,3.8,1.4
		c1.5-0.1,2.7-0.7,3.7-1.7c1-1.1,1.4-2.4,1.4-3.8c-0.1-1.5-0.7-2.7-1.7-3.7C33.7,117.1,32.4,116.7,31,116.7z"/>
	<path class="st23" d="M46.1,123c-0.3-0.3-0.7-0.5-1.1-0.8c-0.4-0.3-0.9-0.5-1.3-0.7c-0.4-0.2-0.9-0.3-1.4-0.5
		c-0.5-0.1-1-0.2-1.4-0.1c-0.5,0-0.9,0.2-1.4,0.4c-0.5,0.2-0.9,0.6-1.3,1c-0.2,0.2-0.2,0.4-0.3,0.9c0,0.3-0.1,0.7-0.2,1.1
		c-0.1,0.3-0.2,0.7-0.4,1.2c-0.2,0.5-0.5,0.9-0.8,1.2c-0.3,0.3-0.7,0.7-1.1,0.9c-0.4,0.3-0.8,0.4-1.2,0.5c-0.4,0.1-0.7,0.2-1,0.3
		c-0.5,0.1-0.7,0.2-0.8,0.4c-0.4,0.4-0.7,0.9-0.9,1.4c-0.2,0.5-0.3,1-0.3,1.4c0,0.5,0.1,0.9,0.3,1.4c0.2,0.5,0.3,0.9,0.6,1.3
		c0.2,0.4,0.5,0.8,0.8,1.2c0.3,0.4,0.6,0.8,0.9,1.1c0.3,0.3,0.6,0.6,0.9,0.9c0.9,0.8,1.8,1.1,2.8,1.1c1-0.1,1.9-0.5,2.6-1.4l7.1-7.8
		c0.8-0.8,1.1-1.8,1.1-2.8c0-1-0.5-1.9-1.3-2.7C46.7,123.5,46.4,123.2,46.1,123z"/>
</g>
<g>
	<path class="st23" d="M215.3,36.7l-3.5,9.7c-0.2,0.7,0.1,1.4,0.8,1.7l3.6,1.3l4.4-12.2l-3.6-1.3C216.3,35.7,215.5,36,215.3,36.7z"
		/>
	<path class="st23" d="M232.5,42.9l-3.6-1.3c-0.3-0.1-0.4-0.4-0.4-0.5c0-0.1,0-0.4,0.2-0.6l2.1-1.8c0.5-0.4,0.7-1,0.7-1.6
		c0-0.6-0.3-1.1-0.9-1.5l-0.8-0.5c-0.2-0.1-0.5-0.1-0.7,0l-6.8,3.6c-0.7,0.4-1.2,1-1.5,1.8l-2.3,6.4c-0.6,1.7,0.3,3.5,1.9,4.1l6,2.2
		c1.4,0.5,2.9,0,3.7-1.2l3.4-5.5c0.1-0.2,0.2-0.3,0.2-0.5C234.4,44.7,233.7,43.3,232.5,42.9L232.5,42.9z"/>
</g>
<path class="st31" d="M38,24.5l-14-6.9l2.5,6.4l-2.1,0.8c-6.5,2.5-9.7,9.8-7.2,16.3l1.3,3.4l0.5-1.4c1.8-4.7,5.5-8.4,10.2-10.2
	l0.6-0.2l2.5,6.4L38,24.5z"/>
<path class="st4" d="M8.9,54.2c0,0.4-0.3,0.7-0.7,0.7s-0.7-0.3-0.7-0.7c0-0.4,0.3-0.7,0.7-0.7l0,0C8.6,53.5,8.9,53.8,8.9,54.2
	C8.9,54.2,8.9,54.2,8.9,54.2z"/>
<path class="st4" d="M227.9,186.3c0,0.4-0.3,0.7-0.7,0.7c-0.4,0-0.7-0.3-0.7-0.7c0-0.4,0.3-0.7,0.7-0.7l0,0
	C227.6,185.6,227.9,185.9,227.9,186.3C227.9,186.3,227.9,186.3,227.9,186.3z"/>
<path class="st4" d="M256.2,149.3c0,0.4-0.3,0.7-0.7,0.7c-0.4,0-0.7-0.3-0.7-0.7c0-0.4,0.3-0.7,0.7-0.7l0,0
	C255.9,148.7,256.1,148.9,256.2,149.3C256.2,149.3,256.2,149.3,256.2,149.3z"/>
<g>
	<g>
		<g>
			<path class="st32" d="M244.9,85.2c0-0.1,0-0.2-0.1-0.4c-0.1-0.1-0.2-0.2-0.3-0.2c0,0,0,0,0,0l-2.7-0.4c-0.2,0-0.5,0.1-0.5,0.4
				c0,0.2,0.1,0.5,0.4,0.5l1.7,0.2l-5,3.7l-1.4-1.9c-0.1-0.1-0.2-0.2-0.3-0.2c-0.1,0-0.2,0-0.3,0.1l-9.1,6.8
				c-0.2,0.1-0.2,0.4-0.1,0.6c0.1,0.1,0.2,0.2,0.3,0.2c0.1,0,0.2,0,0.3-0.1l8.7-6.5l1.4,1.9c0.1,0.2,0.4,0.2,0.6,0.1l5.4-4l-0.2,1.5
				c0,0.2,0.1,0.5,0.4,0.5c0.2,0,0.5-0.1,0.5-0.4L244.9,85.2C244.9,85.2,244.9,85.2,244.9,85.2z"/>
		</g>
	</g>
	<g>
		<g>
			<circle class="st32" cx="225.8" cy="95.6" r="0.4"/>
		</g>
	</g>
	<path class="st33" d="M242.8,106.6l-1-0.1l2-14.1c0.1-0.7-0.4-1.3-1-1.4l-2.2-0.3c-0.7-0.1-1.3,0.4-1.4,1l-2,14.1l-2.5-0.4l1.1-7.7
		c0.1-0.7-0.4-1.3-1-1.4l-2.2-0.3c-0.7-0.1-1.3,0.4-1.4,1l-1.1,7.7l-2.5-0.4l0.6-4c0.1-0.7-0.4-1.3-1-1.4l-2.2-0.3
		c-0.7-0.1-1.3,0.4-1.4,1l-0.6,4l-1-0.1c-0.2,0-0.5,0.1-0.5,0.4s0.1,0.5,0.4,0.5l20.5,3c0.2,0,0.5-0.1,0.5-0.4
		S243.1,106.7,242.8,106.6z"/>
</g>
<g>
	<path class="st34" d="M183.3,84.2c-0.4-0.3-0.7-0.6-0.9-1.1c-0.4-0.9-0.7-1.8-1.1-2.6c-0.1-0.3-0.2-0.6-0.4-0.9
		c-0.3-0.5-0.7-0.9-1.3-1.1c-1-0.3-2.1-0.6-3.1-0.9c-0.4-0.1-0.7-0.3-1-0.4c-0.4-0.2-0.8-0.5-1.1-0.9c-0.4-0.4-0.7-0.9-1-1.5
		c-0.2-0.5-0.3-1.1-0.3-1.7c0-0.4,0-0.8,0.1-1.1c1.1-3.6,2.1-7.1,3.2-10.7c0.4-1.2,1-2.2,2.1-2.9c0.6-0.4,1.2-0.6,1.9-0.6
		c0.4,0,0.7,0,1.1,0c0.3,0,0.6,0.1,1,0.2c5.6,1.7,11.2,3.3,16.8,5c0.3,0.1,0.6,0.2,0.9,0.3c0.3,0.2,0.6,0.4,0.9,0.6
		c0.5,0.4,0.8,0.8,1.1,1.3c0.3,0.5,0.4,1,0.5,1.6c0.2,0.9,0,1.7-0.3,2.5c-1,3.5-2.1,7-3.1,10.4c-0.1,0.5-0.4,0.9-0.7,1.3
		c-0.4,0.5-0.8,0.9-1.4,1.2c-0.5,0.3-1.1,0.5-1.7,0.6c-0.9,0.1-1.8,0-2.6-0.3c-0.8-0.2-1.5-0.4-2.3-0.7c-0.4-0.1-0.9-0.1-1.3,0
		c-0.7,0.2-1.2,0.7-1.8,1c-0.8,0.5-1.5,1.2-2.4,1.5c-0.3,0.1-0.5,0.1-0.8,0.1C184,84.5,183.7,84.4,183.3,84.2z"/>
	<path class="st35" d="M200.1,63.3c-0.3-0.1-0.6-0.2-0.9-0.3c-5.7-1.7-11.3-3.3-17-5c-0.3-0.1-0.5-0.2-0.8-0.2c0.3,0,0.5,0,0.8,0.1
		c5.7,1.7,11.4,3.4,17.2,5.1C199.7,63,199.9,63.1,200.1,63.3z"/>
	<path class="st36" d="M183.3,84.2c0.4,0.1,0.8,0.2,1.1,0.3C184,84.6,183.6,84.5,183.3,84.2z"/>
	<path class="st24" d="M188.3,67.4c0.2,0.2,0.4,0.3,0.6,0.5c0.4,0.6,0.6,1.1,0.5,1.8c-0.2,1-0.9,1.5-1.7,2c-0.5,0.3-1.1,0.5-1.7,0.7
		c-0.5,0.2-1.1,0.3-1.6,0.4c-0.3,0.1-0.4-0.1-0.6-0.3c-0.4-0.4-0.7-0.8-1.1-1.2c-0.5-0.6-0.9-1.3-1.3-2c-0.2-0.4-0.2-0.8-0.2-1.3
		c0-0.7,0.4-1.2,0.9-1.6c0.3-0.2,0.7-0.3,1-0.4c0.5-0.1,0.9,0.1,1.3,0.3c0.5,0.2,0.8,0.6,1,1.1c0.2,0.3,0.2,0.3,0.5,0.1
		c0.3-0.2,0.6-0.3,0.9-0.3c0.2,0,0.3,0,0.5,0C187.6,67.2,187.9,67.3,188.3,67.4z"/>
	<path class="st24" d="M194.4,72.5c-0.3,0.9-0.5,1.7-0.8,2.6c-0.1,0.2-0.2,0.3-0.4,0.2c-0.1-0.1-0.3-0.1-0.4-0.1
		c-0.4-0.1-0.4-0.1-0.3-0.5c0.3-1,0.6-2,0.9-3.1c0-0.1,0-0.1,0.1-0.2c0-0.1,0.1-0.3,0-0.3c0,0-0.2,0-0.3,0.1
		c-0.3,0.1-0.6,0.2-0.9,0.2c-0.2,0-0.3,0-0.2-0.3c0-0.2,0.1-0.3,0.1-0.5c0-0.2,0.2-0.2,0.3-0.2c0.7-0.1,1.2-0.3,1.7-0.8
		c0.1-0.1,0.1-0.1,0.2-0.1c0.2,0,0.3,0.1,0.5,0.1c0.2,0,0.3,0.1,0.2,0.3C194.9,70.8,194.6,71.7,194.4,72.5z"/>
	<path class="st37" d="M188.3,67.4c-0.3-0.1-0.6-0.2-1-0.3C187.6,67.1,188,67.2,188.3,67.4z"/>
</g>
<g>
	<path class="st38" d="M149.6,15.3c-1.1,6.6-7.2,11-13.8,9.9c-6.6-1.1-11-7.2-9.9-13.8s7.2-11,13.8-9.9
		C146.3,2.6,150.7,8.7,149.6,15.3z"/>
	<g>
		<path class="st39" d="M126.2,15.8C126.2,15.7,126.2,15.7,126.2,15.8C126.2,15.7,126.2,15.8,126.2,15.8c0.1,0.1,0.1,0,0.2,0
			c0,0,0,0,0-0.1c0-0.1,0.1-0.1,0.2-0.2c0,0,0,0.1,0,0.1c0,0.1,0.1,0.1,0.1,0.1c0.1,0,0.1-0.1,0.2-0.1c0.1,0.1,0.2,0.2,0.3,0.2
			c0,0.1,0.2,0.1,0.3,0c0,0,0,0,0.1,0c0,0,0,0,0.1,0c0.1,0,0.1,0,0.1-0.1c0,0,0,0,0-0.1c0,0.1,0.1,0.2,0.1,0.2
			c0,0.2,0.1,0.2,0.2,0.2c0.1,0,0.3,0,0.4,0.1c0,0,0,0,0.1,0c0.1,0,0.2,0,0.2,0c0.1,0,0.2,0,0.3-0.1c0.1,0,0.1,0,0.2,0s0.1,0,0.2,0
			c0.1,0.1,0.2,0.1,0.3,0.2c0,0.1,0.1,0.1,0.1,0.1c0.1,0,0.2,0,0.3,0c0.1,0,0.3-0.1,0.4-0.1c0.1,0,0.2-0.1,0.2-0.1
			c0.1,0,0.1-0.1,0.2,0l0,0c0,0,0.1,0,0.2,0c0.2,0,0.4,0,0.5-0.1c0.1,0,0.1-0.1,0-0.1c0-0.1,0-0.1,0-0.2c0,0,0-0.1,0-0.1
			c0-0.1,0-0.2-0.1-0.2c0-0.1-0.1-0.1-0.1-0.2c0-0.1,0-0.1-0.1-0.2c0.1,0,0-0.1,0-0.2c0,0,0-0.1,0-0.2c0-0.1-0.1,0-0.2-0.1
			c0,0,0,0,0,0l0,0c0,0,0.1,0,0.1,0c0,0,0-0.1,0-0.1c0-0.1,0-0.1-0.1-0.1c0,0,0,0,0,0c0,0,0.1,0.1,0.2-0.1l0,0
			c0.1,0,0.1-0.1,0.1-0.2c0-0.1,0-0.3-0.1-0.4c0-0.1-0.1-0.1-0.1-0.2l0,0l0,0c0.1-0.1,0-0.2,0-0.3c0.1,0,0.1-0.1,0-0.2
			c0-0.1,0-0.1,0.1-0.1c0-0.1-0.1-0.1-0.2-0.2c0-0.1,0-0.1-0.1-0.1c0-0.1,0-0.1,0-0.1c0-0.1-0.1-0.1,0-0.2l0,0c0,0,0-0.1,0-0.2
			c0,0,0,0-0.1,0l0,0c-0.1-0.1-0.1-0.1-0.2,0c0,0,0,0-0.1,0c0,0,0,0,0,0c0,0,0.1,0,0.1-0.1c0.1,0,0.1,0,0.1-0.1l0,0c0,0,0,0,0.1,0
			c0,0,0-0.1,0-0.1c0,0-0.1-0.1-0.1-0.1c0,0-0.1-0.1-0.1-0.1c0,0,0,0-0.1,0c0,0,0,0-0.1,0c0,0-0.1,0-0.1,0c0,0,0-0.1,0-0.1
			c0-0.1,0-0.1-0.1-0.2c-0.1,0-0.2,0-0.2-0.1c0,0,0-0.1,0.1-0.2c0,0,0.1-0.1,0.1-0.1c0.1,0,0.1-0.1,0.2-0.1c0.1,0,0.1-0.1,0.1-0.2
			c0-0.1-0.1-0.2-0.2-0.3l-0.1-0.1c0.1,0,0.2-0.1,0.3-0.1c0.1,0,0.2,0,0.2-0.1l0.1,0c0-0.1,0-0.1-0.1-0.1c-0.1-0.1-0.2-0.1-0.3,0
			l0,0c0,0-0.1,0-0.1,0c0-0.1,0-0.1-0.1-0.2c-0.1-0.1-0.1-0.2-0.1-0.3c0.1-0.1,0.1-0.3,0.3-0.4c0,0,0.1,0,0.1-0.1c0.1,0,0.1,0,0.2,0
			l0,0c0,0,0,0,0.1,0c0.1,0,0.1-0.1,0.1-0.1c0,0.1,0.1,0,0.1,0c0,0.1,0.1,0.1,0.1,0.1c0,0,0,0.1,0,0.1c0,0.1,0.1,0.1,0.1,0.2
			c0,0.1,0.1,0.2,0.1,0.2c0,0,0.1,0,0.1-0.1l0-0.1c0,0,0,0,0,0.1c0,0.1,0.1,0.1,0.2,0.2c0,0.1,0,0.1,0,0.2c0,0,0,0.1,0,0.1
			c0.1,0.1,0.1,0.2,0,0.3c-0.1,0-0.1,0.1-0.1,0.1c-0.1,0.1-0.1,0.1-0.1,0.2c0,0.1,0.1,0.1,0.1,0s0.1-0.1,0.1-0.1
			c0.1-0.1,0.1-0.2,0.2-0.3c0.1,0,0.2-0.1,0.3-0.1c0,0,0.1,0,0.2,0.1l0,0c0.1,0.1,0.1,0.1,0.2,0.1l0.1,0c0,0,0,0,0.1,0.1l0,0
			c0,0,0,0,0-0.1c0,0,0,0.1,0.1,0.1c0.1-0.1,0.1-0.1,0.2-0.2l0,0c0.1,0,0.1,0,0.1-0.1c0,0-0.1,0.1-0.1,0.1c-0.1,0-0.1,0-0.1,0.1
			c0.1,0,0.2,0,0.3-0.1l0,0c0.1,0,0.1,0,0.2-0.1c0,0.1,0.1,0.1,0.1,0.1l0,0c0,0,0-0.1-0.1-0.1l0,0c0.1,0.1,0.2,0.1,0.2,0.2
			c0,0,0.1-0.1,0.1-0.1c0.1,0,0.2-0.1,0.3,0c0,0,0,0,0.1,0c0,0.1,0.1,0.1,0.2,0.1l0,0c0,0.1,0.1,0.1,0.2,0.1c0,0,0,0-0.1,0
			c0,0,0,0-0.1-0.1c-0.1,0-0.2,0-0.1,0.1c0.2,0,0.3,0.1,0.4,0.2l0,0l0,0l0,0l0,0c0,0,0-0.1-0.1-0.1c0,0,0-0.2,0-0.3
			c0.1,0,0.1-0.1,0.1-0.1c0-0.1,0-0.1,0-0.2l0,0l0,0.1c0,0,0.1,0.1,0.1,0c0.1,0,0.1-0.1,0-0.1c0-0.1-0.1-0.1-0.2-0.2
			c-0.1-0.1-0.2-0.1-0.3-0.2c0.1,0,0.2,0,0.3,0.1c0,0,0,0,0,0c0,0,0,0,0.1,0c0,0,0.1,0,0.1,0c0.1,0.1,0.2,0.2,0.2,0.4
			c0,0.1,0.1,0.2,0.2,0.2c0.1,0,0.2,0,0.2,0.1c0,0.1,0.1,0.1,0.2,0l0.1,0c0,0,0.1,0,0.1-0.1c0,0,0-0.1,0-0.1l0.1,0
			c0-0.1-0.1-0.1-0.1-0.1c0,0,0,0,0.1,0c0,0,0,0.1,0.1,0.1l0,0c0-0.1,0-0.2-0.1-0.3c0.1,0,0.1,0,0-0.1l0,0c0,0,0-0.1,0-0.1
			c0,0,0.1,0,0.1,0c0.1,0,0.1-0.1,0.1-0.1c0,0,0.1,0,0.1-0.1l0,0l0,0c0,0,0,0,0-0.1l0.1,0c0,0,0.1,0,0.1-0.1s0.1-0.1,0.1-0.2l0,0
			c0,0-0.1,0-0.2,0c-0.1,0-0.1,0-0.2,0l0,0c0,0-0.1,0-0.1,0c0,0,0-0.1,0.1-0.2c0-0.1,0-0.1-0.1-0.1c0,0,0,0,0.1,0
			c0.1,0,0.2-0.1,0.1-0.2l0,0.1l0.2-0.1l0-0.1c0,0,0,0,0-0.1c0-0.1,0-0.1,0-0.1c0,0,0.1-0.1,0.1-0.1c0.1,0,0.1-0.2,0-0.2
			c0,0-0.1-0.1-0.1-0.1c0,0,0-0.1,0-0.1l0-0.1c-0.1,0-0.2,0-0.1,0.1c-0.1,0-0.2,0.1-0.3,0.2c-0.1,0-0.1,0.1-0.2,0c0-0.1-0.1,0-0.1,0
			c0,0.1-0.1,0.2-0.1,0.3c-0.1,0-0.1,0.1-0.1,0.1l0,0.1c0,0,0,0,0,0l0,0c-0.1,0-0.1,0-0.2,0c0,0,0,0-0.1,0l0,0
			c-0.1,0.1-0.2,0.2-0.3,0.3l0,0c0,0-0.1,0-0.1,0.1c0-0.1,0-0.1-0.1-0.1c0,0,0-0.1,0-0.1c0.2-0.1,0.2-0.1,0.2-0.2l0.1,0
			c0,0,0-0.1,0.1-0.1c0.1-0.1,0.2-0.1,0.3-0.2c0-0.1,0-0.1-0.1-0.2c0-0.1-0.1-0.1-0.1-0.1c0-0.1,0-0.2,0-0.2l0,0
			c0-0.2,0.1-0.3-0.1-0.5c0.1,0,0.1-0.1,0.2-0.2c0.1,0,0.1-0.1,0-0.1c0,0,0-0.1,0-0.1c0.1-0.1,0.2-0.1,0.3-0.1c0.1,0,0.1,0,0.2-0.1
			c0.1,0.1,0.2,0,0.4,0c0,0.1,0.1,0.1,0.1,0.1s0.1,0,0.1-0.1c0,0,0,0.1,0.1,0c0,0,0.1,0,0.1,0c0,0,0.1,0.1,0.1,0.1
			c0.1,0,0.2,0,0.3,0c0-0.1-0.1-0.2,0-0.4c0,0,0,0.2,0,0.2c0,0,0,0,0,0.1c0,0.1,0.2,0,0.2,0l0,0l0,0l0,0l0,0.1c-0.1,0.1,0,0.1,0,0.2
			c0,0,0.1,0,0.1-0.1c0,0,0,0.1,0,0.1c0.1,0,0.2,0,0.3,0c0,0,0.1,0,0.1-0.1c0.1,0,0.1-0.1,0.1-0.2c0.1,0.1,0.1,0.1,0.2,0l0,0
			c0-0.1,0-0.2,0-0.2l0,0c0-0.1-0.1-0.2-0.1-0.2c-0.1,0-0.2,0.1-0.1,0.2c0,0-0.1,0-0.1,0c0,0,0-0.1-0.1-0.1c-0.1,0-0.2,0-0.3,0.1
			c-0.1,0-0.1,0-0.1,0c0,0,0.1-0.1,0.1-0.1c0,0,0.1-0.1,0.2,0l0,0c0.1,0,0.1-0.1,0.1-0.2c0,0,0,0,0-0.1s-0.1,0-0.1,0
			c-0.1,0-0.1,0-0.2,0c0.1-0.1,0.1-0.1,0.1-0.2c0,0,0,0,0.1,0l0,0c0,0,0-0.1,0-0.1c0,0,0.1,0,0.2,0c0,0,0,0,0,0c0,0,0-0.1,0.1-0.2
			c0,0,0.1-0.1,0.1-0.1l0,0c0,0,0.1-0.1,0.1-0.1l0,0l0,0c0,0,0,0,0.1-0.1l0,0c-0.1,0-0.1,0-0.2,0.1c0-0.1-0.1,0-0.2,0.1l0,0
			c0,0-0.1,0-0.1,0.1c0,0.1-0.1,0.2,0,0.3c0,0-0.1,0-0.2,0.1c0,0,0,0.1,0.1,0.1c-0.1,0.1-0.2,0.1-0.3,0c-0.1,0-0.1,0.1-0.2,0.1
			c0-0.2,0.1-0.1,0.2-0.2l0,0c0.1-0.1,0-0.1-0.1-0.2c0,0-0.1,0.1-0.1,0.1l0,0.1c0,0,0,0-0.1,0c0-0.1,0-0.1,0-0.2l-0.1,0
			c0-0.1-0.1-0.2-0.2-0.2c-0.1-0.2-0.1-0.2-0.1-0.3c0,0,0-0.1,0-0.2c0,0,0-0.2,0-0.2c0.1-0.1,0.1-0.1,0-0.2c0,0,0,0,0-0.1
			c0,0-0.1,0-0.1,0c0,0.1,0,0.1,0.1,0.1c0,0,0,0.1,0,0.1c0,0,0.1,0,0.1,0l0,0c-0.1,0-0.1,0-0.2,0c0-0.1-0.1,0-0.2,0
			c0,0-0.1,0.1-0.1,0.1s0,0-0.1,0c0,0,0,0,0,0c0,0,0.1,0,0.1,0c0,0,0,0,0-0.1l0,0c0,0,0-0.1,0-0.2c-0.2-0.1-0.3-0.2-0.3-0.4
			c0.1,0,0.1,0,0.2,0.1c0-0.1,0.1-0.1,0.1-0.2l0-0.1c0,0,0-0.1,0-0.1c0-0.2-0.1-0.3-0.1-0.5c0,0,0-0.1-0.1-0.2c0,0,0,0-0.1,0
			s0,0-0.1-0.1c0.1,0,0.1-0.1,0.2-0.2c-0.1,0-0.2,0-0.2,0l0,0c0,0,0-0.1,0,0c0,0,0.1-0.1,0.1-0.2c0,0,0.1-0.1,0.1-0.1c0,0,0,0,0,0
			c0,0,0,0-0.1,0.1c0,0-0.1,0-0.1-0.1c0,0,0-0.1-0.1-0.1c0.1,0,0.1,0,0.2,0c-0.1-0.1-0.3-0.1-0.4-0.2c-0.8,0.2-1.6,0.5-2.4,0.9l0,0
			c0,0.1,0,0.1,0,0.2c0,0,0,0,0,0.1c0,0,0,0,0.1,0c0,0,0,0,0-0.1l0,0c0,0,0,0.1,0,0.2l0,0c0.1,0,0.1-0.1,0.1-0.1c0,0,0,0-0.1,0.1
			c0,0-0.1,0-0.1,0.1c0,0.1,0,0.1-0.1,0.2c0,0,0,0-0.1,0c0,0-0.1,0.1-0.1,0.1l0,0c0,0,0,0-0.1,0l0,0.1c0,0,0,0,0,0.1c0,0,0,0,0,0.1
			c0,0,0,0-0.1,0c0,0,0,0.1,0.1,0.1c-0.1,0.1-0.2,0.2-0.2,0.2s0,0-0.1,0c0,0.1,0,0.2-0.1,0.3c0,0,0,0,0,0c0,0-0.1,0.2-0.1,0.2
			c-0.1,0-0.1,0,0,0.1c0,0,0,0,0,0.1l0,0c-0.1-0.1-0.1-0.2-0.1-0.3l0,0l0,0c0,0-0.1,0-0.1,0c0,0,0,0.1,0,0.2c0,0,0,0.1,0,0.2
			c0,0-0.2,0.2-0.2,0.3c0,0,0,0-0.1,0c-0.1,0-0.2,0.1-0.3,0.2c-0.1,0-0.1,0.1-0.2,0.1c-0.1,0-0.1,0.1-0.2,0.1l-0.1,0
			c-0.1,0-0.1,0.1-0.1,0.1c-0.1,0.1-0.1,0.1,0,0.2l-0.1,0c0,0-0.1,0.1-0.1,0.2c0,0,0,0,0,0.1c-0.1,0,0,0.1,0,0.1c0,0.1,0,0.2,0,0.2
			c0,0.1-0.1,0.2-0.1,0.3c-0.1,0-0.1,0.1-0.1,0.2c0,0,0,0.1,0,0.1c0,0-0.1,0-0.1,0l0-0.1c0,0,0,0.1,0,0.2c0,0.1,0,0.1-0.1,0.2
			l-0.1,0c0,0.1,0,0.2,0,0.3c0,0,0.1,0,0.1-0.1s0-0.1,0-0.1c0.1-0.1,0.1-0.3,0.2-0.4l0,0c0-0.1,0.1-0.2,0.2-0.3c0,0.1,0.1,0.2,0,0.2
			c-0.1,0-0.1,0.1-0.1,0.2l0,0c0,0.1,0,0.2,0,0.3c0,0,0,0.1-0.1,0.1c0,0,0,0,0,0.1l0,0c0,0.1-0.1,0.2-0.1,0.3c0,0.1-0.1,0.2-0.2,0.2
			c-0.1,0-0.1,0-0.1,0.1c0,0.1,0,0.2,0,0.4l0,0c0,0,0,0.2,0,0.2c0,0,0,0.2,0,0.2c0.1,0.1,0.1,0.2,0.2,0.2c0.1,0.1,0.1,0.1,0.1,0.3
			c0,0.2,0,0.4,0.1,0.6c0,0,0,0-0.1,0.1c0,0.1,0,0.1-0.1,0.2l0,0.1c0,0.1,0,0.1,0,0.2c0,0,0,0.1,0,0.2c0,0,0,0.1,0,0.1
			c0,0,0,0,0,0.1l0,0c0-0.1,0-0.1,0.2,0c0,0,0,0.1,0,0.1c-0.1,0-0.1,0.1-0.1,0.2c-0.1,0-0.2,0.1-0.2,0.2c0,0-0.1,0-0.1-0.1l0,0
			c-0.1,0-0.2,0-0.4,0l0,0c-0.1,0-0.1,0-0.1,0.1l0,0.1c-0.1,0-0.1,0-0.1,0c0,0-0.2,0.1-0.2,0.1c0,0.1-0.1,0.3-0.2,0.4
			c-0.1,0.1-0.1,0.1-0.1,0.2c0,0-0.1,0.1-0.1,0.1l0,0c0,0.1,0,0.2,0,0.4c0,0.2,0.1,0.3-0.1,0.4c-0.2,0.1-0.4,0.2-0.6,0.3
			c-0.1,0-0.1,0.1-0.2,0.1c-0.2,0.1-0.4,0.1-0.5,0.3c0,0,0,0-0.1,0c-0.2,0-0.3,0.1-0.5,0.1c-0.1,0-0.3,0.1-0.3,0.1l-0.1,0
			c0,0-0.1,0-0.1,0c0.1,0.3,0.1,0.7,0.1,1C126.1,15.8,126.1,15.8,126.2,15.8z"/>
		<path class="st39" d="M149.8,12.9L149.8,12.9c-0.2,0.1-0.2,0.1-0.3,0c0,0,0,0,0-0.1c-0.1-0.1-0.1-0.1-0.2,0
			c-0.1,0-0.1-0.1-0.2-0.2c0,0.1-0.1,0.1-0.1,0.2c0,0-0.1,0.1-0.1,0.2c0-0.1,0-0.1,0-0.1c0,0-0.1-0.1-0.1-0.2c0,0,0-0.1,0-0.1
			c0-0.1,0-0.1,0-0.1c0.1,0,0.1-0.1,0.1-0.1l0,0c0.1-0.1,0-0.1-0.1-0.3c0-0.1-0.1-0.1-0.2-0.1c0-0.1-0.1-0.1-0.2-0.1
			c0-0.1-0.1,0-0.1,0c0,0,0,0.1,0,0.1c0,0,0,0.1-0.1,0.1c-0.2,0-0.2,0-0.3-0.1c0-0.1-0.1-0.1,0-0.2c-0.2-0.1-0.4-0.2-0.5-0.1
			c0,0,0,0.1,0.1,0.1c0,0-0.1,0-0.1,0c0,0,0-0.1,0-0.1c0,0,0-0.1,0-0.1c0,0-0.1,0.1-0.1,0.1c0,0-0.1,0-0.1-0.1c0,0-0.1,0-0.1-0.1
			c-0.1,0-0.1,0-0.1,0.1c0.1,0,0.1,0,0.1,0c0,0-0.1,0-0.2,0c0,0-0.2,0.1-0.3,0.1c0.1,0,0.1-0.1,0.2-0.1c0,0,0.1,0,0.1,0
			c0,0,0.1-0.1,0.1-0.1c0.1-0.1,0.1-0.2,0.2-0.2c0,0,0,0,0,0c0.1,0,0.1-0.1,0.1-0.1c0.1,0,0.1-0.1,0.1-0.1s0-0.1,0-0.2l0,0
			c0,0,0-0.1,0-0.1s0,0-0.1,0c0,0,0-0.1,0-0.1c-0.1-0.1-0.1-0.2-0.3-0.2l0,0c0,0-0.1,0-0.1,0c-0.1,0-0.1,0.1-0.2,0
			c0.1,0,0.1,0,0.1-0.1c0.1-0.1,0.1-0.1,0-0.2c0,0,0,0-0.1-0.1l0,0l0,0c0,0,0.1,0,0.1-0.1c0.1,0,0.1-0.1,0-0.1c0,0,0-0.1-0.1-0.1
			c0-0.1-0.1,0-0.2,0c-0.1,0-0.1,0.1-0.2,0.2c0,0-0.1,0.1-0.1,0.1c0,0,0,0,0,0.1c-0.1,0-0.1,0-0.3,0c0,0.1,0.1,0.1,0,0.2
			c0-0.1,0-0.1-0.1-0.1c-0.2,0-0.2,0.1-0.2,0.1c0,0-0.1,0-0.1,0c0,0,0,0,0-0.1c0.1,0,0,0,0-0.1c0,0-0.1,0-0.2,0c0,0,0,0-0.1,0l0,0.1
			c0,0,0,0-0.1,0c-0.1,0-0.2,0-0.3,0.1c0,0-0.2,0-0.2,0.1c-0.1,0-0.1,0.1-0.2,0l0,0.1c0,0-0.1,0.1-0.1,0.1c0,0,0-0.1-0.1-0.1
			c-0.1,0.1,0,0.1,0,0.1l-0.1,0l0,0c0,0,0,0.1,0,0.1c0,0-0.1,0.1-0.1,0.1c-0.1,0-0.3,0-0.5,0c-0.1,0-0.2,0.1-0.1,0.2
			c0,0,0,0.1,0,0.1c0,0,0,0.1,0.1,0.2c0,0.1,0.1,0.1,0.2,0.2l0,0c-0.1,0.1,0,0.2,0,0.3c0,0,0,0.1-0.1,0.1l0,0c0,0-0.1-0.1,0-0.1
			c0-0.1,0-0.2,0.1-0.3c0,0,0,0,0.1-0.1l0,0c-0.1,0-0.1,0-0.2-0.1s-0.1-0.1-0.3-0.1c0,0,0,0-0.1,0l0,0.1c-0.1,0.1-0.1,0.1-0.1,0
			c-0.1,0,0,0.1,0,0.1c0,0.1,0.1,0.1,0.1,0.1c0,0,0,0,0,0.1c-0.1-0.1-0.2-0.1-0.3-0.1c0,0,0-0.1,0-0.1c0,0,0-0.1,0-0.1
			c0.1-0.1,0-0.2,0-0.3l0,0c0,0.1,0,0.2-0.1,0.2l0,0c-0.1,0-0.1,0.1-0.1,0.2c0,0.1,0,0.1,0,0.2c0,0,0,0.1,0,0.1
			c-0.1,0.1-0.1,0.2-0.1,0.4c0,0,0.1,0,0.1,0c0,0,0.1,0,0.1,0c0.1,0.1,0.1,0.2,0.1,0.2c0,0-0.1,0.1-0.1,0.1s0,0.1,0.1,0.1
			c-0.1,0-0.1,0-0.1-0.1c0.1-0.1,0-0.2-0.1-0.3c0,0,0,0-0.1,0c-0.2,0-0.2,0-0.1,0.2c0,0,0,0.1,0,0.1c0,0-0.1,0.1-0.1,0.1
			c0,0,0,0-0.1,0c-0.1,0-0.1,0.1-0.2,0.1c0,0-0.1,0-0.1,0c0,0-0.1-0.1,0-0.1c0,0.1,0.1,0.1,0.1,0.1c0,0,0-0.1,0-0.1
			c0.1,0,0.1-0.1,0.1-0.1c0.1-0.1,0.1-0.2,0.1-0.2l0,0c-0.1-0.2,0-0.3,0-0.5l0,0c0-0.1,0.1-0.2,0-0.3c0-0.1,0-0.1,0-0.1
			c0.1-0.1,0.1-0.2,0.1-0.2c0,0,0,0,0-0.1c-0.1,0-0.2-0.1-0.3-0.1c0,0-0.1,0.1-0.1,0.1c0,0.1-0.1,0.3-0.3,0.3l-0.1,0c0,0,0,0,0,0.1
			c0,0,0,0,0,0.1c0,0.1-0.1,0.2-0.1,0.3c0.1,0,0.1,0.1,0.1,0.1c0,0,0,0.1,0,0.1c0,0-0.1,0.1-0.1,0.1c0-0.1-0.1-0.2-0.1-0.2
			c-0.1-0.1-0.3-0.3-0.5-0.3c0,0-0.1,0-0.2,0c0,0,0,0,0,0.1c0,0,0,0.1,0,0.1c0,0-0.1,0-0.1,0.1c0,0,0,0-0.1,0l0,0c0,0,0-0.1,0-0.2
			c-0.1,0-0.1,0.1-0.2,0.1c0,0-0.1,0-0.1,0c-0.1,0-0.2,0-0.3,0.1c0-0.1,0-0.1,0-0.1c0,0,0-0.1,0-0.1l0,0c0,0-0.1,0-0.1,0.1
			c-0.1-0.1-0.1,0-0.1,0c0,0-0.1,0-0.1,0c-0.1,0-0.2,0.1-0.3,0.1c-0.1,0-0.1,0-0.1,0.1c0,0.1-0.1,0.1-0.1,0.1c0,0-0.1-0.1-0.1-0.1
			c-0.1-0.1-0.1-0.2,0.1-0.2l0,0c0-0.2-0.1-0.2-0.3-0.3c0.1,0.1,0.1,0.2,0.1,0.2c0,0,0,0,0,0.1l0,0c0,0.1,0,0.1,0,0.2
			c0,0,0,0.1-0.1,0.1l0-0.1c0-0.1-0.1-0.1-0.2,0c-0.1,0-0.1,0.1-0.2,0.1c-0.1,0-0.1,0.1-0.1,0.1c0,0,0,0.1,0,0.2l0,0
			c-0.1-0.1-0.2-0.1-0.4-0.2c0,0,0,0.1,0,0.1c0,0,0,0.1,0.1,0.1l0,0c0,0,0,0,0,0.1c-0.1,0-0.1,0-0.2-0.1c0-0.1-0.1-0.1-0.1-0.1
			c0,0,0-0.1,0-0.2l0,0c0,0,0.1-0.1,0-0.1c-0.1-0.1-0.1-0.2-0.2-0.3l0,0c0,0,0,0,0,0.1c0.1,0.1,0.1,0.1,0.2,0.2s0.2,0.1,0.3,0.1
			c0,0,0.1,0,0.2,0c0.1,0,0.2-0.1,0.2-0.2c0-0.1,0-0.3-0.2-0.3c0,0,0-0.1-0.1-0.1c0-0.1-0.1-0.1-0.2-0.2l0-0.1
			c-0.1,0-0.2-0.1-0.3-0.1c0,0,0,0,0-0.1l0,0c0,0,0,0,0,0.1c0,0,0,0-0.1-0.1c0,0,0,0-0.1,0l-0.1,0c0-0.1,0-0.1-0.1-0.2
			c0.1,0.1,0.1,0,0.2-0.1c0-0.1-0.1-0.1-0.2-0.2c0,0-0.1,0.1-0.1,0.1l0,0c0,0,0-0.1,0-0.1c0,0,0,0,0-0.1c-0.1,0.1-0.1,0.1-0.1,0.2
			l0,0c0,0,0-0.1,0-0.1c-0.1,0.1-0.1,0.1-0.2,0.2l0,0c0.1,0,0.1-0.1,0.1-0.2c0,0,0-0.1-0.1-0.1l-0.1,0c0,0.1,0,0.1-0.1,0.1
			c-0.1,0-0.1,0.1-0.1,0.1c0,0-0.1-0.1-0.1-0.1c0,0,0,0.1,0,0.1c-0.1-0.1-0.1,0-0.2,0.1c0,0,0-0.1,0-0.1l-0.1,0
			c-0.1-0.1-0.1,0-0.1,0l0,0c0,0,0,0,0,0.1c0-0.1-0.1-0.1-0.1-0.1c0,0-0.1,0.1-0.1,0.1c0,0,0,0,0.1,0c0,0.1-0.1,0.1-0.1,0.1
			c0,0,0,0,0.1,0.1l0,0l-0.1,0l0,0.1c0,0,0-0.1,0-0.1c0,0,0,0.1-0.1,0.1c0,0,0,0-0.1,0c0,0-0.1,0-0.1,0.1c0,0,0,0-0.1,0
			c-0.1,0-0.1,0.2-0.2,0.2c-0.1,0-0.1,0-0.1,0.1l0,0l0,0c0,0-0.1,0-0.1,0.1c-0.1,0-0.1,0.1-0.2,0.2c0,0,0,0.1,0,0.1c0,0,0-0.1-0.1,0
			c0,0-0.1,0-0.2,0.1c-0.1,0-0.1,0-0.1,0.1c0,0,0,0,0,0.1c-0.1,0-0.1,0-0.1,0.1c0,0-0.1,0-0.1,0.1c0,0,0,0,0,0.1
			c0,0-0.1,0.1-0.1,0.1c0,0,0,0,0,0.1c0,0,0.1,0,0.2,0c0,0,0,0-0.1,0c0-0.1-0.1,0-0.1,0c0,0-0.1,0,0,0.1l0,0.1
			c0.1-0.1,0.1-0.1,0.2-0.1c-0.1,0-0.1,0.1-0.1,0.1c0,0-0.1,0-0.1,0l0,0c0,0,0,0,0.1,0c0,0-0.1,0-0.1,0.1l0,0c0,0.1,0.1,0.1,0.1,0.2
			c0,0,0,0,0.1,0c0.1,0,0.1-0.1,0.2-0.1l0,0c0,0,0,0,0-0.1c0,0,0,0.2,0,0.2c0,0.2,0,0.3,0.1,0.4c0,0.1,0,0.1-0.1,0.1
			c0,0-0.1,0-0.1,0c0,0.1,0.1,0.1,0.1,0.2c0,0,0.1-0.1,0.1-0.1c0,0.1,0.1,0.1,0.1,0.1c0.1-0.1,0.1-0.1,0.2-0.1l0,0
			c0.1-0.1,0.1-0.2,0.2-0.4c0,0,0.1-0.1,0.1-0.1c0,0,0.1,0,0.1,0c0,0-0.1,0-0.1,0c0,0,0,0,0,0c0,0,0.1,0.1,0.1,0c0,0,0.1,0,0.1-0.1
			c0-0.1-0.1-0.2-0.2-0.1c0-0.1,0.1-0.2,0.1-0.4l0,0c0.1-0.1,0.1-0.2,0.3-0.2c0.1,0,0.1-0.1,0.2-0.1c0,0,0,0,0-0.1
			c0-0.1,0-0.1,0.1-0.2c0,0,0.1,0,0.1-0.1c0,0,0.1,0,0.1,0c0,0,0,0,0,0l0,0.1c0,0,0,0.1,0,0.2l-0.1,0l0,0c-0.1,0.1-0.1,0.2-0.2,0.3
			c0,0-0.1,0-0.1,0c-0.1,0-0.1,0.1-0.1,0.2c0,0.1,0,0.2,0,0.3c0,0,0,0.1,0,0.1c0,0.1,0.1,0.1,0.1,0.1l0,0c0,0,0.1,0,0.2,0
			c0.1,0,0.3,0,0.4,0l0,0c-0.1,0,0,0.1,0,0.1s0,0,0.1,0.1c-0.1,0-0.2,0-0.3,0.1c-0.1,0-0.2-0.1-0.3-0.1c-0.1,0-0.1,0-0.1,0.1
			c0,0,0,0.1,0.1,0.1c0,0.1,0,0.2-0.1,0.2c-0.1,0-0.1-0.1-0.2-0.2c0,0-0.1,0-0.1,0c-0.1,0.1-0.1,0.2-0.1,0.3c0,0,0,0.1,0,0.2
			c-0.1-0.1-0.1,0-0.2,0c0,0-0.1,0-0.1,0c0,0,0,0,0-0.1c-0.1,0-0.4,0-0.5,0.1c0-0.1,0-0.1-0.1-0.1c0,0,0,0,0-0.1
			c-0.1,0-0.2,0.1-0.3,0.1c0,0,0,0,0,0c0,0-0.1,0-0.1-0.1c0-0.1,0-0.1,0-0.2c0,0.1,0,0.1,0,0.1l0,0c0,0,0,0,0-0.1c0,0,0,0-0.1,0
			c0,0,0.1,0,0.1-0.1s0.1,0,0.1-0.1c-0.1,0-0.1-0.1-0.1-0.1c0,0,0-0.1,0-0.1c-0.1,0-0.1,0.1-0.2,0.1c-0.1,0.1-0.2,0.2-0.1,0.3l0,0
			c0,0,0,0.1,0,0.2l0,0c0,0-0.1,0-0.1,0.1c0-0.1-0.1-0.1-0.1,0c0,0,0,0,0,0c-0.1,0-0.1,0-0.2,0.1l0,0l0,0l0-0.1l0,0
			c0,0-0.1,0.1-0.1,0.2c0,0-0.1,0-0.2,0.1l-0.1,0c0,0-0.1,0.1-0.1,0.1c0,0,0,0-0.1,0c-0.1,0-0.1,0-0.1,0l0,0c0,0,0,0.1,0,0.2
			c0,0-0.1,0-0.1,0c-0.1-0.1-0.1,0-0.2,0c0,0.1,0,0.1,0.1,0.1c0.1,0,0.1,0.1,0.1,0.2c0,0,0,0,0,0.1c0.1,0.1,0,0.1,0,0.2
			c0,0,0,0.1,0,0.1c0,0.1-0.1,0.2-0.2,0.1c-0.1,0-0.3-0.1-0.5-0.1c0,0-0.1,0-0.2,0.1l0,0l0,0c0,0.2,0,0.3-0.1,0.4c0,0,0,0.1,0,0.1
			c0,0,0,0.1,0,0.1l0,0c0.1,0,0.2,0,0.2,0.1c0,0,0,0.1,0.1,0c0.1,0,0.1,0,0.2,0c0.1,0.1,0.2-0.1,0.3-0.1c0,0,0.1-0.1,0.1-0.1
			c0-0.1,0-0.1,0-0.1c0.1-0.1,0.2-0.2,0.3-0.2c0.1,0,0.1,0,0.1-0.1c0,0,0-0.1,0.1-0.1c0,0,0.1,0,0.2,0c0,0,0,0,0.1,0
			c0.1,0,0.2-0.1,0.2-0.1c0.1,0,0.1,0,0.1,0c0,0,0.1,0.1,0.1,0.1c0,0,0,0.1,0.1,0.2c0,0,0,0.1,0.1,0.1c0.1,0.1,0.1,0.1,0.2,0.2
			c0,0.1,0.1,0.1,0.1,0.1c0,0,0,0.1,0,0.2c-0.1,0-0.2,0.1-0.3,0.1c0,0,0,0-0.1,0c0,0,0,0,0,0.1c0,0.1,0.1,0.1,0.1,0.1c0,0,0,0,0.1,0
			c0,0,0-0.1,0-0.1l0,0l0,0c0,0,0.1-0.1,0.1-0.1c0.1,0,0.1,0,0-0.1c0,0,0,0,0-0.1l0,0c0,0,0,0.1,0.1,0.1c0-0.2-0.1-0.2-0.2-0.2l0,0
			c-0.1,0-0.2-0.1-0.2-0.2c0,0,0-0.1-0.1-0.2c-0.1-0.1,0-0.1,0-0.2c0,0,0.1,0,0.1,0c0,0,0,0.1,0,0.2c0.1,0,0.1,0,0.1-0.1
			c0,0.1,0,0.1,0.1,0.2c0,0,0,0.1,0,0.1c0,0,0.1,0.1,0.1,0.1c0,0.1,0.1,0.1,0.1,0.2c0,0.1,0,0.2,0,0.3c0,0,0,0.1,0.1,0.2
			c0,0.1,0,0.1,0.1,0.2c-0.1,0.1,0,0.2,0.1,0.2c0,0,0,0,0-0.1l0,0c0,0,0,0,0-0.1c0,0,0,0.1,0.1,0.1l0,0l0,0c0-0.1-0.1-0.2-0.1-0.2
			c0,0,0-0.1,0-0.1c0,0,0,0,0-0.1c0,0,0.1,0,0.1,0.1c0,0,0,0,0-0.1c0.1-0.1,0.1,0,0.2,0c0,0-0.1,0.1-0.1,0.2l0,0l0.1,0c0,0,0,0,0,0
			l0,0l0,0l0,0c0,0,0,0.1,0.1,0.1c0,0.1,0,0.1,0.1,0.1c0,0,0,0,0,0.1c0.1,0.1,0.1,0.1,0.2,0l0,0c0,0,0,0.1,0.1,0.1
			c0.1,0.1,0.1,0.1,0.2,0l0,0c0,0,0,0,0.1,0c0,0,0,0.1,0,0.1c0,0,0,0.1,0,0.1c-0.1,0.1-0.1,0.2-0.2,0.3c-0.1,0.1-0.2,0.1-0.3,0.1
			c0-0.1-0.1-0.1-0.1-0.1c0,0-0.1,0-0.2,0c0,0-0.1,0-0.1,0c-0.1,0-0.2-0.1-0.2-0.1c-0.1,0-0.1-0.1-0.2-0.1c0,0,0,0,0-0.1
			c0,0,0-0.1-0.1-0.1c0,0-0.1,0-0.2,0c-0.1,0-0.1,0.1-0.1,0.1c0,0,0,0-0.1,0s-0.1,0-0.1,0c-0.1,0-0.1-0.1-0.2-0.1c0,0,0-0.1,0-0.1
			c0-0.1-0.1-0.2-0.2-0.2c-0.1,0-0.2-0.1-0.3-0.2c0.1,0,0.1,0,0.1-0.1c0.1,0,0.1-0.1,0.1-0.1c0-0.1,0-0.1,0-0.1l0,0c0,0,0,0-0.1,0
			c0-0.1,0-0.1-0.1-0.1c-0.1,0-0.1,0-0.2,0c0,0-0.1,0-0.2,0l0,0c-0.1-0.1-0.3,0-0.5,0c-0.2,0-0.3,0.1-0.5,0.1l0,0c0,0-0.1,0-0.1-0.1
			c0-0.1-0.1-0.1-0.1,0c-0.1,0.1-0.1,0.2-0.2,0.2c-0.1,0-0.2,0.2-0.2,0.3c0,0.1-0.1,0.1-0.1,0.2c-0.1,0.1-0.3,0.1-0.3,0.2
			c0,0,0,0-0.1,0c0,0,0,0-0.1,0c-0.1,0.1-0.2,0.2-0.3,0.4c0,0-0.1,0.1,0,0.1c0,0.1,0,0.1,0,0.1l0,0c0,0,0,0.1,0,0.2
			c0,0-0.1,0.1-0.1,0.1c0,0-0.1,0.1-0.1,0.1c0,0.1,0.1,0.1,0.1,0.2c0,0,0,0.1,0.1,0.1l0,0c0,0.1,0.1,0.2,0.2,0.3c0,0,0,0.1,0,0.1
			c0,0,0,0.1,0.1,0.2c0.1,0.1,0.2,0.2,0.3,0.2s0.2,0.2,0.3,0.1c0.1,0,0.3,0,0.3,0.1c0,0,0.1,0,0.1,0c0.2-0.1,0.3-0.1,0.5-0.1
			c0.1,0,0.1,0.1,0.2,0.2c0,0,0,0.1,0.1,0.1c0,0,0.1,0,0.1,0c0.1,0,0.2,0.1,0.2,0.2c0,0,0,0.1-0.1,0.2c0,0-0.1,0.1-0.1,0.1
			c0,0,0,0,0,0.1c0,0.1,0.1,0.2,0.2,0.3c0,0.1,0.1,0.1,0.1,0.2c0,0.1,0,0.2,0,0.2c0,0,0,0.1,0,0.1c0,0,0,0.1,0,0.1
			c0,0.1,0,0.2,0,0.2c-0.1,0.1-0.2,0.2-0.2,0.3c-0.1,0.1-0.1,0.2,0,0.4c0.1,0.2,0.1,0.5,0.1,0.7c0,0.1,0,0.2,0.1,0.3
			c0.1,0.1,0.1,0.2,0.1,0.3c0,0.1,0,0.2,0.1,0.2c0,0.1,0,0.1,0,0.1c0,0,0,0,0,0.1c0.2,0,0.5,0.1,0.7,0.2c0,0,0.1,0,0.1,0
			c0.1,0,0.1,0,0.2,0c0.2-0.1,0.3-0.2,0.4-0.3c0.1,0,0.1-0.1,0.1-0.1c0.1-0.1,0.1-0.2,0.1-0.3c0-0.1,0-0.1,0.1-0.1c0,0,0.1,0,0.1,0
			c0,0,0.1,0,0.1-0.1c0-0.1,0.1-0.2,0-0.4c0-0.1,0-0.1,0.1-0.1c0.1,0,0.1-0.1,0.2-0.1c0.1,0,0.1-0.1,0.1-0.1c0.1,0,0.2-0.1,0.3-0.2
			c0.1,0,0.1-0.1,0.1-0.1c0-0.1,0-0.2,0-0.3c0,0,0-0.1,0-0.1c0-0.1-0.1-0.2-0.1-0.3c0,0,0,0,0-0.1c0-0.1,0-0.1,0-0.1
			c0,0,0.1-0.1,0.1-0.1c0.1-0.2,0.2-0.2,0.4-0.3c0.1-0.1,0.2-0.1,0.3-0.2c0.2-0.1,0.3-0.2,0.4-0.4c0,0,0,0,0.1,0
			c0.1-0.1,0.1-0.2,0.2-0.3c0,0,0-0.1-0.1-0.1c0,0-0.1,0-0.1,0c-0.1,0-0.2,0-0.3,0c0,0-0.1,0-0.2,0c0,0,0,0,0-0.1
			c0-0.1-0.1-0.1-0.1-0.1c0.1,0,0.1,0,0-0.1c0-0.1-0.1-0.1-0.1-0.2c0-0.1,0-0.1-0.1-0.1c-0.1-0.1-0.1-0.1-0.1-0.2c0,0,0-0.2-0.1-0.2
			c-0.1-0.1-0.1-0.2-0.1-0.3c0,0,0-0.2-0.1-0.2c0-0.1-0.1-0.1-0.1-0.2l0,0c0-0.1-0.1-0.1-0.1-0.2c0-0.1-0.1-0.3-0.1-0.4
			c0,0,0,0,0-0.1c0,0.1,0,0.1,0.1,0.2c0,0,0,0.1,0.1,0.1c0,0,0.1,0,0.1-0.1c0,0,0,0.1,0,0.1c0,0.1,0.1,0.3,0.1,0.4c0,0,0,0,0,0.1
			c0.1,0.1,0.1,0.2,0.1,0.3c0,0.1,0,0.1,0.1,0.2c0,0,0,0.1,0.1,0.1c0,0.1,0,0.1,0.1,0.2c0,0.1,0,0.2,0.1,0.2c0,0.1,0,0.2,0,0.3
			l0,0.1c0,0,0.1,0,0.2,0c0,0,0,0,0.1,0c0,0,0.1,0,0.2,0c0.1,0,0.2,0,0.2-0.1c0.1,0,0.2,0,0.2-0.1l0.1,0c0.1,0,0.1,0,0.1-0.1
			c0.1,0,0.2,0,0.3-0.1l0,0c0.1,0,0.1-0.1,0.2-0.1l0,0c0,0,0,0,0.1-0.1c0.1,0,0.1-0.1,0.2-0.2l0,0c0-0.1-0.1-0.2-0.2-0.2
			c0,0-0.1-0.1-0.1-0.2c0,0,0,0,0-0.1c-0.1,0.1-0.2,0.1-0.2,0.2l-0.1,0c0,0-0.1,0-0.2,0l0-0.1c0,0,0,0,0-0.1l0,0l0,0
			c0,0-0.1,0-0.1,0.1c0-0.1,0-0.1,0-0.2c0,0,0,0,0-0.1c0-0.1-0.1-0.1-0.1-0.2c0-0.1,0-0.2,0-0.2l0,0c0,0,0.1,0.1,0.1,0.1
			c0,0.1,0.1,0.1,0.1,0.2c0,0,0,0,0,0.1c0,0.1,0.1,0.1,0.2,0.1c0,0.1,0.2,0.1,0.2,0c0.1,0,0.1,0,0.1,0c0,0.1,0.1,0.1,0.1,0.1
			s0.1,0,0.1,0s0.1,0.1,0.2,0c0.1,0,0.3,0,0.4,0.1l0,0c0,0.1,0.1,0.2,0.2,0.2s0.1,0.1,0.1,0.1l0,0l0,0c0,0-0.1,0-0.2,0
			c0,0.1,0.1,0.1,0.1,0.1c0.1,0.1,0.2,0.1,0.3,0c0,0,0,0,0.1,0c0,0,0,0.1,0,0.1c0,0,0,0.1,0,0.1c0,0.1,0,0.3,0,0.5
			c0.1,0.2,0.1,0.5,0.2,0.7c0,0,0,0.1,0,0.1c0,0.1,0,0.1,0.1,0c0,0,0.1,0,0.1,0s0,0,0.1,0c0,0,0.1,0,0.1-0.1c0-0.1,0.1-0.2,0.1-0.4
			c0,0,0,0,0-0.1l0.1,0c0.1,0,0.1,0,0.2-0.1c0.2-0.1,0.3-0.2,0.4-0.2c0.1,0,0.1,0,0.1-0.1c0-0.1,0.1-0.1,0.1-0.1
			c0.1,0.1,0.1,0,0.2,0s0.1,0,0.1-0.1c0,0,0.1,0.1,0.1,0.1c0,0.1,0,0.2,0.1,0.2c0,0.1,0.1,0.1,0.1,0.2c0,0.1,0,0.1,0,0.2
			c0,0.1,0.2,0,0.3-0.1c0.1,0,0.1,0.1,0.1,0.2c0,0,0,0.1,0,0.2c0,0.1,0,0.3,0,0.4c0,0.1,0,0.1-0.1,0.2c0,0.1,0,0.1,0.1,0.1
			c0.1,0.1,0.1,0.2,0.1,0.3c0,0.1,0.1,0.3,0.2,0.4c0,0,0,0,0.1,0c0,0,0,0,0-0.1c0,0,0-0.1,0-0.2c0-0.1-0.1-0.3-0.1-0.3
			c-0.1,0-0.1-0.1-0.1-0.1c0,0,0-0.1-0.1-0.2c0,0,0-0.1,0-0.1c0-0.1,0.1-0.2,0.1-0.3l0.1,0c0,0,0,0,0,0.1l0,0c0.1,0,0.1,0,0.2,0.1
			c0,0.1,0.1,0.2,0.2,0.2c0,0,0,0.1,0,0.1c0,0,0,0,0,0.1l0,0c0.1,0,0.1,0,0.1-0.1c0.1,0,0.1-0.1,0.2-0.1c0.1,0,0.2,0,0.2-0.2
			c0-0.1,0-0.2,0-0.3c0,0,0-0.1,0-0.1c-0.1-0.1-0.1-0.2-0.2-0.3c0,0,0,0,0-0.1c0.1-0.1,0.1-0.2,0.3-0.2c0,0,0.1,0,0.1,0
			c0,0.1,0,0.1,0,0.2l0,0c0-0.1,0-0.1,0.1-0.1c0,0,0,0,0.1,0c0,0,0.1,0,0.1,0c0,0,0.1,0,0.1,0c0,0,0,0,0,0s0.1,0,0.2,0
			c0,0,0.1,0,0.1,0c0.1,0,0.1-0.1,0.2-0.1c0.1,0,0.2-0.1,0.2-0.2l0,0c0.1-0.1,0.2-0.2,0.3-0.4c0,0,0-0.1-0.1-0.1c0,0,0.1,0,0.1,0
			l0-0.1l0.1,0c0-0.1-0.1-0.1-0.1-0.2c0-0.1,0-0.2-0.1-0.2c0.1,0,0.1,0,0.1-0.1c0.1,0,0.1,0,0.1,0c0,0,0.1,0,0.2-0.1c0,0,0,0,0.1,0
			l0,0l0,0c-0.1-0.1-0.1-0.1-0.2,0l0,0c0-0.1,0-0.1-0.1-0.1c0,0,0-0.1,0-0.1l0.1,0c0,0,0,0,0.1,0c0.1,0,0.2-0.1,0.2-0.2l0,0
			c0,0,0,0,0,0.1c0,0-0.1,0-0.1,0.1c0,0.1,0,0.1,0,0.1c0.1,0,0.1,0,0.2-0.1c0,0,0.1,0,0.1,0c0,0,0.1,0.1,0.1,0.1
			c0,0-0.1,0.1-0.1,0.2l0,0.1c0.1,0,0.1,0,0.1,0.1c0,0,0,0-0.1,0c0.1,0.1,0,0.2,0,0.3c0.1,0,0.2,0,0.2-0.1c0.1,0,0.1-0.1,0.1-0.2
			c0-0.1-0.1-0.2-0.1-0.3c0-0.1,0-0.1,0-0.1c0.1,0,0.2-0.1,0.2-0.2c0,0,0,0,0.1,0c0.1,0,0.1-0.1,0.2-0.2c0,0,0,0.1,0.1,0.1
			c0.1,0.1,0.2,0,0.3-0.1c0.1-0.1,0.2-0.2,0.4-0.3c0.2-0.4,0.3-0.8,0.4-1.2l0,0c0-0.1-0.1-0.1-0.1-0.1c0,0,0,0,0,0.1
			c0,0-0.1,0-0.1,0c0,0,0,0,0-0.1c0,0-0.1,0-0.1,0l0,0c0,0,0-0.1,0-0.1c0,0-0.1,0-0.1-0.1c0,0,0,0,0,0c0.2-0.1,0.4-0.3,0.6-0.4
			l0.1,0c0,0,0.1,0,0.1-0.1c0-0.3,0.1-0.6,0.2-0.9C149.8,14.5,149.8,13.7,149.8,12.9z"/>
	</g>
	<path class="st40" d="M147.5,19.2l-20.7-3.4c-0.8-0.1-1.4-0.9-1.2-1.7l0.9-5.3c0.1-0.8,0.9-1.4,1.7-1.2l20.7,3.4
		c0.8,0.1,1.4,0.9,1.2,1.7l-0.9,5.3C149.1,18.7,148.3,19.3,147.5,19.2z"/>
	<g>
		<path class="st24" d="M130.3,14.1l-1.1-0.2l-0.7-4.1l1.1,0.2l0.4,2.4l1.1-2.2l1.1,0.2l0.4,2.4l1.1-2.2l1.1,0.2l-2,3.6l-1.1-0.2
			l-0.4-2.2L130.3,14.1z"/>
		<path class="st24" d="M136.8,15.1l-1.1-0.2l-0.7-4.1l1.1,0.2l0.4,2.4l1.1-2.2l1.1,0.2l0.4,2.4l1.1-2.2l1.1,0.2l-2,3.6l-1.1-0.2
			l-0.3-2.2L136.8,15.1z"/>
		<path class="st24" d="M143.2,16.2l-1.1-0.2l-0.7-4.1l1.1,0.2l0.4,2.4l1.1-2.2l1,0.2l0.4,2.4l1.1-2.2l1.1,0.2l-2,3.6l-1.1-0.2
			l-0.4-2.2L143.2,16.2z"/>
	</g>
</g>
<g>
	<path class="st4" d="M48.4,180.1h-20c-0.3,0-0.6,0.4-0.6,0.8v29.2c0,0.4,0.2,0.7,0.6,0.8h20c0.3,0,0.6-0.4,0.6-0.8v-29.2
		C49,180.5,48.8,180.2,48.4,180.1L48.4,180.1z"/>
	<path class="st41" d="M27.8,203.5l20.6-23.4c0,0,0,0,0,0h-6.7l-13.8,15.7V203.5z"/>
	<path class="st42" d="M28.4,210.8h4.5L49,192.5v-5.1L28.4,210.8C28.4,210.8,28.4,210.8,28.4,210.8z"/>
	<path class="st1" d="M27.8,213.8c0,1,0.7,1.9,1.7,1.9h17.8c0.9,0,1.7-0.8,1.7-1.9v-4.4H27.8V213.8z"/>
	<circle class="st43" cx="38.4" cy="212.5" r="2"/>
	<path class="st1" d="M47.3,175.3H29.5c-0.9,0-1.7,0.8-1.7,1.9v4.4H49v-4.4C49,176.1,48.2,175.3,47.3,175.3z"/>
	<g>
		<circle class="st43" cx="34.8" cy="178.4" r="0.9"/>
		<path class="st43" d="M44.9,179.1h-6.3c-0.3,0-0.6-0.3-0.6-0.6c0-0.3,0.3-0.6,0.6-0.6h6.3c0.3,0,0.6,0.3,0.6,0.6
			C45.6,178.8,45.3,179.1,44.9,179.1z"/>
	</g>
</g>
<g>
	<g>
		<g>
			<path class="st28" d="M171.4,28.8l-16.2,4.1c-0.3,0.1-0.5,0.2-0.7,0.4l11,6.6l1.5-2.4c0,0,0,0,0,0s0,0,0,0l5.1-8.6
				C171.9,28.7,171.6,28.7,171.4,28.8z"/>
		</g>
	</g>
	<g>
		<g>
			<path class="st28" d="M173.2,29.3l-4.8,8.1l8.1,4.8c0.1-0.3,0.1-0.5,0-0.8L173.5,30C173.5,29.8,173.3,29.5,173.2,29.3z"/>
		</g>
	</g>
	<g>
		<g>
			<path class="st28" d="M153.9,34.2c-0.1,0.3-0.1,0.5,0,0.8l2.9,11.5c0.1,0.3,0.2,0.5,0.4,0.7l4.8-8.1L153.9,34.2z"/>
		</g>
	</g>
	<g>
		<g>
			<path class="st28" d="M167.7,38.5l-1.5,2.4c-0.1,0.1-0.2,0.2-0.4,0.3c-0.1,0-0.3,0-0.4-0.1l-2.4-1.4l-4.8,8.1
				c0.3,0.1,0.5,0.1,0.8,0l16.2-4.1c0.3-0.1,0.5-0.2,0.7-0.4L167.7,38.5z"/>
		</g>
	</g>
</g>
</svg>
