<?xml version="1.0" encoding="utf-8"?>
<!-- Generator: Adobe Illustrator 22.0.0, SVG Export Plug-In . SVG Version: 6.00 Build 0)  -->
<svg version="1.1" id="Camada_1" xmlns="http://www.w3.org/2000/svg" xmlns:xlink="http://www.w3.org/1999/xlink" x="0px" y="0px"
	 viewBox="0 0 1407.2 1050" style="enable-background:new 0 0 1407.2 1050;" xml:space="preserve">
<style type="text/css">
	.st0{fill:#EDCA33;}
	.st1{fill:#ECECEC;}
	.st2{fill:#B29C36;}
	.st3{opacity:0.15;fill:#808086;enable-background:new    ;}
</style>
<title>logo</title>
<path class="st0" d="M295,103C153.1,103,38.1,217.7,38.1,359.2s115,256.2,256.8,256.2s256.8-114.7,256.8-256.2S436.8,103,295,103z
	 M380.6,334.6c-2.2,5.2-14,12.5-19.8,12.3c-5.5-0.2-7.9-4.2-5-8.8c4.3-6.8,10.8-10.5,18.4-12.4c2.4-0.5,4.8,0.3,6.3,2.2
	C382.1,329.7,381.5,332.4,380.6,334.6L380.6,334.6z M356.2,325.1c-25.6,14.8-52.4,16.2-59.9,3.2s7.2-35.5,32.8-50.3
	s52.4-16.2,59.9-3.2S381.8,310.3,356.2,325.1L356.2,325.1z"/>
<path class="st1" d="M395.4,128.6c-11,0.9-19.9-3.2-27.1-11.3c-4.4-5.6-5.7-12.3-6.2-19.1c-1.9-22.5-4.1-45.1-5.2-67.7
	c-0.7-14.8,9.8-27.8,24.5-30.2c15.2-2.6,30.3,8.5,32.8,21.9c2.4,12.3,2.3,24.8,3.5,37.3c1.2,11.6,1.7,23.2,2.6,34.9
	C421.6,112.4,413,124.3,395.4,128.6z"/>
<path class="st1" d="M614.5,72.8c-0.7,4.8-2.1,9.5-4.1,14c-8.5,19.5-17.1,39-25.8,58.4c-6.3,14.2-18.7,20-31.3,17.6
	c-18.3-3.5-25.3-17.6-24.7-32c0.4-8.6,5.2-16.1,8.5-23.8c6.8-15.7,13.9-31.3,20.7-47c6.3-14.4,18-19.6,30.1-18.4
	C604.5,43.2,613.3,56.7,614.5,72.8z"/>
<path class="st1" d="M236.2,109.2c6.6,10.5,13.3,21,19.9,31.6c20.9,34.1-25.4,66.4-48.6,33.3C197.3,158,186.9,142,176.6,126
	c-3.4-6.5-8.3-12.2-9.4-20.1c-2.5-18.8,9.5-34.4,28.4-34.8c9.3-0.4,18.2,4.1,23.4,11.9C224.9,91.6,230.5,100.5,236.2,109.2z"/>
<path class="st1" d="M61.4,235.4c7.6-0.6,14.4,1.7,21,5.2c17.5,9.2,35,18.4,52.6,27.5c11.4,5.9,16.8,15.4,16.7,27.9
	c-0.1,11.9-5.5,21.1-16.3,26.5c-10.1,5.1-19.9,3.1-29.5-2c-15.7-8.5-31.4-16.7-47.3-24.8c-6.1-3.1-12-6.5-16.7-11.5
	C29.3,265,38,239.4,61.4,235.4z"/>
<path class="st1" d="M768.4,215.9c-0.8,9.2-4.5,17.2-12.2,22.9c-17,12.6-34,25-51,37.4c-20.6,16.2-50-0.6-47.4-26.2
	c0.6-9.1,5.3-17.5,12.8-22.8c16.8-12.2,33.4-24.6,50.3-36.7c16.2-11.7,35.6-7,44.6,10.6C768,205.8,767.8,210.8,768.4,215.9z"/>
<path class="st1" d="M179.1,647.3c-1.1,9.8-4.8,18-12.8,24c-16.9,12.4-33.7,24.9-50.7,37.1c-34,23.5-65.5-24-35.1-48.5
	c17.4-12.8,34.7-25.8,52.3-38.3c9.6-6.8,20.1-7.5,30.6-1.8C174.2,625.6,178.5,635.5,179.1,647.3z"/>
<path class="st2" d="M459.6,548.3c6.6-6.8,13.6-13.1,19.7-20.3c14.9-17.6,27.9-36.6,37.6-57.8c6.3-13.5,11.5-27.6,15.6-41.9
	c4.5-16.5,7.4-33.3,8.7-50.4c2.2-29.2-1.1-57.7-8.5-85.7c-3.8-15-9.3-29.5-16.3-43.2c-0.6-1.4-1-2.8-1.2-4.3
	c23.5,12.3,43,29.3,59.5,50c19.8,25,34.9,52.3,39.8,84.3c6.3,41.2,0.5,79.8-27,112.8c-13.2,15.9-29.6,28-48.2,37.3
	c-16.8,8.4-34.3,14.6-52.8,17.5C477.6,548,468.6,549.1,459.6,548.3z"/>
<path class="st1" d="M42.5,447.6c14.6-1.1,29.2-1.9,43.8-3.3c40.6-5.5,49.1,52.5,11,59.2c-7.6,0.9-15.2,1.5-22.8,2.3
	c-14.5,1-29,1.8-43.5,3.1c-32.3,1.3-42.4-41.8-15.3-56.9c4.3-2.6,9.2-2.7,14-3.2C33.9,448.3,38.2,448,42.5,447.6z"/>
<path class="st1" d="M748.2,495.8c6.5-0.1,12.8,2.4,17.5,7c4.8,4.6,7.5,11,7.4,17.6v357.9c0.1,6.6-2.6,12.9-7.4,17.4
	c-4.6,4.7-10.9,7.4-17.5,7.3h-0.8c-6.6,0.1-12.9-2.6-17.5-7.3c-4.8-4.5-7.5-10.8-7.4-17.4V520.5c-0.1-6.6,2.6-13,7.4-17.6
	c4.7-4.6,11-7.1,17.5-7L748.2,495.8z"/>
<path class="st1" d="M874.2,555.5c-8,0.2-15.7-3-21.3-8.7c-11.6-11.5-11.7-30.3-0.1-41.9c0,0,0.1-0.1,0.1-0.1
	c5.6-5.7,13.3-8.8,21.3-8.7c7.9-0.1,15.5,3,21,8.7c11.6,11,12,29.4,1,41c-0.3,0.3-0.7,0.7-1,1C889.7,552.5,882.1,555.6,874.2,555.5z
	 M874.5,607c6.6-0.1,12.9,2.5,17.5,7.3c4.8,4.6,7.5,11,7.4,17.6v246.5c0.1,6.6-2.6,12.9-7.4,17.4c-4.5,4.8-10.9,7.5-17.5,7.3H874
	c-6.7,0.1-13.1-2.5-17.8-7.3c-4.8-4.5-7.5-10.8-7.4-17.4V631.9c-0.1-6.6,2.6-13,7.4-17.6c4.7-4.8,11.1-7.4,17.8-7.3L874.5,607z"/>
<path class="st1" d="M1015,878.4c0.1,6.6-2.6,12.9-7.4,17.4c-4.6,4.7-10.9,7.4-17.5,7.3h-0.8c-6.6,0.1-12.9-2.6-17.5-7.3
	c-4.8-4.5-7.5-10.8-7.4-17.4V729.3c0-33.6,12-62.5,36.1-86.5c24.1-23.8,53.1-35.8,87.2-35.8c40.7,0,73.4,16.1,98.2,48.3
	c24.6-32.2,57.2-48.3,97.9-48.3c34.1,0,63.2,11.9,87.2,35.8c24.1,24.1,36.1,52.9,36.1,86.5v149.1c0.1,6.5-2.4,12.8-7.1,17.4
	c-4.7,4.8-11.1,7.4-17.8,7.3h-0.5c-6.6,0.1-13-2.5-17.5-7.3c-4.8-4.5-7.5-10.8-7.4-17.4V729.3c0-19.9-7.1-36.9-21.3-51
	s-31.4-21.2-51.7-21.2c-20,0-37.2,7-51.4,21.2c-14.2,14.1-21.3,31.1-21.3,51v149.1c0.1,6.6-2.6,12.9-7.4,17.4
	c-4.5,4.8-10.9,7.5-17.5,7.3h-0.6c-6.7,0.1-13.1-2.5-17.8-7.3c-4.8-4.5-7.5-10.8-7.4-17.4V729.3c0-19.9-7.1-36.9-21.3-51
	c-14.2-14.1-31.3-21.2-51.4-21.2c-20.1,0-37.2,7-51.4,21.2c-14.2,14.1-21.3,31.1-21.3,51L1015,878.4z"/>
<path class="st3" d="M437.1,1006.1c16.5-6.3,28.9-18.1,38.4-33.2c13.1-21,18.4-44.3,16.5-69.4c-0.3-3.5,0-7.1,0.1-10.6
	c0.3-16.7,0.8-33.5,0.3-50.3c-0.1-2.5-0.1-5,1.1-7.2c14.1-1.1,28.3-0.1,42.4-0.2c3.7,0,2.6,3,2.6,5c0,24.2-0.3,48.4-0.2,72.6
	c0.3,16.2-3.1,32.3-9.8,47.1c-11.8,25.4-29.4,43.5-56.3,49.6C460.5,1012.5,448.1,1011.2,437.1,1006.1z"/>
<path class="st1" d="M459.6,546.6c-48.4,0.4-94.4-18.2-133-46.6c-16-11.8-26.4-1.8-40.9,6.4c-2.8,1.8-5,4.5-6.3,7.6
	c-3.6,8.6-1.6,17,6.3,23.2c30.6,24.2,64.4,42.5,101.9,54c1.9,0.5,3.9,0.5,5.9,0.2c137.3,41.7,296.3-49.8,275.5-204.6
	C642.4,148,324,82.2,196.8,281.5c-58.2,93.1-56.3,216.3-4.6,311.8c1.2,2.2,2.2,4.5,4.8,5.5c25.3,44.8,63.5,80.1,92.7,122
	c24.3,38.3,37,59.6,53.4,101.5c0.8,2.1,1.1,27,1.1,29.2c0.2,21.2,1,42.3,0.5,63.5c-2.8,50.8,24.1,102.1,70.7,124.4
	c57.5,29.3,125.7-6,148.8-63c4.9-10.9,10-22.1,10-34.2c-0.1-37.7,0.1-75.5-0.6-113.1c1.3-14.4-11.6-26.6-25.8-24.7
	c-49.8,0-99.6,0-149.4-0.1c-3.8,0-5.5-1-6.9-4.6c-4-10.4-8.7-20.5-12.8-30.9c-15.7-40-37.9-76-65.6-108.8
	c-11.8-14-23.1-28.4-34.6-42.6c0-2.9-1.9-4.9-3.6-6.9c-66.7-77.2-85.2-195.3-35.2-285.9c50.1-96.3,180.9-128.9,274.5-78.6
	c43.8,23.9,77.9,65.3,93.6,112.6c13.3,45.5,8.8,99.9-24.9,135.4C552,527.7,505.2,547.5,459.6,546.6z M396.6,857.9
	c42.5,0.5,85.1,0.3,127.6,0.7c3.1,0,2.2,2.4,2.2,4c0,19.4-0.2,38.9-0.1,58.3c0.4,34.6-20.6,70.5-56.2,77.7
	c-43.6,8.6-78.2-36.8-76.6-77.3c0.2-19.8,0.2-39.7,0.4-59.5C394,859.9,393.3,857.9,396.6,857.9z"/>
<path class="st1" d="M729.7,987.1c-2.6-0.7-5.1-2-7.2-3.7l2.7-6.1c1.9,1.5,4.1,2.6,6.3,3.3c2.4,0.9,5,1.3,7.5,1.3
	c3.1,0,5.5-0.5,7-1.5c1.4-0.8,2.3-2.3,2.3-4c0-1.1-0.4-2.2-1.3-3c-0.9-0.8-2-1.4-3.2-1.8c-1.3-0.4-3.1-0.9-5.4-1.5
	c-2.6-0.6-5.2-1.4-7.8-2.3c-2-0.8-3.7-2-5.1-3.6c-1.5-1.9-2.3-4.2-2.1-6.6c0-2.3,0.6-4.5,1.9-6.3c1.4-2,3.4-3.6,5.7-4.5
	c3-1.2,6.2-1.8,9.3-1.7c2.6,0,5.1,0.3,7.6,1c2.3,0.6,4.5,1.5,6.4,2.8L752,955c-1.8-1.1-3.7-1.9-5.8-2.5c-1.9-0.5-3.9-0.8-5.8-0.8
	c-3.1,0-5.4,0.5-6.9,1.6c-1.4,0.9-2.3,2.5-2.3,4.2c-0.1,1.1,0.4,2.2,1.3,3c1,0.8,2.1,1.4,3.3,1.8c1.3,0.5,3.1,1,5.4,1.5
	c2.6,0.6,5.2,1.3,7.7,2.3c2,0.8,3.7,2,5.1,3.6c1.5,1.8,2.3,4.1,2.1,6.5c0,2.2-0.6,4.5-1.9,6.3c-1.4,2-3.4,3.6-5.8,4.5
	c-3,1.2-6.2,1.8-9.4,1.7C736,988.5,732.8,988,729.7,987.1z"/>
<path class="st1" d="M772,985.7c-3.4-1.8-6.2-4.5-8.1-7.8c-3.9-6.9-3.9-15.3,0-22.2c1.9-3.3,4.8-6,8.1-7.7c7.3-3.7,15.9-3.7,23.2,0
	c3.4,1.8,6.2,4.5,8.1,7.7c3.9,6.9,3.9,15.4,0,22.3c-1.9,3.3-4.7,5.9-8.1,7.7C787.9,989.4,779.2,989.4,772,985.7L772,985.7z
	 M791.1,979.7c2.2-1.2,4.1-3.1,5.3-5.3c2.6-4.7,2.6-10.5,0-15.2c-1.2-2.2-3.1-4.1-5.3-5.3c-4.7-2.5-10.4-2.5-15.2,0
	c-2.2,1.2-4.1,3.1-5.3,5.3c-2.6,4.7-2.6,10.5,0,15.2c1.2,2.2,3.1,4.1,5.3,5.3C780.7,982.3,786.4,982.3,791.1,979.7z"/>
<path class="st1" d="M814.6,945.8h7.8v35.5h22v6.6h-29.8V945.8z"/>
<path class="st1" d="M854.5,983.6c-3.2-3.3-4.9-7.9-4.9-14v-23.8h7.8v23.5c0,8.3,3.6,12.4,10.7,12.4c7.1,0,10.7-4.1,10.6-12.4v-23.5
	h7.7v23.8c0,6.1-1.6,10.8-4.8,14c-3.2,3.2-7.7,4.9-13.6,4.9C862.3,988.5,857.7,986.8,854.5,983.6z"/>
<path class="st1" d="M905.4,985.7c-3.3-1.8-6.1-4.5-8.1-7.7c-3.9-6.9-3.9-15.3,0-22.3c2-3.3,4.8-5.9,8.1-7.7
	c3.5-1.9,7.5-2.9,11.5-2.8c3.2,0,6.4,0.6,9.4,1.8c2.8,1.2,5.3,2.9,7.2,5.2l-5,4.8c-2.9-3.2-7-5-11.3-5c-2.7,0-5.4,0.6-7.8,1.9
	c-2.2,1.2-4.1,3-5.3,5.3c-2.6,4.8-2.6,10.5,0,15.3c1.3,2.2,3.1,4,5.3,5.3c2.4,1.3,5.1,1.9,7.8,1.9c4.3,0.1,8.4-1.8,11.3-5l5,4.8
	c-2,2.3-4.5,4.1-7.3,5.2c-3,1.2-6.2,1.8-9.5,1.8C912.9,988.5,908.9,987.6,905.4,985.7z M908.5,1000.3l1.4-3.5c1.3,0.7,2.7,1,4.1,1
	c2.1,0,3.2-0.7,3.2-2.2c0-0.6-0.3-1.1-0.8-1.5c-0.7-0.4-1.6-0.6-2.4-0.5h-1.9l1.6-6.1h4.1l-0.8,3.4c1.5,0.1,2.8,0.7,3.9,1.7
	c0.9,0.9,1.4,2.1,1.3,3.4c0,1.7-0.8,3.2-2.2,4.2c-1.8,1.1-3.9,1.7-6,1.6C912.1,1001.7,910.2,1001.2,908.5,1000.3z"/>
<path class="st1" d="M948.3,985.7c-3.4-1.8-6.2-4.5-8.1-7.8c-3.9-6.9-3.9-15.3,0-22.2c1.9-3.3,4.7-6,8.1-7.8
	c7.3-3.7,15.9-3.7,23.2,0c3.4,1.8,6.2,4.5,8.1,7.7c3.9,6.9,3.9,15.4,0,22.3c-1.9,3.3-4.8,5.9-8.1,7.7
	C964.2,989.4,955.6,989.4,948.3,985.7L948.3,985.7z M967.5,979.7c2.2-1.2,4.1-3.1,5.3-5.3c2.6-4.7,2.6-10.5,0-15.2
	c-1.2-2.2-3.1-4.1-5.3-5.3c-4.7-2.5-10.4-2.5-15.2,0c-2.2,1.2-4.1,3.1-5.3,5.3c-2.6,4.7-2.6,10.5,0,15.2c1.2,2.2,3.1,4.1,5.3,5.3
	C957.1,982.3,962.7,982.3,967.5,979.7z M961.6,941.7c-1-0.5-1.9-1.1-2.7-1.8c-0.5-0.4-1-0.8-1.6-1.2c-0.4-0.2-0.8-0.4-1.2-0.4
	c-0.8,0-1.6,0.4-2.1,1c-0.6,0.8-0.9,1.7-0.9,2.7h-4c-0.1-2.1,0.6-4.2,1.8-5.9c1.1-1.4,2.8-2.3,4.7-2.2c0.9,0,1.8,0.2,2.6,0.6
	c1,0.5,1.9,1.1,2.7,1.8c0.5,0.4,1,0.8,1.6,1.2c0.4,0.2,0.8,0.4,1.2,0.4c0.8,0,1.6-0.3,2.1-0.9c0.6-0.7,0.9-1.6,0.9-2.5h4
	c0,2.1-0.6,4.1-1.9,5.7c-1.1,1.4-2.8,2.2-4.6,2.2C963.3,942.4,962.4,942.2,961.6,941.7L961.6,941.7z"/>
<path class="st1" d="M1022.4,981.3v6.5h-31.6v-42.1h30.7v6.5h-22.9v11h20.3v6.4h-20.3v11.6L1022.4,981.3z"/>
<path class="st1" d="M1034.8,987.1c-2.6-0.7-5.1-2-7.2-3.7l2.7-6.1c1.9,1.5,4.1,2.6,6.3,3.3c2.4,0.9,5,1.3,7.6,1.3
	c3.1,0,5.5-0.5,7-1.5c1.4-0.8,2.3-2.3,2.3-4c0-1.1-0.4-2.2-1.3-3c-1-0.8-2.1-1.5-3.3-1.8c-1.3-0.4-3.1-0.9-5.4-1.5
	c-2.6-0.6-5.2-1.4-7.8-2.3c-2-0.8-3.7-2-5.1-3.6c-1.5-1.9-2.3-4.2-2.1-6.6c0-2.3,0.6-4.5,1.9-6.3c1.4-2,3.4-3.6,5.7-4.5
	c3-1.2,6.2-1.8,9.3-1.7c2.6,0,5.1,0.3,7.6,1c2.3,0.6,4.5,1.5,6.4,2.8l-2.5,6.1c-1.8-1.1-3.8-1.9-5.8-2.5c-1.9-0.5-3.9-0.8-5.8-0.8
	c-3.1,0-5.4,0.5-6.9,1.6c-1.4,0.9-2.3,2.5-2.3,4.2c-0.1,1.1,0.4,2.2,1.3,3c1,0.8,2.1,1.4,3.3,1.8c1.3,0.5,3.1,1,5.4,1.5
	c2.6,0.6,5.2,1.3,7.7,2.3c2,0.8,3.7,2,5.1,3.6c1.5,1.8,2.3,4.1,2.1,6.5c0,2.2-0.6,4.5-1.9,6.3c-1.4,2-3.4,3.6-5.7,4.5
	c-3,1.2-6.2,1.8-9.4,1.7C1041,988.5,1037.8,988,1034.8,987.1z"/>
<path class="st1" d="M1093.5,985.7c-3.3-1.8-6.1-4.5-8-7.7c-3.9-6.9-3.9-15.3,0-22.3c1.9-3.3,4.7-5.9,8.1-7.7
	c3.5-1.9,7.5-2.8,11.5-2.8c3.2,0,6.4,0.6,9.4,1.8c2.8,1.2,5.3,2.9,7.2,5.2l-5,4.8c-2.9-3.2-7-5-11.3-4.9c-2.7,0-5.4,0.6-7.8,1.9
	c-2.2,1.2-4.1,3-5.3,5.3c-2.6,4.8-2.6,10.5,0,15.3c1.3,2.2,3.1,4,5.3,5.3c2.4,1.3,5.1,1.9,7.8,1.9c4.3,0.1,8.4-1.8,11.3-5l5,4.8
	c-2,2.3-4.5,4.1-7.3,5.2c-3,1.2-6.2,1.8-9.5,1.8C1101,988.5,1097.1,987.6,1093.5,985.7z"/>
<path class="st1" d="M1156.8,987.9l-8.6-12.3c-0.5,0-1.1,0.1-1.6,0.1h-9.5v12.3h-7.8v-42.1h17.3c3.3-0.1,6.5,0.5,9.5,1.8
	c2.5,1.1,4.7,2.9,6.2,5.2c1.5,2.4,2.2,5.2,2.2,8c0.1,2.9-0.7,5.8-2.3,8.2c-1.6,2.4-3.9,4.1-6.6,5.1l9.7,13.8L1156.8,987.9z
	 M1154,954.6c-1.8-1.5-4.3-2.2-7.8-2.2h-9.1v16.8h9.1c3.4,0,6-0.7,7.8-2.2c3.4-3.3,3.5-8.7,0.2-12.2
	C1154.2,954.7,1154.1,954.6,1154,954.6L1154,954.6z"/>
<path class="st1" d="M1173.2,945.8h7.8v42.1h-7.8V945.8z"/>
<path class="st1" d="M1219.7,978.1h-21l-4.2,9.7h-8l18.9-42.1h7.7l19,42.1h-8.2L1219.7,978.1z M1217.1,972l-7.9-18.4l-7.9,18.4
	L1217.1,972z"/>
<path class="st1" d="M1243.9,952.4h-14v-6.6h35.7v6.6h-14v35.5h-7.8L1243.9,952.4z"/>
<path class="st1" d="M1271.5,945.8h7.8v42.1h-7.8V945.8z"/>
<path class="st1" d="M1328.9,945.8l-18.3,42.1h-7.7l-18.4-42.1h8.4l14,32.5l14.1-32.5L1328.9,945.8z"/>
<path class="st1" d="M1359.3,978.1h-21l-4.2,9.7h-8.1l18.9-42.1h7.7l19,42.1h-8.2L1359.3,978.1z M1356.8,972l-7.9-18.4l-7.9,18.4
	L1356.8,972z"/>
<path class="st1" d="M1380.7,987.1c-2.6-0.7-5.1-2-7.2-3.7l2.7-6.1c1.9,1.5,4.1,2.6,6.3,3.3c2.4,0.9,5,1.3,7.6,1.3
	c3.1,0,5.5-0.5,7-1.5c1.4-0.8,2.3-2.3,2.3-4c0-1.1-0.4-2.2-1.3-3c-1-0.8-2.1-1.5-3.3-1.8c-1.3-0.4-3.1-0.9-5.4-1.5
	c-2.6-0.6-5.2-1.4-7.8-2.3c-2-0.8-3.7-2-5.1-3.6c-1.5-1.9-2.3-4.2-2.1-6.6c0-2.3,0.6-4.5,1.9-6.3c1.4-2,3.4-3.6,5.7-4.5
	c3-1.2,6.2-1.8,9.3-1.7c2.6,0,5.1,0.3,7.6,1c2.3,0.6,4.5,1.5,6.4,2.8l-2.4,6.1c-1.8-1.1-3.8-1.9-5.8-2.5c-1.9-0.5-3.9-0.8-5.8-0.8
	c-3.1,0-5.4,0.5-6.9,1.6c-1.4,0.9-2.3,2.5-2.3,4.2c-0.1,1.1,0.4,2.2,1.3,3c1,0.8,2.1,1.4,3.3,1.8c1.3,0.5,3.1,1,5.4,1.5
	c2.6,0.6,5.2,1.3,7.7,2.3c2,0.8,3.7,2,5.1,3.6c1.5,1.8,2.3,4.1,2.1,6.5c0,2.3-0.6,4.5-1.9,6.3c-1.4,2-3.4,3.6-5.7,4.5
	c-3,1.2-6.2,1.8-9.4,1.7C1386.9,988.5,1383.8,988,1380.7,987.1z"/>
</svg>
