<svg id="Camada_1" data-name="Camada 1" xmlns="http://www.w3.org/2000/svg" viewBox="0 0 1407.15 1049.96"><defs><style>.cls-1{fill:#edca33;}.cls-2{fill:#4c4c4c;}.cls-3{fill:#b29c36;}.cls-4{fill:#808086;opacity:0.15;}</style></defs><title>logo</title><path class="cls-1" d="M295,103C153.18,103,38.19,217.67,38.19,359.17S153.18,615.39,295,615.39,551.85,500.68,551.85,359.17,436.87,103,295,103Zm85.65,231.57c-2.18,5.24-14,12.45-19.8,12.25-5.45-.18-7.86-4.2-5-8.77,4.28-6.77,10.79-10.55,18.44-12.4a6.33,6.33,0,0,1,6.32,2.22C382.16,329.71,381.58,332.35,380.67,334.53Zm-24.4-9.46c-25.58,14.77-52.39,16.22-59.89,3.24s7.17-35.48,32.75-50.25,52.39-16.22,59.89-3.24S381.85,310.3,356.27,325.07Z" transform="translate(-0.05)"/><path class="cls-2" d="M395.47,128.62c-11,.94-19.91-3.15-27.14-11.29-4.42-5.59-5.66-12.28-6.22-19.08-1.87-22.55-4.07-45.09-5.17-67.69A29.25,29.25,0,0,1,381.4.37c15.18-2.56,30.25,8.52,32.8,21.89,2.35,12.31,2.27,24.84,3.51,37.25,1.16,11.59,1.72,23.24,2.57,34.86C421.6,112.44,413,124.31,395.47,128.62Z" transform="translate(-0.05)"/><path class="cls-2" d="M614.54,72.77a54,54,0,0,1-4.08,14q-12.8,29.24-25.78,58.38c-6.34,14.17-18.71,20-31.26,17.63-18.32-3.52-25.27-17.65-24.68-32,.36-8.58,5.21-16.05,8.55-23.8,6.76-15.71,13.88-31.27,20.71-47,6.29-14.44,18-19.61,30.09-18.37C604.53,43.23,613.35,56.71,614.54,72.77Z" transform="translate(-0.05)"/><path class="cls-2" d="M236.24,109.22c6.64,10.53,13.32,21,19.89,31.6,20.86,34.05-25.42,66.44-48.55,33.25C197.36,158,187,142,176.65,126c-3.43-6.52-8.3-12.16-9.35-20.06-2.52-18.84,9.52-34.45,28.38-34.85A26.84,26.84,0,0,1,219.1,83C225,91.61,230.54,100.48,236.24,109.22Z" transform="translate(-0.05)"/><path class="cls-2" d="M61.47,235.35c7.57-.6,14.38,1.74,21,5.21q26.27,13.83,52.61,27.5c11.37,5.89,16.79,15.42,16.74,27.89-.06,11.92-5.5,21.11-16.3,26.52-10.11,5.06-19.9,3.14-29.52-2C90.29,312,74.56,303.73,58.71,295.66c-6.12-3.11-12-6.47-16.68-11.52C29.33,265,38,239.41,61.47,235.35Z" transform="translate(-0.05)"/><path class="cls-2" d="M768.4,215.93c-.85,9.23-4.49,17.18-12.15,22.86q-25.43,18.84-51,37.45c-20.58,16.16-50-.65-47.38-26.24a30.12,30.12,0,0,1,12.81-22.76C687.43,215,704.11,202.67,721,190.57c16.24-11.67,35.64-7,44.63,10.62C768,205.77,767.86,210.83,768.4,215.93Z" transform="translate(-0.05)"/><path class="cls-2" d="M179.11,647.25c-1.1,9.79-4.79,18-12.83,24-16.89,12.4-33.68,24.94-50.71,37.14-34,23.53-65.52-24-35.1-48.52,17.38-12.84,34.71-25.76,52.34-38.25,9.58-6.79,20.15-7.51,30.62-1.83C174.27,625.64,178.57,635.48,179.11,647.25Z" transform="translate(-0.05)"/><path class="cls-3" d="M459.63,548.34c6.61-6.75,13.65-13.13,19.74-20.32,14.94-17.65,27.87-36.61,37.57-57.77a279.84,279.84,0,0,0,15.63-41.93,261.46,261.46,0,0,0,8.67-50.38c2.2-29.17-1.11-57.67-8.47-85.72A211.75,211.75,0,0,0,516.45,249a22.16,22.16,0,0,1-1.24-4.25c23.5,12.3,43,29.29,59.48,50,19.83,25,34.86,52.32,39.76,84.28,6.31,41.19.45,79.76-27,112.78-13.21,15.88-29.61,28-48.19,37.26-16.81,8.4-34.26,14.56-52.79,17.47C477.61,548,468.66,549.13,459.63,548.34Z" transform="translate(-0.05)"/><path class="cls-2" d="M42.53,447.6c14.59-1.07,29.21-1.9,43.77-3.29,40.55-5.48,49.07,52.45,11,59.23-7.6.85-15.21,1.53-22.82,2.29-14.51,1-29,1.83-43.53,3.06C-1.39,510.18-11.4,467.1,15.69,452c4.34-2.56,9.19-2.67,14-3.22C33.92,448.28,38.23,448,42.53,447.6Z" transform="translate(-0.05)"/><path class="cls-2" d="M748.21,495.82a24.52,24.52,0,0,1,17.5,7,24,24,0,0,1,7.38,17.63v357.9a23.07,23.07,0,0,1-7.38,17.36,24,24,0,0,1-17.5,7.32h-.82a24,24,0,0,1-17.5-7.32,23.07,23.07,0,0,1-7.38-17.36V520.49a24,24,0,0,1,7.38-17.63,24.5,24.5,0,0,1,17.5-7Z" transform="translate(-0.05)"/><path class="cls-2" d="M874.27,555.47a29.12,29.12,0,0,1-21.33-8.68,29.61,29.61,0,0,1,0-42,29.15,29.15,0,0,1,21.33-8.67,28.84,28.84,0,0,1,21.05,8.67,29,29,0,0,1,0,42A28.81,28.81,0,0,1,874.27,555.47Zm.27,51.51A23.45,23.45,0,0,1,892,614.3a23.94,23.94,0,0,1,7.38,17.63V878.39A23.07,23.07,0,0,1,892,895.75a23.45,23.45,0,0,1-17.5,7.32H874a24.32,24.32,0,0,1-17.77-7.32,23.07,23.07,0,0,1-7.38-17.36V631.93a23.94,23.94,0,0,1,7.38-17.63A24.32,24.32,0,0,1,874,607Z" transform="translate(-0.05)"/><path class="cls-2" d="M1015.09,878.39a23.08,23.08,0,0,1-7.39,17.36,24,24,0,0,1-17.5,7.32h-.82a24,24,0,0,1-17.5-7.32,23.07,23.07,0,0,1-7.38-17.36V729.27q0-50.44,36.09-86.5Q1036.7,607,1087.82,607q61,0,98.16,48.27Q1222.9,607,1283.87,607q51.14,0,87.23,35.79,36.09,36.08,36.1,86.5V878.39a23.53,23.53,0,0,1-7.11,17.36,24.36,24.36,0,0,1-17.78,7.32h-.54a23.42,23.42,0,0,1-17.5-7.32,23,23,0,0,1-7.39-17.36V729.27q0-29.84-21.33-51t-51.68-21.15q-30.07,0-51.4,21.15t-21.33,51V878.39a23.07,23.07,0,0,1-7.38,17.36,23.45,23.45,0,0,1-17.5,7.32h-.55a24.32,24.32,0,0,1-17.77-7.32,23.08,23.08,0,0,1-7.39-17.36V729.27q0-29.84-21.32-51t-51.41-21.15q-30.08,0-51.41,21.15t-21.32,51Z" transform="translate(-0.05)"/><path class="cls-4" d="M437.16,1006.07c16.5-6.26,28.93-18.06,38.42-33.2,13.14-21,18.43-44.26,16.54-69.36-.26-3.5,0-7.06.09-10.59.33-16.74.8-33.49.32-50.25-.07-2.45-.12-5,1.1-7.22,14.14-1.09,28.28-.12,42.42-.16,3.69,0,2.62,3,2.62,5,0,24.18-.31,48.37-.19,72.56a109.17,109.17,0,0,1-9.85,47.13c-11.76,25.39-29.44,43.55-56.28,49.64A53.6,53.6,0,0,1,437.16,1006.07Z" transform="translate(-0.05)"/><path class="cls-2" d="M459.62,546.61c-48.39.39-94.37-18.23-133-46.57-15.95-11.8-26.39-1.84-40.87,6.44a15.65,15.65,0,0,0-6.26,7.59c-3.58,8.58-1.58,17,6.28,23.2,30.65,24.21,64.45,42.53,101.86,54a15.09,15.09,0,0,0,5.9.24c137.27,41.7,296.34-49.75,275.5-204.64C642.43,148,324,82.19,196.89,281.51c-58.19,93.12-56.3,216.28-4.6,311.79,1.18,2.19,2.24,4.52,4.83,5.49,25.31,44.75,63.53,80.09,92.74,122,24.28,38.25,37,59.57,53.4,101.52.78,2.06,1.11,27,1.12,29.21.19,21.15,1,42.32.54,63.46-2.84,50.82,24.11,102.09,70.73,124.44,57.54,29.26,125.71-6,148.8-63,4.91-10.91,10-22.09,10-34.23-.1-37.68.09-75.45-.62-113.09,1.31-14.36-11.58-26.64-25.85-24.67q-74.72,0-149.44-.06c-3.76,0-5.5-1-6.87-4.59-4-10.39-8.69-20.51-12.76-30.87-15.73-40-37.9-76-65.65-108.78-11.82-14-23.08-28.37-34.59-42.58,0-2.94-1.87-4.88-3.59-6.92-66.68-77.16-85.2-195.3-35.23-285.86,50.1-96.33,180.88-128.86,274.5-78.65C558.14,270,592.21,311.42,608,358.77c13.25,45.49,8.78,99.9-24.94,135.41C552,527.7,505.27,547.5,459.62,546.61ZM396.68,857.93c42.54.55,85.06.34,127.56.73,3.14,0,2.24,2.37,2.24,4,0,19.44-.21,38.88-.07,58.31.36,34.56-20.64,70.46-56.23,77.69-43.65,8.58-78.16-36.77-76.58-77.32.19-19.85.23-39.7.35-59.54C394,859.9,393.31,857.89,396.68,857.93Z" transform="translate(-0.05)"/><path class="cls-2" d="M729.79,987.1a19.65,19.65,0,0,1-7.18-3.67l2.7-6.07a21.39,21.39,0,0,0,6.35,3.33,22.83,22.83,0,0,0,7.54,1.3q4.69,0,7-1.51a4.54,4.54,0,0,0,2.31-4,3.84,3.84,0,0,0-1.29-3A9.18,9.18,0,0,0,744,971.7q-2-.66-5.41-1.5a63.17,63.17,0,0,1-7.78-2.28,13,13,0,0,1-5.12-3.58,9.67,9.67,0,0,1-2.13-6.59,11.24,11.24,0,0,1,1.89-6.34,12.87,12.87,0,0,1,5.72-4.54,23.16,23.16,0,0,1,9.35-1.68,30.21,30.21,0,0,1,7.57,1,21,21,0,0,1,6.44,2.76L752,955a24.37,24.37,0,0,0-5.77-2.47,21.67,21.67,0,0,0-5.83-.84c-3.09,0-5.38.52-6.89,1.56a4.84,4.84,0,0,0-2.25,4.15,3.75,3.75,0,0,0,1.29,3,9.28,9.28,0,0,0,3.28,1.8q2,.68,5.41,1.51a57.21,57.21,0,0,1,7.7,2.25,13.28,13.28,0,0,1,5.14,3.58,9.44,9.44,0,0,1,2.13,6.49,11.13,11.13,0,0,1-1.89,6.32,12.94,12.94,0,0,1-5.75,4.51,23.38,23.38,0,0,1-9.38,1.68A32.23,32.23,0,0,1,729.79,987.1Z" transform="translate(-0.05)"/><path class="cls-2" d="M772,985.68a20.6,20.6,0,0,1-8.12-7.75,22.34,22.34,0,0,1,0-22.19A20.7,20.7,0,0,1,772,948a25.53,25.53,0,0,1,23.21,0,20.8,20.8,0,0,1,8.11,7.73,22.45,22.45,0,0,1,0,22.25,20.71,20.71,0,0,1-8.11,7.72,25.45,25.45,0,0,1-23.21,0Zm19.18-5.95a13.65,13.65,0,0,0,5.29-5.29,16,16,0,0,0,0-15.21,13.65,13.65,0,0,0-5.29-5.29,16.05,16.05,0,0,0-15.15,0,13.68,13.68,0,0,0-5.3,5.29,16,16,0,0,0,0,15.21,13.68,13.68,0,0,0,5.3,5.29,16.05,16.05,0,0,0,15.15,0Z" transform="translate(-0.05)"/><path class="cls-2" d="M814.61,945.79h7.82v35.48h22v6.61H814.61Z" transform="translate(-0.05)"/><path class="cls-2" d="M854.54,983.58q-4.87-4.91-4.87-14V945.79h7.81v23.45q0,12.39,10.71,12.39t10.64-12.39V945.79h7.7v23.75q0,9.13-4.84,14t-13.56,4.9Q859.4,988.48,854.54,983.58Z" transform="translate(-0.05)"/><path class="cls-2" d="M905.44,985.68a20.51,20.51,0,0,1-8.06-7.72,22.55,22.55,0,0,1,0-22.25A20.82,20.82,0,0,1,905.5,948,23.7,23.7,0,0,1,917,945.19a24,24,0,0,1,9.44,1.8,19.31,19.31,0,0,1,7.22,5.23l-5,4.75A14.77,14.77,0,0,0,917.37,952a15.73,15.73,0,0,0-7.76,1.9,13.66,13.66,0,0,0-5.35,5.26,16.14,16.14,0,0,0,0,15.27,13.66,13.66,0,0,0,5.35,5.26,15.84,15.84,0,0,0,7.76,1.9,14.69,14.69,0,0,0,11.25-5l5,4.81a19.37,19.37,0,0,1-7.25,5.23,24.25,24.25,0,0,1-9.47,1.8A23.6,23.6,0,0,1,905.44,985.68Zm3.15,14.65,1.39-3.55a8.76,8.76,0,0,0,4.08,1c2.13,0,3.19-.72,3.19-2.16a1.69,1.69,0,0,0-.78-1.45,4.28,4.28,0,0,0-2.41-.54H912.2l1.62-6.13h4.09l-.84,3.37a6.32,6.32,0,0,1,3.91,1.65,4.66,4.66,0,0,1,1.32,3.4,4.86,4.86,0,0,1-2.22,4.15,10.21,10.21,0,0,1-6,1.56A11.33,11.33,0,0,1,908.59,1000.33Z" transform="translate(-0.05)"/><path class="cls-2" d="M948.34,985.68a20.6,20.6,0,0,1-8.12-7.75,22.34,22.34,0,0,1,0-22.19,20.7,20.7,0,0,1,8.12-7.76,25.53,25.53,0,0,1,23.21,0,20.83,20.83,0,0,1,8.12,7.73,22.52,22.52,0,0,1,0,22.25,20.74,20.74,0,0,1-8.12,7.72,25.45,25.45,0,0,1-23.21,0Zm19.18-5.95a13.65,13.65,0,0,0,5.29-5.29,15.95,15.95,0,0,0,0-15.21,13.65,13.65,0,0,0-5.29-5.29,16.05,16.05,0,0,0-15.15,0,13.59,13.59,0,0,0-5.29,5.29,15.95,15.95,0,0,0,0,15.21,13.59,13.59,0,0,0,5.29,5.29,16.05,16.05,0,0,0,15.15,0Zm-5.86-38a23,23,0,0,1-2.74-1.81,16.19,16.19,0,0,0-1.59-1.17,2.34,2.34,0,0,0-1.24-.39,2.59,2.59,0,0,0-2.07,1,4.26,4.26,0,0,0-.87,2.65h-4a9.29,9.29,0,0,1,1.83-5.86,5.7,5.7,0,0,1,4.66-2.2,5.42,5.42,0,0,1,2.62.6,25.2,25.2,0,0,1,2.74,1.81,16.19,16.19,0,0,0,1.59,1.17,2.33,2.33,0,0,0,1.23.39,2.68,2.68,0,0,0,2.08-.9,3.87,3.87,0,0,0,.87-2.53h4a9.4,9.4,0,0,1-1.87,5.72,5.64,5.64,0,0,1-4.63,2.16A5.41,5.41,0,0,1,961.66,941.76Z" transform="translate(-0.05)"/><path class="cls-2" d="M1022.48,981.33v6.55H990.91V945.79h30.73v6.55H998.73v10.95h20.32v6.43H998.73v11.61Z" transform="translate(-0.05)"/><path class="cls-2" d="M1034.84,987.1a19.62,19.62,0,0,1-7.19-3.67l2.71-6.07a21.33,21.33,0,0,0,6.34,3.33,22.89,22.89,0,0,0,7.55,1.3c3.12,0,5.46-.5,7-1.51a4.53,4.53,0,0,0,2.32-4,3.82,3.82,0,0,0-1.3-3,9.22,9.22,0,0,0-3.27-1.84q-2-.66-5.41-1.5a62.87,62.87,0,0,1-7.79-2.28,12.87,12.87,0,0,1-5.11-3.58,9.63,9.63,0,0,1-2.14-6.59,11.17,11.17,0,0,1,1.9-6.34,12.78,12.78,0,0,1,5.71-4.54,23.19,23.19,0,0,1,9.35-1.68,30.29,30.29,0,0,1,7.58,1,21,21,0,0,1,6.43,2.76l-2.46,6.08a24.44,24.44,0,0,0-5.78-2.47,21.62,21.62,0,0,0-5.83-.84q-4.64,0-6.88,1.56a4.83,4.83,0,0,0-2.26,4.15,3.75,3.75,0,0,0,1.29,3,9.37,9.37,0,0,0,3.28,1.8c1.32.45,3.13,1,5.41,1.51a57.21,57.21,0,0,1,7.7,2.25,13.21,13.21,0,0,1,5.14,3.58,9.44,9.44,0,0,1,2.13,6.49,11.13,11.13,0,0,1-1.89,6.32,12.9,12.9,0,0,1-5.74,4.51,23.41,23.41,0,0,1-9.38,1.68A32.13,32.13,0,0,1,1034.84,987.1Z" transform="translate(-0.05)"/><path class="cls-2" d="M1093.58,985.68a20.55,20.55,0,0,1-8-7.72,22.55,22.55,0,0,1,0-22.25,20.82,20.82,0,0,1,8.09-7.73,23.7,23.7,0,0,1,11.51-2.79,24.07,24.07,0,0,1,9.44,1.8,19.31,19.31,0,0,1,7.22,5.23l-5,4.75a14.77,14.77,0,0,0-11.25-4.93,15.71,15.71,0,0,0-7.76,1.9,13.6,13.6,0,0,0-5.35,5.26,16.14,16.14,0,0,0,0,15.27,13.6,13.6,0,0,0,5.35,5.26,15.81,15.81,0,0,0,7.76,1.9,14.69,14.69,0,0,0,11.25-5l5,4.81a19.37,19.37,0,0,1-7.25,5.23,24.29,24.29,0,0,1-9.47,1.8A23.67,23.67,0,0,1,1093.58,985.68Z" transform="translate(-0.05)"/><path class="cls-2" d="M1156.87,987.88l-8.6-12.33a16,16,0,0,1-1.62.06h-9.5v12.27h-7.82V945.79h17.32a23.32,23.32,0,0,1,9.53,1.8,13.82,13.82,0,0,1,6.22,5.17,14.43,14.43,0,0,1,2.17,8,14.23,14.23,0,0,1-2.32,8.18,13.74,13.74,0,0,1-6.64,5.11l9.68,13.83Zm-2.82-33.31c-1.77-1.45-4.35-2.17-7.76-2.17h-9.14v16.78h9.14c3.41,0,6-.73,7.76-2.2a8.61,8.61,0,0,0,0-12.41Z" transform="translate(-0.05)"/><path class="cls-2" d="M1173.29,945.79h7.81v42.09h-7.81Z" transform="translate(-0.05)"/><path class="cls-2" d="M1219.77,978.14h-21l-4.15,9.74h-8l18.94-42.09h7.69l19,42.09H1224Zm-2.59-6.13-7.94-18.41L1201.37,972Z" transform="translate(-0.05)"/><path class="cls-2" d="M1243.94,952.4h-14v-6.61h35.72v6.61h-14v35.48h-7.82Z" transform="translate(-0.05)"/><path class="cls-2" d="M1271.6,945.79h7.82v42.09h-7.82Z" transform="translate(-0.05)"/><path class="cls-2" d="M1329,945.79l-18.34,42.09h-7.69l-18.4-42.09H1293l14,32.47,14.13-32.47Z" transform="translate(-0.05)"/><path class="cls-2" d="M1359.39,978.14h-21l-4.15,9.74h-8.06l18.94-42.09h7.7l19,42.09h-8.18Zm-2.58-6.13-7.94-18.41L1341,972Z" transform="translate(-0.05)"/><path class="cls-2" d="M1380.77,987.1a19.71,19.71,0,0,1-7.19-3.67l2.71-6.07a21.33,21.33,0,0,0,6.34,3.33,22.89,22.89,0,0,0,7.55,1.3q4.69,0,7-1.51a4.53,4.53,0,0,0,2.32-4,3.84,3.84,0,0,0-1.29-3,9.36,9.36,0,0,0-3.28-1.84c-1.32-.44-3.13-.94-5.41-1.5a62.87,62.87,0,0,1-7.79-2.28,12.94,12.94,0,0,1-5.11-3.58,9.67,9.67,0,0,1-2.14-6.59,11.25,11.25,0,0,1,1.9-6.34,12.84,12.84,0,0,1,5.71-4.54,23.19,23.19,0,0,1,9.35-1.68,30.29,30.29,0,0,1,7.58,1,21,21,0,0,1,6.43,2.76L1403,955a24.44,24.44,0,0,0-5.78-2.47,21.62,21.62,0,0,0-5.83-.84q-4.64,0-6.88,1.56a4.83,4.83,0,0,0-2.26,4.15,3.75,3.75,0,0,0,1.29,3,9.46,9.46,0,0,0,3.28,1.8c1.32.45,3.13,1,5.41,1.51a57.21,57.21,0,0,1,7.7,2.25,13.21,13.21,0,0,1,5.14,3.58,9.44,9.44,0,0,1,2.14,6.49,11.14,11.14,0,0,1-1.9,6.32,12.9,12.9,0,0,1-5.74,4.51,23.41,23.41,0,0,1-9.38,1.68A32.13,32.13,0,0,1,1380.77,987.1Z" transform="translate(-0.05)"/></svg>