<?xml version="1.0" encoding="utf-8"?>
<!-- Generator: Adobe Illustrator 24.1.0, SVG Export Plug-In . SVG Version: 6.00 Build 0)  -->
<svg version="1.1" id="Layer_1" xmlns="http://www.w3.org/2000/svg" xmlns:xlink="http://www.w3.org/1999/xlink" x="0px" y="0px"
	 viewBox="0 0 480 480" style="enable-background:new 0 0 480 480;" xml:space="preserve">
<style type="text/css">
	.st0{fill:#929292;}
	.st1{fill:#F6D842;}
	.st2{opacity:0;fill:#ECECEC;}
	.st3{fill:#ECECEC;}
	.st4{fill:#E9C338;}
	.st5{fill:#4C4C4C;}
	.st6{fill:#4D4D4D;}
</style>
<polygon class="st0" points="88,88 72,208 112,208 112,88 "/>
<path class="st1" d="M456,384H24c-8.8,0-16-7.2-16-16V224c0-8.8,7.2-16,16-16h432c8.8,0,16,7.2,16,16v144
	C472,376.8,464.8,384,456,384z"/>
<path class="st2" d="M368,208H112V24c0-8.8,7.2-16,16-16h224c8.8,0,16,7.2,16,16V208z"/>
<polygon class="st0" points="392,88 408,208 368,208 368,88 "/>
<g>
	<circle class="st3" cx="87.3" cy="302.8" r="35.4"/>
	<path class="st3" d="M360,336L360,336c-8.8,0-16-7.2-16-16v-16c0-8.8,7.2-16,16-16l0,0c8.8,0,16,7.2,16,16v16
		C376,328.8,368.8,336,360,336z"/>
	<path class="st3" d="M424,336L424,336c-8.8,0-16-7.2-16-16v-16c0-8.8,7.2-16,16-16l0,0c8.8,0,16,7.2,16,16v16
		C440,328.8,432.8,336,424,336z"/>
</g>
<path class="st4" d="M440,472H40c-8.8,0-16-7.2-16-16v-72h432v72C456,464.8,448.8,472,440,472z"/>
<polygon class="st0" points="344,432 344,416 136,416 136,432 56,432 56,472 424,472 424,432 "/>
<g>
	<path class="st5" d="M456,200h-41L399.9,86.9c-0.5-4-3.9-6.9-7.9-6.9h-16V24c0-13.2-10.8-24-24-24H128c-13.2,0-24,10.8-24,24v56H88
		c-4,0-7.4,3-7.9,6.9L65,200H24c-13.2,0-24,10.8-24,24v144c0,10.4,6.7,19.2,16,22.5V456c0,13.2,10.8,24,24,24h16h368h16
		c13.2,0,24-10.8,24-24v-65.5c9.3-3.3,16-12.1,16-22.5V224C480,210.8,469.2,200,456,200z M385,96l13.9,104H376V96H385z M120,24
		c0-4.4,3.6-8,8-8h224c4.4,0,8,3.6,8,8v64v112H120V88V24z M95,96h9v104H81.1L95,96z M64,464v-24h72c4.4,0,8-3.6,8-8v-8h192v8
		c0,4.4,3.6,8,8,8h72v24H64z M448,456c0,4.4-3.6,8-8,8h-8v-32c0-4.4-3.6-8-8-8h-72v-8c0-4.4-3.6-8-8-8H136c-4.4,0-8,3.6-8,8v8H56
		c-4.4,0-8,3.6-8,8v32h-8c-4.4,0-8-3.6-8-8v-64h416V456z M464,368c0,4.4-3.6,8-8,8H24c-4.4,0-8-3.6-8-8V224c0-4.4,3.6-8,8-8h48h40
		h256h40h48c4.4,0,8,3.6,8,8V368z"/>
	<circle class="st6" cx="240" cy="272" r="8"/>
	<circle class="st6" cx="272" cy="272" r="8"/>
	<circle class="st6" cx="208" cy="272" r="8"/>
	<path class="st6" d="M87.3,259.4c-23.9,0-43.4,19.5-43.4,43.4s19.5,43.4,43.4,43.4s43.4-19.5,43.4-43.4
		C130.8,278.9,111.3,259.4,87.3,259.4z M87.3,330.2c-15.1,0-27.4-12.3-27.4-27.4c0-12.6,8.5-23.1,20.1-26.3V304c0,4.4,3.6,8,8,8
		s8-3.6,8-8v-27c10.9,3.6,18.8,13.8,18.8,25.9C114.8,318,102.4,330.2,87.3,330.2z"/>
	<path class="st6" d="M360,280c-13.2,0-24,10.8-24,24v16c0,13.2,10.8,24,24,24s24-10.8,24-24v-16C384,290.8,373.2,280,360,280z
		 M368,320c0,4.4-3.6,8-8,8s-8-3.6-8-8v-16c0-4.4,3.6-8,8-8s8,3.6,8,8V320z"/>
	<path class="st6" d="M424,280c-13.2,0-24,10.8-24,24v16c0,13.2,10.8,24,24,24s24-10.8,24-24v-16C448,290.8,437.2,280,424,280z
		 M432,320c0,4.4-3.6,8-8,8s-8-3.6-8-8v-16c0-4.4,3.6-8,8-8s8,3.6,8,8V320z"/>
	<path class="st6" d="M296,304H184c-4.4,0-8,3.6-8,8s3.6,8,8,8h112c4.4,0,8-3.6,8-8S300.4,304,296,304z"/>
</g>
</svg>
