<?xml version="1.0" encoding="utf-8"?>
<!-- Generator: Adobe Illustrator 24.0.3, SVG Export Plug-In . SVG Version: 6.00 Build 0)  -->
<svg version="1.1" id="Camada_1" xmlns="http://www.w3.org/2000/svg" xmlns:xlink="http://www.w3.org/1999/xlink" x="0px" y="0px"
	 viewBox="0 0 499 561.3" style="enable-background:new 0 0 499 561.3;" xml:space="preserve">
<style type="text/css">
	.st0{opacity:3.000000e-02;enable-background:new    ;}
	.st1{fill:url(#SVGID_1_);}
	.st2{clip-path:url(#SVGID_3_);}
	.st3{fill:url(#SVGID_4_);}
	.st4{fill:url(#SVGID_5_);}
	.st5{fill:#F9FBFC;}
</style>
<title>shape</title>
<path class="st0" d="M465.3,556.6c45.2-18.4,38.1-56.2,18.2-73.4c-28.2-24.3-46.3-14.8-28.7-70.5c6-18.8,4.7-40.8-7.3-57.2
	c-8.6-11.8-22.5-19.7-37-20.4c-8.1-0.4-16.1,1.4-24.2,1.8s-16.8-0.8-22.9-6.1c-5.9-5.2-8.2-13.3-9-21c-1.9-18.7,4-37.6,0.4-56.2
	c-3-15.6-12.5-32.2-26.1-40.8c-17.9-11.3-40.9-9-60.7-5.4c-23.3,4.4-45.5,13.1-65.6,25.7c-25.7,15.9-47.8,37.2-66.3,61.1
	c-16.5,21.3-30.3,45-37.8,70.8c-12,40.8-9.8,102.1,38.6,117.5c58.2,18.5,73.1-39.1,88.6,12.9c9.3,31.1,48.6,71,104.2,31.6
	S400.3,583.1,465.3,556.6z"/>
<linearGradient id="SVGID_1_" gradientUnits="userSpaceOnUse" x1="324.0336" y1="391.3266" x2="21.3765" y2="281.1722" gradientTransform="matrix(1 0 0 -1 -0.5 611.91)">
	<stop  offset="0" style="stop-color:#D4A223"/>
	<stop  offset="1" style="stop-color:#FFE64A"/>
</linearGradient>
<path class="st1" d="M351.4,409.2c-15.2,44.9-52.3,40.1-70.1,21.8c-25.2-26-17.1-44.1-70-23.8c-18,6.9-39.3,6.9-55.9-3.8
	c-11.9-7.7-20.4-20.7-21.9-34.7c-0.8-7.8,0.4-15.7,0.4-23.6s-1.7-16.3-7.3-21.9c-5.3-5.4-13.3-7.2-20.9-7.5
	c-18.2-0.8-36.3,6-54.5,3.6c-15.4-2-31.9-10.2-41-23c-11.9-16.7-11.1-39.1-8.7-58.5c2.9-22.8,10.1-44.9,21.1-65.1
	c13.9-25.8,33.3-48.5,55.4-67.8c19.7-17.2,41.9-31.9,66.5-40.8c38.9-14,98.5-15.3,116.2,30.7c21.3,55.4-37.1,78,14.1,90.1
	c30.7,7.2,75.1,38.2,40,94.3S373.4,344.5,351.4,409.2z"/>
<g>
	<defs>
		<path id="SVGID_2_" d="M361.3,401.5c-15.2,44.9-52.4,40.1-70.1,21.8c-25.2-26-17-44.1-70-23.8c-18,6.9-39.3,6.9-55.9-3.8
			c-11.9-7.7-20.4-20.7-21.9-34.7c-0.8-7.8,0.4-15.7,0.4-23.6s-1.7-16.3-7.3-21.9c-5.3-5.4-13.3-7.2-20.9-7.5
			c-18.2-0.8-36.3,6-54.5,3.6c-15.4-2-31.9-10.2-41-23C8.1,272,9,249.5,11.3,230.1c2.9-22.8,10.1-44.9,21.2-65.1
			c13.9-25.8,33.3-48.5,55.4-67.8c19.7-17.2,41.8-31.9,66.4-40.8c38.9-14,98.5-15.3,116.2,30.7c21.3,55.4-37.1,78,14.1,90.1
			c30.7,7.2,75.1,38.2,40,94.3S383.2,336.9,361.3,401.5z"/>
	</defs>
	<clipPath id="SVGID_3_">
		<use xlink:href="#SVGID_2_"  style="overflow:visible;"/>
	</clipPath>
	<g class="st2">
		
			<linearGradient id="SVGID_4_" gradientUnits="userSpaceOnUse" x1="316.7912" y1="489.3242" x2="87.9148" y2="260.4478" gradientTransform="matrix(1 0 0 -1 -0.5 611.91)">
			<stop  offset="0" style="stop-color:#D4A223"/>
			<stop  offset="1" style="stop-color:#FFE64A"/>
		</linearGradient>
		<path class="st3" d="M372.4,347.3c-8.9,46.5-46.3,47-66.4,31.3c-28.6-22.2-23-41.3-72.6-13.9c-16.9,9.3-38,12.3-55.9,4
			c-12.9-6-23.1-17.6-26.5-31.4c-1.9-7.6-1.7-15.6-2.9-23.4s-4-15.9-10.2-20.6c-6-4.6-14.2-5.3-21.8-4.6
			c-18.2,1.8-35.1,11-53.5,11.1c-15.5,0.1-33-5.7-43.8-17.1C4.6,267.9,2.4,245.6,2,226c-0.2-23,3.8-45.9,11.9-67.4
			c10.2-27.5,26.3-52.7,45.5-74.9c17.1-19.7,37-37.4,60.1-49.6C156.2,15,215.1,5.4,238.9,48.5c28.8,51.9-26,82.4,26.5,87.3
			c31.4,2.9,79.7,27.4,52.7,87.9S385.2,280.3,372.4,347.3z"/>
		<linearGradient id="SVGID_5_" gradientUnits="userSpaceOnUse" x1="294.6899" y1="61.4813" x2="132.1036" y2="343.0891">
			<stop  offset="0" style="stop-color:#D4A223"/>
			<stop  offset="1" style="stop-color:#FFE64A"/>
		</linearGradient>
		<path class="st4" d="M384.3,308c-4,47.2-43.5,65.6-65.2,52.1c-30.7-19.1-24.8-52.7-71.3-20.2c-15.8,11-36.5,16.2-55.1,9.8
			c-13.4-4.6-24.8-15.1-29.7-28.4c-2.7-7.4-3.4-15.4-5.3-23s-5.6-15.4-12.3-19.5c-6.5-3.9-14.7-3.8-22.1-2.2
			c-17.9,3.7-33.7,14.6-52,16.7c-15.4,1.7-33.4-2.2-45.4-12.4c-15.6-13.3-20.2-35.3-22.6-54.7c-2.7-22.9-1-46,4.8-68.2
			c7.3-28.4,20.6-55.1,37.4-79.2c15-21.4,32.9-41.1,54.7-55.6c34.4-22.9,91.9-38.6,120.2,1.8c34.1,48.6-17.2,84.7,35.5,84
			c31.5-0.4,82.1,18.9,61.6,81.9S390,240,384.3,308z"/>
	</g>
</g>
<g id="Designed_by_Freepik">
	<path class="st5" d="M260.9,512.8c-0.5,0.5-0.9,1-1.2,1.7l-0.5-0.3c-0.1-0.3-0.4-0.6-0.8-0.5c-0.4,0.1-0.6,0.4-0.6,0.8
		c0.1,0.4,0.4,0.6,0.7,0.6h0.2l0.5,0.3c-0.3,0.6-0.5,1.3-0.6,2l0.9,0.2c0.3-1.5,1-2.9,2-3.9L260.9,512.8z"/>
	<path class="st5" d="M267.2,510.2h-0.6l-0.1-0.7c0.4-0.3,0.4-0.8,0.1-1.2c-0.3-0.4-0.8-0.4-1.2-0.1c-0.4,0.3-0.4,0.8-0.1,1.2
		c0.1,0.1,0.2,0.2,0.3,0.2l0.1,0.7c-0.8,0.1-1.6,0.4-2.3,0.7l0.4,0.8c1.6-0.8,3.4-1,5.1-0.6l0.2-0.8
		C268.4,510.3,267.8,510.2,267.2,510.2z"/>
	<path class="st5" d="M274.6,513.1c0.4,0,0.6-0.4,0.6-0.8s-0.4-0.6-0.8-0.6c-0.3,0-0.6,0.3-0.6,0.7l-0.5,0.4c-0.5-0.5-1-0.9-1.6-1.3
		l-0.5,0.7c1.3,0.8,2.3,1.9,2.9,3.3l0.8-0.4c-0.3-0.6-0.6-1.2-1.1-1.8l0.5-0.4C274.5,513.1,274.6,513.1,274.6,513.1z"/>
	<path class="st5" d="M266.5,521.8h-1.3c-0.9,0-1.9-0.1-2.8-0.2c-0.5-0.1-1-0.2-1.4-0.3c1.9,3.4,6.2,4.6,9.5,2.7
		c1.6-0.9,2.8-2.4,3.3-4.2c-0.9,0.6-1.8,1-2.8,1.3C269.5,521.4,268,521.7,266.5,521.8z"/>
	<path class="st5" d="M267.2,511.9c-3.8,0-6.8,3-6.9,6.7c0,0.5,0.1,1,0.2,1.4c0.8,0.5,3.1,1,6,0.8c3.3-0.2,6-1.1,7.6-2.5
		c0-0.2,0-0.4,0-0.6C273.5,514.4,270.6,511.9,267.2,511.9z M264.7,519.3c-1.2,0-2.1-0.9-2.1-2.1c0-1.2,0.9-2.1,2.1-2.1
		c1.2,0,2.1,0.9,2.1,2.1c0,0,0,0,0,0C266.8,518.4,265.9,519.3,264.7,519.3z M270.1,518.3c-0.9,0-1.5-0.7-1.5-1.5
		c0-0.9,0.7-1.5,1.5-1.5c0.9,0,1.5,0.7,1.5,1.5C271.6,517.6,270.9,518.3,270.1,518.3L270.1,518.3z"/>
	<path class="st5" d="M285.3,514c-0.5-0.2-1-0.3-1.6-0.3c-0.6,0.1-1,0.4-1,1.1v1h2.5v1.9h-2.5v6.2h-2.2v-6.2H279v-1.9h1.5v-1
		c0-1.9,1-3.1,2.9-3.1c0.6,0,1.2,0.1,1.8,0.3L285.3,514z"/>
	<path class="st5" d="M290.6,517.8c-0.2,0-0.4,0-0.6,0c-0.9-0.1-1.7,0.6-1.7,1.5c0,0.1,0,0.2,0,0.3v4.4h-2.2v-8.1h2.1v0.9
		c0.5-0.8,1.4-1.2,2.3-1.1c0.4,0,0.9,0.1,1.2,0.4L290.6,517.8z"/>
	<path class="st5" d="M299.3,519.9c0,0.2,0,0.5,0,0.7h-5.7c0.2,1,1.1,1.7,2.1,1.7c0.8,0,1.5-0.3,2.1-0.8l1.3,1.4
		c-0.9,0.8-2.2,1.3-3.4,1.2c-2.4-0.1-4.2-2.1-4.1-4.4c0.1-2.2,1.8-4,4-4.1C297.7,515.7,299.3,517.4,299.3,519.9z M293.5,519.1h3.6
		c-0.1-0.9-0.8-1.6-1.8-1.6C294.4,517.5,293.6,518.2,293.5,519.1L293.5,519.1z"/>
	<path class="st5" d="M308,519.9c0,0.2,0,0.5,0,0.7h-5.8c0.2,1,1.1,1.7,2.1,1.7c0.8,0,1.5-0.3,2-0.8l1.3,1.4c-1,0.8-2.2,1.3-3.5,1.2
		c-2.4-0.1-4.2-2.1-4.1-4.4c0.1-2.2,1.8-4,4-4.1C306.3,515.7,307.9,517.4,308,519.9z M302.2,519.1h3.6c-0.1-0.9-0.8-1.6-1.8-1.6
		C303,517.5,302.2,518.2,302.2,519.1L302.2,519.1z"/>
	<path class="st5" d="M317.4,519.9c0.2,2.2-1.5,4.1-3.7,4.3c-0.1,0-0.1,0-0.2,0c-0.9,0-1.8-0.4-2.4-1.1v4.2h-2.2v-11.4h2.1v0.9
		c0.6-0.7,1.5-1.2,2.4-1.1c2.2,0,4,1.8,3.9,4.1C317.4,519.8,317.4,519.9,317.4,519.9z M311,519.9c0.1,1.2,1.1,2,2.2,2
		c1.2-0.1,2-1.1,2-2.2c-0.1-1.1-1-2-2.1-2c-1.1,0-2.1,0.9-2.1,2.1C311,519.8,311,519.9,311,519.9z"/>
	<path class="st5" d="M320.9,513.2c0,0.8-0.6,1.4-1.4,1.4c-0.8,0-1.4-0.6-1.4-1.4c0-0.8,0.6-1.4,1.4-1.4
		C320.3,511.8,320.9,512.4,320.9,513.2C320.9,513.2,320.9,513.2,320.9,513.2z M320.6,524h-2.2v-8.1h2.2V524z"/>
	<path class="st5" d="M324.3,518.8l3.1-2.9h2.7l-3.9,3.8l4,4.3h-2.7l-3.1-3.3v3.3h-2.2v-12.1h2.2L324.3,518.8z"/>
	<path class="st5" d="M175.2,523.9v-1.2c-0.6,0.9-1.6,1.4-2.7,1.4c-2.1,0-3.6-1.6-3.6-4.2c0-2.6,1.5-4.2,3.6-4.2
		c1.1,0,2.1,0.5,2.7,1.4v-4.2h1.3v11H175.2z M175.2,521.7v-3.6c-0.5-0.8-1.4-1.3-2.4-1.3c-1.6,0-2.6,1.3-2.6,3.1
		c0,1.8,1,3.1,2.6,3.1C173.8,523,174.7,522.5,175.2,521.7L175.2,521.7z"/>
	<path class="st5" d="M178.1,519.9c-0.1-2.2,1.6-4.1,3.8-4.2c0,0,0.1,0,0.1,0c2.4,0,3.9,1.9,3.9,4.3v0.3h-6.5c0,1.6,1.3,2.8,2.9,2.8
		c0,0,0,0,0,0c0.9,0,1.8-0.4,2.5-1l0.6,0.8c-0.9,0.8-2,1.3-3.2,1.2c-2.2,0-4-1.7-4.1-3.9C178.1,520.1,178.1,520,178.1,519.9z
		 M182,516.7c-1.5,0-2.6,1.2-2.6,2.7h5.3c0-1.4-1.1-2.6-2.5-2.7C182.1,516.7,182,516.7,182,516.7z"/>
	<path class="st5" d="M186.8,522.9l0.6-0.9c0.7,0.7,1.6,1.1,2.6,1.1c1.2,0,1.9-0.6,1.9-1.4c0-1.9-5-0.8-5-3.7c0-1.2,1.1-2.3,3-2.3
		c1.1-0.1,2.2,0.4,3,1.2l-0.6,0.9c-0.6-0.7-1.5-1-2.4-1c-1.1,0-1.8,0.5-1.8,1.3c0,1.8,5,0.6,5,3.7c0,1.4-1.1,2.4-3.1,2.4
		C188.8,524.2,187.6,523.8,186.8,522.9z"/>
	<path class="st5" d="M194.6,513.9c0-0.5,0.4-0.8,0.8-0.8c0.5,0,0.8,0.4,0.8,0.8c0,0,0,0,0,0c0,0.5-0.4,0.8-0.8,0.8
		C194.9,514.7,194.6,514.4,194.6,513.9z M194.8,523.9v-8h1.2v8H194.8z"/>
	<path class="st5" d="M198.1,526l0.6-0.9c0.6,0.8,1.6,1.2,2.6,1.1c1.3,0.2,2.4-0.7,2.6-2c0-0.1,0-0.3,0-0.4v-1.1
		c-0.6,0.9-1.6,1.4-2.7,1.4c-2.1,0-3.6-1.6-3.6-4.1c0-2.6,1.5-4.2,3.6-4.2c1.1,0,2.1,0.5,2.7,1.4v-1.2h1.2v7.8
		c0,2.7-1.9,3.5-3.8,3.5C200.1,527.3,198.9,526.8,198.1,526z M203.9,521.6v-3.5c-0.5-0.8-1.4-1.3-2.4-1.3c-1.6,0-2.6,1.3-2.6,3
		c0,1.8,1,3,2.6,3C202.4,522.9,203.3,522.4,203.9,521.6L203.9,521.6z"/>
	<path class="st5" d="M212.6,523.9v-5.2c0-1.4-0.7-1.8-1.8-1.8c-0.9,0-1.8,0.5-2.4,1.2v5.9h-1.2v-8h1.2v1.2c0.7-0.8,1.8-1.3,2.9-1.4
		c1.2-0.2,2.4,0.7,2.6,1.9c0,0.2,0,0.4,0,0.6v5.6H212.6z"/>
	<path class="st5" d="M215.5,519.9c-0.1-2.2,1.6-4.1,3.8-4.2c0.1,0,0.1,0,0.2,0c2.4,0,3.9,1.9,3.9,4.3v0.3h-6.5
		c0,1.6,1.3,2.8,2.9,2.8c0,0,0,0,0,0c0.9,0,1.8-0.4,2.5-1l0.6,0.8c-0.9,0.8-2,1.3-3.2,1.2c-2.2,0.1-4.1-1.7-4.1-3.9
		C215.5,520.2,215.5,520,215.5,519.9z M219.4,516.7c-1.5,0-2.6,1.2-2.6,2.7h5.3c0-1.4-1.1-2.6-2.5-2.7
		C219.5,516.7,219.4,516.7,219.4,516.7L219.4,516.7z"/>
	<path class="st5" d="M230.6,523.9v-1.2c-0.6,0.9-1.6,1.4-2.7,1.4c-2.1,0-3.6-1.6-3.6-4.2c0-2.6,1.5-4.2,3.6-4.2
		c1.1,0,2.1,0.5,2.7,1.4v-4.2h1.2v11H230.6z M230.6,521.7v-3.6c-0.5-0.8-1.4-1.3-2.4-1.3c-1.6,0-2.6,1.3-2.6,3.1
		c0,1.8,1,3.1,2.6,3.1C229.2,523,230.1,522.5,230.6,521.7L230.6,521.7z"/>
	<path class="st5" d="M237.8,523.9v-11h1.2v4.3c0.6-0.9,1.6-1.4,2.7-1.4c2.1,0,3.6,1.7,3.6,4.2s-1.5,4.2-3.6,4.2
		c-1.1,0-2.1-0.5-2.7-1.4v1.1H237.8z M241.5,523c1.6,0,2.6-1.3,2.6-3.1c0-1.8-1-3.1-2.6-3.1c-1,0-1.8,0.5-2.4,1.3v3.6
		C239.6,522.5,240.5,523,241.5,523L241.5,523z"/>
	<path class="st5" d="M246.7,525.9c0.2,0.1,0.4,0.1,0.7,0.1c0.6,0,1.1-0.3,1.2-0.8l0.5-1.2l-3.4-8.1h1.3l2.7,6.6l2.6-6.6h1.4l-4,9.6
		c-0.3,1-1.3,1.7-2.4,1.6c-0.3,0-0.6,0-0.9-0.1L246.7,525.9z"/>
</g>
</svg>
