<?xml version="1.0" encoding="utf-8"?>
<!-- Generator: Adobe Illustrator 24.0.3, SVG Export Plug-In . SVG Version: 6.00 Build 0)  -->
<svg version="1.1" id="Camada_1" xmlns="http://www.w3.org/2000/svg" xmlns:xlink="http://www.w3.org/1999/xlink" x="0px" y="0px"
	 viewBox="0 0 499 561.3" style="enable-background:new 0 0 499 561.3;" xml:space="preserve">
<style type="text/css">
	.st0{opacity:3.000000e-02;enable-background:new    ;}
	.st1{fill:url(#SVGID_1_);}
	.st2{clip-path:url(#SVGID_3_);}
	.st3{fill:url(#SVGID_4_);}
	.st4{fill:url(#SVGID_5_);}
</style>
<title>shape</title>
<path class="st0" d="M465.3,556.6c45.2-18.4,38.1-56.2,18.2-73.4c-28.2-24.3-46.3-14.8-28.7-70.5c6-18.8,4.7-40.8-7.3-57.2
	c-8.6-11.8-22.5-19.7-37-20.4c-8.1-0.4-16.1,1.4-24.2,1.8s-16.8-0.8-22.9-6.1c-5.9-5.2-8.2-13.3-9-21c-1.9-18.7,4-37.6,0.4-56.2
	c-3-15.6-12.5-32.2-26.1-40.8c-17.9-11.3-40.9-9-60.7-5.4c-23.3,4.4-45.5,13.1-65.6,25.7c-25.7,15.9-47.8,37.2-66.3,61.1
	c-16.5,21.3-30.3,45-37.8,70.8c-12,40.8-9.8,102.1,38.6,117.5c58.2,18.5,73.1-39.1,88.6,12.9c9.3,31.1,48.6,71,104.2,31.6
	S400.3,583.1,465.3,556.6z"/>
<linearGradient id="SVGID_1_" gradientUnits="userSpaceOnUse" x1="324.0381" y1="400.6676" x2="21.3824" y2="510.8214" gradientTransform="matrix(1 0 0 1 -0.5 -180.09)">
	<stop  offset="0" style="stop-color:#D4A223"/>
	<stop  offset="1" style="stop-color:#FFE64A"/>
</linearGradient>
<path class="st1" d="M351.4,409.2c-15.2,44.9-52.3,40.1-70.1,21.8c-25.2-26-17.1-44.1-70-23.8c-18,6.9-39.3,6.9-55.9-3.8
	c-11.9-7.7-20.4-20.7-21.9-34.7c-0.8-7.8,0.4-15.7,0.4-23.6s-1.7-16.3-7.3-21.9c-5.3-5.4-13.3-7.2-20.9-7.5
	c-18.2-0.8-36.3,6-54.5,3.6c-15.4-2-31.9-10.2-41-23c-11.9-16.7-11.1-39.1-8.7-58.5c2.9-22.8,10.1-44.9,21.1-65.1
	c13.9-25.8,33.3-48.5,55.4-67.8c19.7-17.2,41.9-31.9,66.5-40.8c38.9-14,98.5-15.3,116.2,30.7c21.3,55.4-37.1,78,14.1,90.1
	c30.7,7.2,75.1,38.2,40,94.3S373.4,344.5,351.4,409.2z"/>
<g>
	<g>
		<defs>
			<path id="SVGID_2_" d="M361.3,401.5c-15.2,44.9-52.4,40.1-70.1,21.8c-25.2-26-17-44.1-70-23.8c-18,6.9-39.3,6.9-55.9-3.8
				c-11.9-7.7-20.4-20.7-21.9-34.7c-0.8-7.8,0.4-15.7,0.4-23.6s-1.7-16.3-7.3-21.9c-5.3-5.4-13.3-7.2-20.9-7.5
				c-18.2-0.8-36.3,6-54.5,3.6c-15.4-2-31.9-10.2-41-23C8.1,272,9,249.5,11.3,230.1c2.9-22.8,10.1-44.9,21.2-65.1
				c13.9-25.8,33.3-48.5,55.4-67.8c19.7-17.2,41.8-31.9,66.4-40.8c38.9-14,98.5-15.3,116.2,30.7c21.3,55.4-37.1,78,14.1,90.1
				c30.7,7.2,75.1,38.2,40,94.3S383.2,336.9,361.3,401.5z"/>
		</defs>
		<clipPath id="SVGID_3_">
			<use xlink:href="#SVGID_2_"  style="overflow:visible;"/>
		</clipPath>
		<g class="st2">
			
				<linearGradient id="SVGID_4_" gradientUnits="userSpaceOnUse" x1="316.7594" y1="302.6197" x2="87.9335" y2="531.4456" gradientTransform="matrix(1 0 0 1 -0.5 -180.09)">
				<stop  offset="0" style="stop-color:#D4A223"/>
				<stop  offset="1" style="stop-color:#FFE64A"/>
			</linearGradient>
			<path class="st3" d="M372.4,347.3c-8.9,46.5-46.3,47-66.4,31.3c-28.6-22.2-23-41.3-72.6-13.9c-16.9,9.3-38,12.3-55.9,4
				c-12.9-6-23.1-17.6-26.5-31.4c-1.9-7.6-1.7-15.6-2.9-23.4s-4-15.9-10.2-20.6c-6-4.6-14.2-5.3-21.8-4.6
				c-18.2,1.8-35.1,11-53.5,11.1c-15.5,0.1-33-5.7-43.8-17.1C4.6,267.9,2.4,245.6,2,226c-0.2-23,3.8-45.9,11.9-67.4
				c10.2-27.5,26.3-52.7,45.5-74.9c17.1-19.7,37-37.4,60.1-49.6C156.2,15,215.1,5.4,238.9,48.5c28.8,51.9-26,82.4,26.5,87.3
				c31.4,2.9,79.7,27.4,52.7,87.9S385.2,280.3,372.4,347.3z"/>
			
				<linearGradient id="SVGID_5_" gradientUnits="userSpaceOnUse" x1="294.6753" y1="502.4814" x2="132.1181" y2="220.9239" gradientTransform="matrix(1 0 0 -1 0 564)">
				<stop  offset="0" style="stop-color:#D4A223"/>
				<stop  offset="1" style="stop-color:#FFE64A"/>
			</linearGradient>
			<path class="st4" d="M384.3,308c-4,47.2-43.5,65.6-65.2,52.1c-30.7-19.1-24.8-52.7-71.3-20.2c-15.8,11-36.5,16.2-55.1,9.8
				c-13.4-4.6-24.8-15.1-29.7-28.4c-2.7-7.4-3.4-15.4-5.3-23s-5.6-15.4-12.3-19.5c-6.5-3.9-14.7-3.8-22.1-2.2
				c-17.9,3.7-33.7,14.6-52,16.7c-15.4,1.7-33.4-2.2-45.4-12.4c-15.6-13.3-20.2-35.3-22.6-54.7c-2.7-22.9-1-46,4.8-68.2
				c7.3-28.4,20.6-55.1,37.4-79.2c15-21.4,32.9-41.1,54.7-55.6c34.4-22.9,91.9-38.6,120.2,1.8c34.1,48.6-17.2,84.7,35.5,84
				c31.5-0.4,82.1,18.9,61.6,81.9S390,240,384.3,308z"/>
		</g>
	</g>
</g>
</svg>
