<?xml version="1.0" encoding="utf-8"?>
<!-- Generator: Adobe Illustrator 22.0.0, SVG Export Plug-In . SVG Version: 6.00 Build 0)  -->
<svg version="1.1" id="Layer_1" xmlns="http://www.w3.org/2000/svg" xmlns:xlink="http://www.w3.org/1999/xlink" x="0px" y="0px"
	 viewBox="0 0 512 512" style="enable-background:new 0 0 512 512;" xml:space="preserve">
<style type="text/css">
	.st0{fill:#F6D842;}
	.st1{fill:#929292;}
	.st2{fill:#B3B3B3;}
	.st3{fill:#E6E6E6;}
	.st4{fill:#CCCCCC;}
	.st5{fill:#4C4C4C;}
</style>
<g id="surface1">
	<path class="st0" d="M7.6,467.2V155.1c0-20.5,16.6-37.1,37.1-37.1h422.7c20.5,0,37.1,16.6,37.1,37.1v312.2
		c0,20.5-16.6,37.1-37.1,37.1H44.7C24.2,504.3,7.6,487.7,7.6,467.2z"/>
	<path class="st1" d="M134,158.6h329.8v305.2H134V158.6z"/>
	<path class="st1" d="M48.2,372.4c7.6,3.1,15.9,4.8,24.7,4.8s17-1.7,24.7-4.8v91.3H48.2V372.4z"/>
	<path class="st1" d="M48.2,158.6h49.3v91.3c-7.6-3.1-15.9-4.8-24.7-4.8s-17,1.7-24.7,4.8V158.6z"/>
	<path class="st1" d="M113.9,311.1c0,22.7-18.4,41.1-41.1,41.1c-22.7,0-41.1-18.4-41.1-41.1s18.4-41.1,41.1-41.1
		C95.5,270.1,113.9,288.4,113.9,311.1z"/>
	<path class="st2" d="M411.9,295.5v29.4c0,9.2-7.5,16.7-16.7,16.7c-9.2,0-16.7-7.5-16.7-16.7v-29.4"/>
	<path class="st3" d="M395.2,299.1c-22.7,0-41.1-18.4-41.1-41.1V24c0-8.5,6.9-15.4,15.4-15.4h51.2c8.5,0,15.4,6.9,15.4,15.4v234
		C436.2,280.7,417.8,299.1,395.2,299.1z"/>
	<path class="st4" d="M395.1,299.1c-22.7,0-41.1-18.4-41.1-41.1V24c0-8.5,6.9-15.4,15.4-15.4h16.1c-3.2,0-5.7,6.9-5.7,15.4v234
		C379.9,280.7,386.8,299.1,395.1,299.1z"/>
	<path class="st5" d="M467.3,110.4h-23.5V24c0-12.7-10.3-23-23-23h-51.3c-12.7,0-23,10.3-23,23v86.4h-126c-4.2,0-7.6,3.4-7.6,7.6
		s3.4,7.6,7.6,7.6h126v25.3H134c-4.2,0-7.6,3.4-7.6,7.6v305.1c0,4.2,3.4,7.6,7.6,7.6h329.8c4.2,0,7.6-3.4,7.6-7.6v-35.9
		c0-4.2-3.4-7.6-7.6-7.6c-4.2,0-7.6,3.4-7.6,7.6v28.3H141.6V166.2h204.9V258c0,18,9.8,33.7,24.3,42.1v24.8
		c0,13.4,10.9,24.3,24.3,24.3c13.4,0,24.3-10.9,24.3-24.3v-24.8c14.5-8.4,24.3-24.1,24.3-42.1v-91.9h12.4v236.3
		c0,4.2,3.4,7.6,7.6,7.6c4.2,0,7.6-3.4,7.6-7.6V158.6c0-4.2-3.4-7.6-7.6-7.6h-20v-25.3h23.5c16.2,0,29.5,13.2,29.5,29.5v312.1
		c0,16.2-13.2,29.5-29.5,29.5H44.7c-16.2,0-29.5-13.2-29.5-29.5V155.1c0-16.2,13.2-29.5,29.5-29.5h150.5c4.2,0,7.6-3.4,7.6-7.6
		s-3.4-7.6-7.6-7.6H44.7C20,110.4,0,130.4,0,155.1v312.1c0,24.6,20,44.7,44.7,44.7h422.7c24.6,0,44.7-20,44.7-44.7V155.1
		C512,130.4,492,110.4,467.3,110.4z M369.5,16.2h51.3c4.3,0,7.8,3.5,7.8,7.8v37.8h-66.9V24C361.7,19.7,365.2,16.2,369.5,16.2z
		 M404.3,324.9c0,5-4.1,9.1-9.1,9.1s-9.1-4.1-9.1-9.1v-19.1c3,0.6,6,0.9,9.1,0.9c3.1,0,6.2-0.3,9.1-0.9V324.9z M395.2,291.5
		c-18.4,0-33.5-15-33.5-33.5V77h66.9v181C428.6,276.5,413.6,291.5,395.2,291.5z"/>
	<path class="st5" d="M215.1,191.5h-40.6c-4.2,0-7.6,3.4-7.6,7.6v40.6c0,4.2,3.4,7.6,7.6,7.6s7.6-3.4,7.6-7.6v-32.9h33
		c4.2,0,7.6-3.4,7.6-7.6C222.7,194.9,219.3,191.5,215.1,191.5z"/>
	<path class="st5" d="M174.5,375c-4.2,0-7.6,3.4-7.6,7.6v40.6c0,4.2,3.4,7.6,7.6,7.6h40.6c4.2,0,7.6-3.4,7.6-7.6
		c0-4.2-3.4-7.6-7.6-7.6h-33v-32.9C182.1,378.4,178.7,375,174.5,375z"/>
	<path class="st5" d="M423.3,375c-4.2,0-7.6,3.4-7.6,7.6v32.9h-32.9c-4.2,0-7.6,3.4-7.6,7.6c0,4.2,3.4,7.6,7.6,7.6h40.6
		c4.2,0,7.6-3.4,7.6-7.6v-40.6C430.9,378.4,427.5,375,423.3,375z"/>
	<path class="st5" d="M94.7,365.3c-6.9,2.8-14.3,4.2-21.8,4.2c-7.5,0-14.9-1.4-21.8-4.2c-2.3-0.9-5-0.7-7.1,0.8s-3.3,3.8-3.3,6.3
		v91.3c0,4.2,3.4,7.6,7.6,7.6h49.3c4.2,0,7.6-3.4,7.6-7.6v-91.3c0-2.5-1.3-4.9-3.3-6.3C99.7,364.7,97,364.4,94.7,365.3z M89.9,382.8
		v31.6H55.8v-31.6C66.9,385.4,78.8,385.4,89.9,382.8z M55.8,456.1v-26.6h34.1v26.6H55.8z"/>
	<path class="st5" d="M51,256.9c6.9-2.8,14.3-4.2,21.8-4.2s14.9,1.4,21.8,4.2c0.9,0.4,1.9,0.6,2.8,0.6c1.5,0,3-0.4,4.3-1.3
		c2.1-1.4,3.3-3.8,3.3-6.3v-91.3c0-4.2-3.4-7.6-7.6-7.6H48.2c-4.2,0-7.6,3.4-7.6,7.6v91.3c0,2.5,1.3,4.9,3.3,6.3
		S48.7,257.9,51,256.9z M72.8,237.5c-5.8,0-11.5,0.7-17.1,2v-31.6h34.1v31.6C84.3,238.2,78.6,237.5,72.8,237.5z M89.9,166.2v26.6
		H55.8v-26.6H89.9z"/>
	<path class="st5" d="M121.5,311.1c0-26.8-21.8-48.7-48.7-48.7c-26.8,0-48.7,21.8-48.7,48.7s21.8,48.7,48.7,48.7
		C99.7,359.8,121.5,338,121.5,311.1z M72.8,344.6c-18.4,0-33.5-15-33.5-33.5s15-33.5,33.5-33.5c18.4,0,33.5,15,33.5,33.5
		C106.3,329.6,91.3,344.6,72.8,344.6z"/>
</g>
</svg>
